G04 #@! TF.GenerationSoftware,KiCad,Pcbnew,5.1.2-f72e74a~84~ubuntu18.04.1*
G04 #@! TF.CreationDate,2021-05-31T02:13:38+02:00*
G04 #@! TF.ProjectId,USB_I2C_Iface,5553425f-4932-4435-9f49-666163652e6b,rev?*
G04 #@! TF.SameCoordinates,Original*
G04 #@! TF.FileFunction,Legend,Bot*
G04 #@! TF.FilePolarity,Positive*
%FSLAX46Y46*%
G04 Gerber Fmt 4.6, Leading zero omitted, Abs format (unit mm)*
G04 Created by KiCad (PCBNEW 5.1.2-f72e74a~84~ubuntu18.04.1) date 2021-05-31 02:13:38*
%MOMM*%
%LPD*%
G04 APERTURE LIST*
%ADD10C,0.500000*%
%ADD11C,0.120000*%
%ADD12C,0.150000*%
G04 APERTURE END LIST*
D10*
X47296605Y-58801000D02*
G75*
G03X47296605Y-58801000I-179605J0D01*
G01*
D11*
X71660936Y-48027000D02*
X72865064Y-48027000D01*
X71660936Y-46207000D02*
X72865064Y-46207000D01*
X65375064Y-48493000D02*
X64170936Y-48493000D01*
X65375064Y-50313000D02*
X64170936Y-50313000D01*
X48930936Y-55173200D02*
X50135064Y-55173200D01*
X48930936Y-56993200D02*
X50135064Y-56993200D01*
X51851936Y-38460000D02*
X53056064Y-38460000D01*
X51851936Y-40280000D02*
X53056064Y-40280000D01*
X51972936Y-37486000D02*
X53177064Y-37486000D01*
X51972936Y-35666000D02*
X53177064Y-35666000D01*
X51845936Y-41254000D02*
X53050064Y-41254000D01*
X51845936Y-43074000D02*
X53050064Y-43074000D01*
X68485936Y-55520000D02*
X69690064Y-55520000D01*
X68485936Y-53700000D02*
X69690064Y-53700000D01*
X62463000Y-39975064D02*
X62463000Y-38770936D01*
X64283000Y-39975064D02*
X64283000Y-38770936D01*
X75078000Y-39842064D02*
X75078000Y-38637936D01*
X73258000Y-39842064D02*
X73258000Y-38637936D01*
D12*
X72429666Y-49294142D02*
X72477285Y-49341761D01*
X72620142Y-49389380D01*
X72715380Y-49389380D01*
X72858238Y-49341761D01*
X72953476Y-49246523D01*
X73001095Y-49151285D01*
X73048714Y-48960809D01*
X73048714Y-48817952D01*
X73001095Y-48627476D01*
X72953476Y-48532238D01*
X72858238Y-48437000D01*
X72715380Y-48389380D01*
X72620142Y-48389380D01*
X72477285Y-48437000D01*
X72429666Y-48484619D01*
X71477285Y-49389380D02*
X72048714Y-49389380D01*
X71763000Y-49389380D02*
X71763000Y-48389380D01*
X71858238Y-48532238D01*
X71953476Y-48627476D01*
X72048714Y-48675095D01*
X64939666Y-47940142D02*
X64987285Y-47987761D01*
X65130142Y-48035380D01*
X65225380Y-48035380D01*
X65368238Y-47987761D01*
X65463476Y-47892523D01*
X65511095Y-47797285D01*
X65558714Y-47606809D01*
X65558714Y-47463952D01*
X65511095Y-47273476D01*
X65463476Y-47178238D01*
X65368238Y-47083000D01*
X65225380Y-47035380D01*
X65130142Y-47035380D01*
X64987285Y-47083000D01*
X64939666Y-47130619D01*
X64558714Y-47130619D02*
X64511095Y-47083000D01*
X64415857Y-47035380D01*
X64177761Y-47035380D01*
X64082523Y-47083000D01*
X64034904Y-47130619D01*
X63987285Y-47225857D01*
X63987285Y-47321095D01*
X64034904Y-47463952D01*
X64606333Y-48035380D01*
X63987285Y-48035380D01*
X53125666Y-56110142D02*
X53173285Y-56157761D01*
X53316142Y-56205380D01*
X53411380Y-56205380D01*
X53554238Y-56157761D01*
X53649476Y-56062523D01*
X53697095Y-55967285D01*
X53744714Y-55776809D01*
X53744714Y-55633952D01*
X53697095Y-55443476D01*
X53649476Y-55348238D01*
X53554238Y-55253000D01*
X53411380Y-55205380D01*
X53316142Y-55205380D01*
X53173285Y-55253000D01*
X53125666Y-55300619D01*
X52792333Y-55205380D02*
X52173285Y-55205380D01*
X52506619Y-55586333D01*
X52363761Y-55586333D01*
X52268523Y-55633952D01*
X52220904Y-55681571D01*
X52173285Y-55776809D01*
X52173285Y-56014904D01*
X52220904Y-56110142D01*
X52268523Y-56157761D01*
X52363761Y-56205380D01*
X52649476Y-56205380D01*
X52744714Y-56157761D01*
X52792333Y-56110142D01*
X49321666Y-39727142D02*
X49369285Y-39774761D01*
X49512142Y-39822380D01*
X49607380Y-39822380D01*
X49750238Y-39774761D01*
X49845476Y-39679523D01*
X49893095Y-39584285D01*
X49940714Y-39393809D01*
X49940714Y-39250952D01*
X49893095Y-39060476D01*
X49845476Y-38965238D01*
X49750238Y-38870000D01*
X49607380Y-38822380D01*
X49512142Y-38822380D01*
X49369285Y-38870000D01*
X49321666Y-38917619D01*
X48464523Y-39155714D02*
X48464523Y-39822380D01*
X48702619Y-38774761D02*
X48940714Y-39489047D01*
X48321666Y-39489047D01*
X49315666Y-36933142D02*
X49363285Y-36980761D01*
X49506142Y-37028380D01*
X49601380Y-37028380D01*
X49744238Y-36980761D01*
X49839476Y-36885523D01*
X49887095Y-36790285D01*
X49934714Y-36599809D01*
X49934714Y-36456952D01*
X49887095Y-36266476D01*
X49839476Y-36171238D01*
X49744238Y-36076000D01*
X49601380Y-36028380D01*
X49506142Y-36028380D01*
X49363285Y-36076000D01*
X49315666Y-36123619D01*
X48410904Y-36028380D02*
X48887095Y-36028380D01*
X48934714Y-36504571D01*
X48887095Y-36456952D01*
X48791857Y-36409333D01*
X48553761Y-36409333D01*
X48458523Y-36456952D01*
X48410904Y-36504571D01*
X48363285Y-36599809D01*
X48363285Y-36837904D01*
X48410904Y-36933142D01*
X48458523Y-36980761D01*
X48553761Y-37028380D01*
X48791857Y-37028380D01*
X48887095Y-36980761D01*
X48934714Y-36933142D01*
X49315666Y-42521142D02*
X49363285Y-42568761D01*
X49506142Y-42616380D01*
X49601380Y-42616380D01*
X49744238Y-42568761D01*
X49839476Y-42473523D01*
X49887095Y-42378285D01*
X49934714Y-42187809D01*
X49934714Y-42044952D01*
X49887095Y-41854476D01*
X49839476Y-41759238D01*
X49744238Y-41664000D01*
X49601380Y-41616380D01*
X49506142Y-41616380D01*
X49363285Y-41664000D01*
X49315666Y-41711619D01*
X48458523Y-41616380D02*
X48649000Y-41616380D01*
X48744238Y-41664000D01*
X48791857Y-41711619D01*
X48887095Y-41854476D01*
X48934714Y-42044952D01*
X48934714Y-42425904D01*
X48887095Y-42521142D01*
X48839476Y-42568761D01*
X48744238Y-42616380D01*
X48553761Y-42616380D01*
X48458523Y-42568761D01*
X48410904Y-42521142D01*
X48363285Y-42425904D01*
X48363285Y-42187809D01*
X48410904Y-42092571D01*
X48458523Y-42044952D01*
X48553761Y-41997333D01*
X48744238Y-41997333D01*
X48839476Y-42044952D01*
X48887095Y-42092571D01*
X48934714Y-42187809D01*
X55959333Y-56094380D02*
X55959333Y-56808666D01*
X56006952Y-56951523D01*
X56102190Y-57046761D01*
X56245047Y-57094380D01*
X56340285Y-57094380D01*
X55340285Y-56522952D02*
X55435523Y-56475333D01*
X55483142Y-56427714D01*
X55530761Y-56332476D01*
X55530761Y-56284857D01*
X55483142Y-56189619D01*
X55435523Y-56142000D01*
X55340285Y-56094380D01*
X55149809Y-56094380D01*
X55054571Y-56142000D01*
X55006952Y-56189619D01*
X54959333Y-56284857D01*
X54959333Y-56332476D01*
X55006952Y-56427714D01*
X55054571Y-56475333D01*
X55149809Y-56522952D01*
X55340285Y-56522952D01*
X55435523Y-56570571D01*
X55483142Y-56618190D01*
X55530761Y-56713428D01*
X55530761Y-56903904D01*
X55483142Y-56999142D01*
X55435523Y-57046761D01*
X55340285Y-57094380D01*
X55149809Y-57094380D01*
X55054571Y-57046761D01*
X55006952Y-56999142D01*
X54959333Y-56903904D01*
X54959333Y-56713428D01*
X55006952Y-56618190D01*
X55054571Y-56570571D01*
X55149809Y-56522952D01*
X65825666Y-55062380D02*
X66159000Y-54586190D01*
X66397095Y-55062380D02*
X66397095Y-54062380D01*
X66016142Y-54062380D01*
X65920904Y-54110000D01*
X65873285Y-54157619D01*
X65825666Y-54252857D01*
X65825666Y-54395714D01*
X65873285Y-54490952D01*
X65920904Y-54538571D01*
X66016142Y-54586190D01*
X66397095Y-54586190D01*
X64873285Y-55062380D02*
X65444714Y-55062380D01*
X65159000Y-55062380D02*
X65159000Y-54062380D01*
X65254238Y-54205238D01*
X65349476Y-54300476D01*
X65444714Y-54348095D01*
X63539666Y-36780380D02*
X63873000Y-36304190D01*
X64111095Y-36780380D02*
X64111095Y-35780380D01*
X63730142Y-35780380D01*
X63634904Y-35828000D01*
X63587285Y-35875619D01*
X63539666Y-35970857D01*
X63539666Y-36113714D01*
X63587285Y-36208952D01*
X63634904Y-36256571D01*
X63730142Y-36304190D01*
X64111095Y-36304190D01*
X63206333Y-35780380D02*
X62587285Y-35780380D01*
X62920619Y-36161333D01*
X62777761Y-36161333D01*
X62682523Y-36208952D01*
X62634904Y-36256571D01*
X62587285Y-36351809D01*
X62587285Y-36589904D01*
X62634904Y-36685142D01*
X62682523Y-36732761D01*
X62777761Y-36780380D01*
X63063476Y-36780380D01*
X63158714Y-36732761D01*
X63206333Y-36685142D01*
X74334666Y-36774380D02*
X74668000Y-36298190D01*
X74906095Y-36774380D02*
X74906095Y-35774380D01*
X74525142Y-35774380D01*
X74429904Y-35822000D01*
X74382285Y-35869619D01*
X74334666Y-35964857D01*
X74334666Y-36107714D01*
X74382285Y-36202952D01*
X74429904Y-36250571D01*
X74525142Y-36298190D01*
X74906095Y-36298190D01*
X73477523Y-36107714D02*
X73477523Y-36774380D01*
X73715619Y-35726761D02*
X73953714Y-36441047D01*
X73334666Y-36441047D01*
M02*
