G04 #@! TF.GenerationSoftware,KiCad,Pcbnew,5.1.2-f72e74a~84~ubuntu18.04.1*
G04 #@! TF.CreationDate,2021-05-31T02:13:38+02:00*
G04 #@! TF.ProjectId,USB_I2C_Iface,5553425f-4932-4435-9f49-666163652e6b,rev?*
G04 #@! TF.SameCoordinates,Original*
G04 #@! TF.FileFunction,Copper,L2,Bot*
G04 #@! TF.FilePolarity,Positive*
%FSLAX46Y46*%
G04 Gerber Fmt 4.6, Leading zero omitted, Abs format (unit mm)*
G04 Created by KiCad (PCBNEW 5.1.2-f72e74a~84~ubuntu18.04.1) date 2021-05-31 02:13:38*
%MOMM*%
%LPD*%
G04 APERTURE LIST*
%ADD10O,2.700000X1.700000*%
%ADD11O,1.650000X1.100000*%
%ADD12C,0.100000*%
%ADD13C,1.250000*%
%ADD14C,1.500000*%
%ADD15O,1.740000X2.200000*%
%ADD16C,1.740000*%
%ADD17R,1.700000X1.700000*%
%ADD18O,1.700000X1.700000*%
%ADD19R,1.600000X1.600000*%
%ADD20O,1.600000X1.600000*%
%ADD21C,0.800000*%
%ADD22C,0.750000*%
%ADD23C,0.254000*%
G04 APERTURE END LIST*
D10*
X49687000Y-52367000D03*
X49687000Y-45067000D03*
D11*
X55037000Y-50317000D03*
X53237000Y-49517000D03*
X55037000Y-48717000D03*
X53237000Y-47917000D03*
X55037000Y-47117000D03*
D12*
G36*
X71262504Y-46243204D02*
G01*
X71286773Y-46246804D01*
X71310571Y-46252765D01*
X71333671Y-46261030D01*
X71355849Y-46271520D01*
X71376893Y-46284133D01*
X71396598Y-46298747D01*
X71414777Y-46315223D01*
X71431253Y-46333402D01*
X71445867Y-46353107D01*
X71458480Y-46374151D01*
X71468970Y-46396329D01*
X71477235Y-46419429D01*
X71483196Y-46443227D01*
X71486796Y-46467496D01*
X71488000Y-46492000D01*
X71488000Y-47742000D01*
X71486796Y-47766504D01*
X71483196Y-47790773D01*
X71477235Y-47814571D01*
X71468970Y-47837671D01*
X71458480Y-47859849D01*
X71445867Y-47880893D01*
X71431253Y-47900598D01*
X71414777Y-47918777D01*
X71396598Y-47935253D01*
X71376893Y-47949867D01*
X71355849Y-47962480D01*
X71333671Y-47972970D01*
X71310571Y-47981235D01*
X71286773Y-47987196D01*
X71262504Y-47990796D01*
X71238000Y-47992000D01*
X70488000Y-47992000D01*
X70463496Y-47990796D01*
X70439227Y-47987196D01*
X70415429Y-47981235D01*
X70392329Y-47972970D01*
X70370151Y-47962480D01*
X70349107Y-47949867D01*
X70329402Y-47935253D01*
X70311223Y-47918777D01*
X70294747Y-47900598D01*
X70280133Y-47880893D01*
X70267520Y-47859849D01*
X70257030Y-47837671D01*
X70248765Y-47814571D01*
X70242804Y-47790773D01*
X70239204Y-47766504D01*
X70238000Y-47742000D01*
X70238000Y-46492000D01*
X70239204Y-46467496D01*
X70242804Y-46443227D01*
X70248765Y-46419429D01*
X70257030Y-46396329D01*
X70267520Y-46374151D01*
X70280133Y-46353107D01*
X70294747Y-46333402D01*
X70311223Y-46315223D01*
X70329402Y-46298747D01*
X70349107Y-46284133D01*
X70370151Y-46271520D01*
X70392329Y-46261030D01*
X70415429Y-46252765D01*
X70439227Y-46246804D01*
X70463496Y-46243204D01*
X70488000Y-46242000D01*
X71238000Y-46242000D01*
X71262504Y-46243204D01*
X71262504Y-46243204D01*
G37*
D13*
X70863000Y-47117000D03*
D12*
G36*
X74062504Y-46243204D02*
G01*
X74086773Y-46246804D01*
X74110571Y-46252765D01*
X74133671Y-46261030D01*
X74155849Y-46271520D01*
X74176893Y-46284133D01*
X74196598Y-46298747D01*
X74214777Y-46315223D01*
X74231253Y-46333402D01*
X74245867Y-46353107D01*
X74258480Y-46374151D01*
X74268970Y-46396329D01*
X74277235Y-46419429D01*
X74283196Y-46443227D01*
X74286796Y-46467496D01*
X74288000Y-46492000D01*
X74288000Y-47742000D01*
X74286796Y-47766504D01*
X74283196Y-47790773D01*
X74277235Y-47814571D01*
X74268970Y-47837671D01*
X74258480Y-47859849D01*
X74245867Y-47880893D01*
X74231253Y-47900598D01*
X74214777Y-47918777D01*
X74196598Y-47935253D01*
X74176893Y-47949867D01*
X74155849Y-47962480D01*
X74133671Y-47972970D01*
X74110571Y-47981235D01*
X74086773Y-47987196D01*
X74062504Y-47990796D01*
X74038000Y-47992000D01*
X73288000Y-47992000D01*
X73263496Y-47990796D01*
X73239227Y-47987196D01*
X73215429Y-47981235D01*
X73192329Y-47972970D01*
X73170151Y-47962480D01*
X73149107Y-47949867D01*
X73129402Y-47935253D01*
X73111223Y-47918777D01*
X73094747Y-47900598D01*
X73080133Y-47880893D01*
X73067520Y-47859849D01*
X73057030Y-47837671D01*
X73048765Y-47814571D01*
X73042804Y-47790773D01*
X73039204Y-47766504D01*
X73038000Y-47742000D01*
X73038000Y-46492000D01*
X73039204Y-46467496D01*
X73042804Y-46443227D01*
X73048765Y-46419429D01*
X73057030Y-46396329D01*
X73067520Y-46374151D01*
X73080133Y-46353107D01*
X73094747Y-46333402D01*
X73111223Y-46315223D01*
X73129402Y-46298747D01*
X73149107Y-46284133D01*
X73170151Y-46271520D01*
X73192329Y-46261030D01*
X73215429Y-46252765D01*
X73239227Y-46246804D01*
X73263496Y-46243204D01*
X73288000Y-46242000D01*
X74038000Y-46242000D01*
X74062504Y-46243204D01*
X74062504Y-46243204D01*
G37*
D13*
X73663000Y-47117000D03*
D12*
G36*
X66572504Y-48529204D02*
G01*
X66596773Y-48532804D01*
X66620571Y-48538765D01*
X66643671Y-48547030D01*
X66665849Y-48557520D01*
X66686893Y-48570133D01*
X66706598Y-48584747D01*
X66724777Y-48601223D01*
X66741253Y-48619402D01*
X66755867Y-48639107D01*
X66768480Y-48660151D01*
X66778970Y-48682329D01*
X66787235Y-48705429D01*
X66793196Y-48729227D01*
X66796796Y-48753496D01*
X66798000Y-48778000D01*
X66798000Y-50028000D01*
X66796796Y-50052504D01*
X66793196Y-50076773D01*
X66787235Y-50100571D01*
X66778970Y-50123671D01*
X66768480Y-50145849D01*
X66755867Y-50166893D01*
X66741253Y-50186598D01*
X66724777Y-50204777D01*
X66706598Y-50221253D01*
X66686893Y-50235867D01*
X66665849Y-50248480D01*
X66643671Y-50258970D01*
X66620571Y-50267235D01*
X66596773Y-50273196D01*
X66572504Y-50276796D01*
X66548000Y-50278000D01*
X65798000Y-50278000D01*
X65773496Y-50276796D01*
X65749227Y-50273196D01*
X65725429Y-50267235D01*
X65702329Y-50258970D01*
X65680151Y-50248480D01*
X65659107Y-50235867D01*
X65639402Y-50221253D01*
X65621223Y-50204777D01*
X65604747Y-50186598D01*
X65590133Y-50166893D01*
X65577520Y-50145849D01*
X65567030Y-50123671D01*
X65558765Y-50100571D01*
X65552804Y-50076773D01*
X65549204Y-50052504D01*
X65548000Y-50028000D01*
X65548000Y-48778000D01*
X65549204Y-48753496D01*
X65552804Y-48729227D01*
X65558765Y-48705429D01*
X65567030Y-48682329D01*
X65577520Y-48660151D01*
X65590133Y-48639107D01*
X65604747Y-48619402D01*
X65621223Y-48601223D01*
X65639402Y-48584747D01*
X65659107Y-48570133D01*
X65680151Y-48557520D01*
X65702329Y-48547030D01*
X65725429Y-48538765D01*
X65749227Y-48532804D01*
X65773496Y-48529204D01*
X65798000Y-48528000D01*
X66548000Y-48528000D01*
X66572504Y-48529204D01*
X66572504Y-48529204D01*
G37*
D13*
X66173000Y-49403000D03*
D12*
G36*
X63772504Y-48529204D02*
G01*
X63796773Y-48532804D01*
X63820571Y-48538765D01*
X63843671Y-48547030D01*
X63865849Y-48557520D01*
X63886893Y-48570133D01*
X63906598Y-48584747D01*
X63924777Y-48601223D01*
X63941253Y-48619402D01*
X63955867Y-48639107D01*
X63968480Y-48660151D01*
X63978970Y-48682329D01*
X63987235Y-48705429D01*
X63993196Y-48729227D01*
X63996796Y-48753496D01*
X63998000Y-48778000D01*
X63998000Y-50028000D01*
X63996796Y-50052504D01*
X63993196Y-50076773D01*
X63987235Y-50100571D01*
X63978970Y-50123671D01*
X63968480Y-50145849D01*
X63955867Y-50166893D01*
X63941253Y-50186598D01*
X63924777Y-50204777D01*
X63906598Y-50221253D01*
X63886893Y-50235867D01*
X63865849Y-50248480D01*
X63843671Y-50258970D01*
X63820571Y-50267235D01*
X63796773Y-50273196D01*
X63772504Y-50276796D01*
X63748000Y-50278000D01*
X62998000Y-50278000D01*
X62973496Y-50276796D01*
X62949227Y-50273196D01*
X62925429Y-50267235D01*
X62902329Y-50258970D01*
X62880151Y-50248480D01*
X62859107Y-50235867D01*
X62839402Y-50221253D01*
X62821223Y-50204777D01*
X62804747Y-50186598D01*
X62790133Y-50166893D01*
X62777520Y-50145849D01*
X62767030Y-50123671D01*
X62758765Y-50100571D01*
X62752804Y-50076773D01*
X62749204Y-50052504D01*
X62748000Y-50028000D01*
X62748000Y-48778000D01*
X62749204Y-48753496D01*
X62752804Y-48729227D01*
X62758765Y-48705429D01*
X62767030Y-48682329D01*
X62777520Y-48660151D01*
X62790133Y-48639107D01*
X62804747Y-48619402D01*
X62821223Y-48601223D01*
X62839402Y-48584747D01*
X62859107Y-48570133D01*
X62880151Y-48557520D01*
X62902329Y-48547030D01*
X62925429Y-48538765D01*
X62949227Y-48532804D01*
X62973496Y-48529204D01*
X62998000Y-48528000D01*
X63748000Y-48528000D01*
X63772504Y-48529204D01*
X63772504Y-48529204D01*
G37*
D13*
X63373000Y-49403000D03*
D12*
G36*
X51332504Y-55209404D02*
G01*
X51356773Y-55213004D01*
X51380571Y-55218965D01*
X51403671Y-55227230D01*
X51425849Y-55237720D01*
X51446893Y-55250333D01*
X51466598Y-55264947D01*
X51484777Y-55281423D01*
X51501253Y-55299602D01*
X51515867Y-55319307D01*
X51528480Y-55340351D01*
X51538970Y-55362529D01*
X51547235Y-55385629D01*
X51553196Y-55409427D01*
X51556796Y-55433696D01*
X51558000Y-55458200D01*
X51558000Y-56708200D01*
X51556796Y-56732704D01*
X51553196Y-56756973D01*
X51547235Y-56780771D01*
X51538970Y-56803871D01*
X51528480Y-56826049D01*
X51515867Y-56847093D01*
X51501253Y-56866798D01*
X51484777Y-56884977D01*
X51466598Y-56901453D01*
X51446893Y-56916067D01*
X51425849Y-56928680D01*
X51403671Y-56939170D01*
X51380571Y-56947435D01*
X51356773Y-56953396D01*
X51332504Y-56956996D01*
X51308000Y-56958200D01*
X50558000Y-56958200D01*
X50533496Y-56956996D01*
X50509227Y-56953396D01*
X50485429Y-56947435D01*
X50462329Y-56939170D01*
X50440151Y-56928680D01*
X50419107Y-56916067D01*
X50399402Y-56901453D01*
X50381223Y-56884977D01*
X50364747Y-56866798D01*
X50350133Y-56847093D01*
X50337520Y-56826049D01*
X50327030Y-56803871D01*
X50318765Y-56780771D01*
X50312804Y-56756973D01*
X50309204Y-56732704D01*
X50308000Y-56708200D01*
X50308000Y-55458200D01*
X50309204Y-55433696D01*
X50312804Y-55409427D01*
X50318765Y-55385629D01*
X50327030Y-55362529D01*
X50337520Y-55340351D01*
X50350133Y-55319307D01*
X50364747Y-55299602D01*
X50381223Y-55281423D01*
X50399402Y-55264947D01*
X50419107Y-55250333D01*
X50440151Y-55237720D01*
X50462329Y-55227230D01*
X50485429Y-55218965D01*
X50509227Y-55213004D01*
X50533496Y-55209404D01*
X50558000Y-55208200D01*
X51308000Y-55208200D01*
X51332504Y-55209404D01*
X51332504Y-55209404D01*
G37*
D13*
X50933000Y-56083200D03*
D12*
G36*
X48532504Y-55209404D02*
G01*
X48556773Y-55213004D01*
X48580571Y-55218965D01*
X48603671Y-55227230D01*
X48625849Y-55237720D01*
X48646893Y-55250333D01*
X48666598Y-55264947D01*
X48684777Y-55281423D01*
X48701253Y-55299602D01*
X48715867Y-55319307D01*
X48728480Y-55340351D01*
X48738970Y-55362529D01*
X48747235Y-55385629D01*
X48753196Y-55409427D01*
X48756796Y-55433696D01*
X48758000Y-55458200D01*
X48758000Y-56708200D01*
X48756796Y-56732704D01*
X48753196Y-56756973D01*
X48747235Y-56780771D01*
X48738970Y-56803871D01*
X48728480Y-56826049D01*
X48715867Y-56847093D01*
X48701253Y-56866798D01*
X48684777Y-56884977D01*
X48666598Y-56901453D01*
X48646893Y-56916067D01*
X48625849Y-56928680D01*
X48603671Y-56939170D01*
X48580571Y-56947435D01*
X48556773Y-56953396D01*
X48532504Y-56956996D01*
X48508000Y-56958200D01*
X47758000Y-56958200D01*
X47733496Y-56956996D01*
X47709227Y-56953396D01*
X47685429Y-56947435D01*
X47662329Y-56939170D01*
X47640151Y-56928680D01*
X47619107Y-56916067D01*
X47599402Y-56901453D01*
X47581223Y-56884977D01*
X47564747Y-56866798D01*
X47550133Y-56847093D01*
X47537520Y-56826049D01*
X47527030Y-56803871D01*
X47518765Y-56780771D01*
X47512804Y-56756973D01*
X47509204Y-56732704D01*
X47508000Y-56708200D01*
X47508000Y-55458200D01*
X47509204Y-55433696D01*
X47512804Y-55409427D01*
X47518765Y-55385629D01*
X47527030Y-55362529D01*
X47537520Y-55340351D01*
X47550133Y-55319307D01*
X47564747Y-55299602D01*
X47581223Y-55281423D01*
X47599402Y-55264947D01*
X47619107Y-55250333D01*
X47640151Y-55237720D01*
X47662329Y-55227230D01*
X47685429Y-55218965D01*
X47709227Y-55213004D01*
X47733496Y-55209404D01*
X47758000Y-55208200D01*
X48508000Y-55208200D01*
X48532504Y-55209404D01*
X48532504Y-55209404D01*
G37*
D13*
X48133000Y-56083200D03*
D12*
G36*
X54253504Y-38496204D02*
G01*
X54277773Y-38499804D01*
X54301571Y-38505765D01*
X54324671Y-38514030D01*
X54346849Y-38524520D01*
X54367893Y-38537133D01*
X54387598Y-38551747D01*
X54405777Y-38568223D01*
X54422253Y-38586402D01*
X54436867Y-38606107D01*
X54449480Y-38627151D01*
X54459970Y-38649329D01*
X54468235Y-38672429D01*
X54474196Y-38696227D01*
X54477796Y-38720496D01*
X54479000Y-38745000D01*
X54479000Y-39995000D01*
X54477796Y-40019504D01*
X54474196Y-40043773D01*
X54468235Y-40067571D01*
X54459970Y-40090671D01*
X54449480Y-40112849D01*
X54436867Y-40133893D01*
X54422253Y-40153598D01*
X54405777Y-40171777D01*
X54387598Y-40188253D01*
X54367893Y-40202867D01*
X54346849Y-40215480D01*
X54324671Y-40225970D01*
X54301571Y-40234235D01*
X54277773Y-40240196D01*
X54253504Y-40243796D01*
X54229000Y-40245000D01*
X53479000Y-40245000D01*
X53454496Y-40243796D01*
X53430227Y-40240196D01*
X53406429Y-40234235D01*
X53383329Y-40225970D01*
X53361151Y-40215480D01*
X53340107Y-40202867D01*
X53320402Y-40188253D01*
X53302223Y-40171777D01*
X53285747Y-40153598D01*
X53271133Y-40133893D01*
X53258520Y-40112849D01*
X53248030Y-40090671D01*
X53239765Y-40067571D01*
X53233804Y-40043773D01*
X53230204Y-40019504D01*
X53229000Y-39995000D01*
X53229000Y-38745000D01*
X53230204Y-38720496D01*
X53233804Y-38696227D01*
X53239765Y-38672429D01*
X53248030Y-38649329D01*
X53258520Y-38627151D01*
X53271133Y-38606107D01*
X53285747Y-38586402D01*
X53302223Y-38568223D01*
X53320402Y-38551747D01*
X53340107Y-38537133D01*
X53361151Y-38524520D01*
X53383329Y-38514030D01*
X53406429Y-38505765D01*
X53430227Y-38499804D01*
X53454496Y-38496204D01*
X53479000Y-38495000D01*
X54229000Y-38495000D01*
X54253504Y-38496204D01*
X54253504Y-38496204D01*
G37*
D13*
X53854000Y-39370000D03*
D12*
G36*
X51453504Y-38496204D02*
G01*
X51477773Y-38499804D01*
X51501571Y-38505765D01*
X51524671Y-38514030D01*
X51546849Y-38524520D01*
X51567893Y-38537133D01*
X51587598Y-38551747D01*
X51605777Y-38568223D01*
X51622253Y-38586402D01*
X51636867Y-38606107D01*
X51649480Y-38627151D01*
X51659970Y-38649329D01*
X51668235Y-38672429D01*
X51674196Y-38696227D01*
X51677796Y-38720496D01*
X51679000Y-38745000D01*
X51679000Y-39995000D01*
X51677796Y-40019504D01*
X51674196Y-40043773D01*
X51668235Y-40067571D01*
X51659970Y-40090671D01*
X51649480Y-40112849D01*
X51636867Y-40133893D01*
X51622253Y-40153598D01*
X51605777Y-40171777D01*
X51587598Y-40188253D01*
X51567893Y-40202867D01*
X51546849Y-40215480D01*
X51524671Y-40225970D01*
X51501571Y-40234235D01*
X51477773Y-40240196D01*
X51453504Y-40243796D01*
X51429000Y-40245000D01*
X50679000Y-40245000D01*
X50654496Y-40243796D01*
X50630227Y-40240196D01*
X50606429Y-40234235D01*
X50583329Y-40225970D01*
X50561151Y-40215480D01*
X50540107Y-40202867D01*
X50520402Y-40188253D01*
X50502223Y-40171777D01*
X50485747Y-40153598D01*
X50471133Y-40133893D01*
X50458520Y-40112849D01*
X50448030Y-40090671D01*
X50439765Y-40067571D01*
X50433804Y-40043773D01*
X50430204Y-40019504D01*
X50429000Y-39995000D01*
X50429000Y-38745000D01*
X50430204Y-38720496D01*
X50433804Y-38696227D01*
X50439765Y-38672429D01*
X50448030Y-38649329D01*
X50458520Y-38627151D01*
X50471133Y-38606107D01*
X50485747Y-38586402D01*
X50502223Y-38568223D01*
X50520402Y-38551747D01*
X50540107Y-38537133D01*
X50561151Y-38524520D01*
X50583329Y-38514030D01*
X50606429Y-38505765D01*
X50630227Y-38499804D01*
X50654496Y-38496204D01*
X50679000Y-38495000D01*
X51429000Y-38495000D01*
X51453504Y-38496204D01*
X51453504Y-38496204D01*
G37*
D13*
X51054000Y-39370000D03*
D12*
G36*
X51574504Y-35702204D02*
G01*
X51598773Y-35705804D01*
X51622571Y-35711765D01*
X51645671Y-35720030D01*
X51667849Y-35730520D01*
X51688893Y-35743133D01*
X51708598Y-35757747D01*
X51726777Y-35774223D01*
X51743253Y-35792402D01*
X51757867Y-35812107D01*
X51770480Y-35833151D01*
X51780970Y-35855329D01*
X51789235Y-35878429D01*
X51795196Y-35902227D01*
X51798796Y-35926496D01*
X51800000Y-35951000D01*
X51800000Y-37201000D01*
X51798796Y-37225504D01*
X51795196Y-37249773D01*
X51789235Y-37273571D01*
X51780970Y-37296671D01*
X51770480Y-37318849D01*
X51757867Y-37339893D01*
X51743253Y-37359598D01*
X51726777Y-37377777D01*
X51708598Y-37394253D01*
X51688893Y-37408867D01*
X51667849Y-37421480D01*
X51645671Y-37431970D01*
X51622571Y-37440235D01*
X51598773Y-37446196D01*
X51574504Y-37449796D01*
X51550000Y-37451000D01*
X50800000Y-37451000D01*
X50775496Y-37449796D01*
X50751227Y-37446196D01*
X50727429Y-37440235D01*
X50704329Y-37431970D01*
X50682151Y-37421480D01*
X50661107Y-37408867D01*
X50641402Y-37394253D01*
X50623223Y-37377777D01*
X50606747Y-37359598D01*
X50592133Y-37339893D01*
X50579520Y-37318849D01*
X50569030Y-37296671D01*
X50560765Y-37273571D01*
X50554804Y-37249773D01*
X50551204Y-37225504D01*
X50550000Y-37201000D01*
X50550000Y-35951000D01*
X50551204Y-35926496D01*
X50554804Y-35902227D01*
X50560765Y-35878429D01*
X50569030Y-35855329D01*
X50579520Y-35833151D01*
X50592133Y-35812107D01*
X50606747Y-35792402D01*
X50623223Y-35774223D01*
X50641402Y-35757747D01*
X50661107Y-35743133D01*
X50682151Y-35730520D01*
X50704329Y-35720030D01*
X50727429Y-35711765D01*
X50751227Y-35705804D01*
X50775496Y-35702204D01*
X50800000Y-35701000D01*
X51550000Y-35701000D01*
X51574504Y-35702204D01*
X51574504Y-35702204D01*
G37*
D13*
X51175000Y-36576000D03*
D12*
G36*
X54374504Y-35702204D02*
G01*
X54398773Y-35705804D01*
X54422571Y-35711765D01*
X54445671Y-35720030D01*
X54467849Y-35730520D01*
X54488893Y-35743133D01*
X54508598Y-35757747D01*
X54526777Y-35774223D01*
X54543253Y-35792402D01*
X54557867Y-35812107D01*
X54570480Y-35833151D01*
X54580970Y-35855329D01*
X54589235Y-35878429D01*
X54595196Y-35902227D01*
X54598796Y-35926496D01*
X54600000Y-35951000D01*
X54600000Y-37201000D01*
X54598796Y-37225504D01*
X54595196Y-37249773D01*
X54589235Y-37273571D01*
X54580970Y-37296671D01*
X54570480Y-37318849D01*
X54557867Y-37339893D01*
X54543253Y-37359598D01*
X54526777Y-37377777D01*
X54508598Y-37394253D01*
X54488893Y-37408867D01*
X54467849Y-37421480D01*
X54445671Y-37431970D01*
X54422571Y-37440235D01*
X54398773Y-37446196D01*
X54374504Y-37449796D01*
X54350000Y-37451000D01*
X53600000Y-37451000D01*
X53575496Y-37449796D01*
X53551227Y-37446196D01*
X53527429Y-37440235D01*
X53504329Y-37431970D01*
X53482151Y-37421480D01*
X53461107Y-37408867D01*
X53441402Y-37394253D01*
X53423223Y-37377777D01*
X53406747Y-37359598D01*
X53392133Y-37339893D01*
X53379520Y-37318849D01*
X53369030Y-37296671D01*
X53360765Y-37273571D01*
X53354804Y-37249773D01*
X53351204Y-37225504D01*
X53350000Y-37201000D01*
X53350000Y-35951000D01*
X53351204Y-35926496D01*
X53354804Y-35902227D01*
X53360765Y-35878429D01*
X53369030Y-35855329D01*
X53379520Y-35833151D01*
X53392133Y-35812107D01*
X53406747Y-35792402D01*
X53423223Y-35774223D01*
X53441402Y-35757747D01*
X53461107Y-35743133D01*
X53482151Y-35730520D01*
X53504329Y-35720030D01*
X53527429Y-35711765D01*
X53551227Y-35705804D01*
X53575496Y-35702204D01*
X53600000Y-35701000D01*
X54350000Y-35701000D01*
X54374504Y-35702204D01*
X54374504Y-35702204D01*
G37*
D13*
X53975000Y-36576000D03*
D12*
G36*
X54247504Y-41290204D02*
G01*
X54271773Y-41293804D01*
X54295571Y-41299765D01*
X54318671Y-41308030D01*
X54340849Y-41318520D01*
X54361893Y-41331133D01*
X54381598Y-41345747D01*
X54399777Y-41362223D01*
X54416253Y-41380402D01*
X54430867Y-41400107D01*
X54443480Y-41421151D01*
X54453970Y-41443329D01*
X54462235Y-41466429D01*
X54468196Y-41490227D01*
X54471796Y-41514496D01*
X54473000Y-41539000D01*
X54473000Y-42789000D01*
X54471796Y-42813504D01*
X54468196Y-42837773D01*
X54462235Y-42861571D01*
X54453970Y-42884671D01*
X54443480Y-42906849D01*
X54430867Y-42927893D01*
X54416253Y-42947598D01*
X54399777Y-42965777D01*
X54381598Y-42982253D01*
X54361893Y-42996867D01*
X54340849Y-43009480D01*
X54318671Y-43019970D01*
X54295571Y-43028235D01*
X54271773Y-43034196D01*
X54247504Y-43037796D01*
X54223000Y-43039000D01*
X53473000Y-43039000D01*
X53448496Y-43037796D01*
X53424227Y-43034196D01*
X53400429Y-43028235D01*
X53377329Y-43019970D01*
X53355151Y-43009480D01*
X53334107Y-42996867D01*
X53314402Y-42982253D01*
X53296223Y-42965777D01*
X53279747Y-42947598D01*
X53265133Y-42927893D01*
X53252520Y-42906849D01*
X53242030Y-42884671D01*
X53233765Y-42861571D01*
X53227804Y-42837773D01*
X53224204Y-42813504D01*
X53223000Y-42789000D01*
X53223000Y-41539000D01*
X53224204Y-41514496D01*
X53227804Y-41490227D01*
X53233765Y-41466429D01*
X53242030Y-41443329D01*
X53252520Y-41421151D01*
X53265133Y-41400107D01*
X53279747Y-41380402D01*
X53296223Y-41362223D01*
X53314402Y-41345747D01*
X53334107Y-41331133D01*
X53355151Y-41318520D01*
X53377329Y-41308030D01*
X53400429Y-41299765D01*
X53424227Y-41293804D01*
X53448496Y-41290204D01*
X53473000Y-41289000D01*
X54223000Y-41289000D01*
X54247504Y-41290204D01*
X54247504Y-41290204D01*
G37*
D13*
X53848000Y-42164000D03*
D12*
G36*
X51447504Y-41290204D02*
G01*
X51471773Y-41293804D01*
X51495571Y-41299765D01*
X51518671Y-41308030D01*
X51540849Y-41318520D01*
X51561893Y-41331133D01*
X51581598Y-41345747D01*
X51599777Y-41362223D01*
X51616253Y-41380402D01*
X51630867Y-41400107D01*
X51643480Y-41421151D01*
X51653970Y-41443329D01*
X51662235Y-41466429D01*
X51668196Y-41490227D01*
X51671796Y-41514496D01*
X51673000Y-41539000D01*
X51673000Y-42789000D01*
X51671796Y-42813504D01*
X51668196Y-42837773D01*
X51662235Y-42861571D01*
X51653970Y-42884671D01*
X51643480Y-42906849D01*
X51630867Y-42927893D01*
X51616253Y-42947598D01*
X51599777Y-42965777D01*
X51581598Y-42982253D01*
X51561893Y-42996867D01*
X51540849Y-43009480D01*
X51518671Y-43019970D01*
X51495571Y-43028235D01*
X51471773Y-43034196D01*
X51447504Y-43037796D01*
X51423000Y-43039000D01*
X50673000Y-43039000D01*
X50648496Y-43037796D01*
X50624227Y-43034196D01*
X50600429Y-43028235D01*
X50577329Y-43019970D01*
X50555151Y-43009480D01*
X50534107Y-42996867D01*
X50514402Y-42982253D01*
X50496223Y-42965777D01*
X50479747Y-42947598D01*
X50465133Y-42927893D01*
X50452520Y-42906849D01*
X50442030Y-42884671D01*
X50433765Y-42861571D01*
X50427804Y-42837773D01*
X50424204Y-42813504D01*
X50423000Y-42789000D01*
X50423000Y-41539000D01*
X50424204Y-41514496D01*
X50427804Y-41490227D01*
X50433765Y-41466429D01*
X50442030Y-41443329D01*
X50452520Y-41421151D01*
X50465133Y-41400107D01*
X50479747Y-41380402D01*
X50496223Y-41362223D01*
X50514402Y-41345747D01*
X50534107Y-41331133D01*
X50555151Y-41318520D01*
X50577329Y-41308030D01*
X50600429Y-41299765D01*
X50624227Y-41293804D01*
X50648496Y-41290204D01*
X50673000Y-41289000D01*
X51423000Y-41289000D01*
X51447504Y-41290204D01*
X51447504Y-41290204D01*
G37*
D13*
X51048000Y-42164000D03*
D14*
X73533000Y-54483000D03*
X76200000Y-54483000D03*
D15*
X83312000Y-50292000D03*
X85852000Y-50292000D03*
X88392000Y-50292000D03*
D12*
G36*
X91576505Y-49193204D02*
G01*
X91600773Y-49196804D01*
X91624572Y-49202765D01*
X91647671Y-49211030D01*
X91669850Y-49221520D01*
X91690893Y-49234132D01*
X91710599Y-49248747D01*
X91728777Y-49265223D01*
X91745253Y-49283401D01*
X91759868Y-49303107D01*
X91772480Y-49324150D01*
X91782970Y-49346329D01*
X91791235Y-49369428D01*
X91797196Y-49393227D01*
X91800796Y-49417495D01*
X91802000Y-49441999D01*
X91802000Y-51142001D01*
X91800796Y-51166505D01*
X91797196Y-51190773D01*
X91791235Y-51214572D01*
X91782970Y-51237671D01*
X91772480Y-51259850D01*
X91759868Y-51280893D01*
X91745253Y-51300599D01*
X91728777Y-51318777D01*
X91710599Y-51335253D01*
X91690893Y-51349868D01*
X91669850Y-51362480D01*
X91647671Y-51372970D01*
X91624572Y-51381235D01*
X91600773Y-51387196D01*
X91576505Y-51390796D01*
X91552001Y-51392000D01*
X90311999Y-51392000D01*
X90287495Y-51390796D01*
X90263227Y-51387196D01*
X90239428Y-51381235D01*
X90216329Y-51372970D01*
X90194150Y-51362480D01*
X90173107Y-51349868D01*
X90153401Y-51335253D01*
X90135223Y-51318777D01*
X90118747Y-51300599D01*
X90104132Y-51280893D01*
X90091520Y-51259850D01*
X90081030Y-51237671D01*
X90072765Y-51214572D01*
X90066804Y-51190773D01*
X90063204Y-51166505D01*
X90062000Y-51142001D01*
X90062000Y-49441999D01*
X90063204Y-49417495D01*
X90066804Y-49393227D01*
X90072765Y-49369428D01*
X90081030Y-49346329D01*
X90091520Y-49324150D01*
X90104132Y-49303107D01*
X90118747Y-49283401D01*
X90135223Y-49265223D01*
X90153401Y-49248747D01*
X90173107Y-49234132D01*
X90194150Y-49221520D01*
X90216329Y-49211030D01*
X90239428Y-49202765D01*
X90263227Y-49196804D01*
X90287495Y-49193204D01*
X90311999Y-49192000D01*
X91552001Y-49192000D01*
X91576505Y-49193204D01*
X91576505Y-49193204D01*
G37*
D16*
X90932000Y-50292000D03*
D12*
G36*
X78241505Y-38271204D02*
G01*
X78265773Y-38274804D01*
X78289572Y-38280765D01*
X78312671Y-38289030D01*
X78334850Y-38299520D01*
X78355893Y-38312132D01*
X78375599Y-38326747D01*
X78393777Y-38343223D01*
X78410253Y-38361401D01*
X78424868Y-38381107D01*
X78437480Y-38402150D01*
X78447970Y-38424329D01*
X78456235Y-38447428D01*
X78462196Y-38471227D01*
X78465796Y-38495495D01*
X78467000Y-38519999D01*
X78467000Y-40220001D01*
X78465796Y-40244505D01*
X78462196Y-40268773D01*
X78456235Y-40292572D01*
X78447970Y-40315671D01*
X78437480Y-40337850D01*
X78424868Y-40358893D01*
X78410253Y-40378599D01*
X78393777Y-40396777D01*
X78375599Y-40413253D01*
X78355893Y-40427868D01*
X78334850Y-40440480D01*
X78312671Y-40450970D01*
X78289572Y-40459235D01*
X78265773Y-40465196D01*
X78241505Y-40468796D01*
X78217001Y-40470000D01*
X76976999Y-40470000D01*
X76952495Y-40468796D01*
X76928227Y-40465196D01*
X76904428Y-40459235D01*
X76881329Y-40450970D01*
X76859150Y-40440480D01*
X76838107Y-40427868D01*
X76818401Y-40413253D01*
X76800223Y-40396777D01*
X76783747Y-40378599D01*
X76769132Y-40358893D01*
X76756520Y-40337850D01*
X76746030Y-40315671D01*
X76737765Y-40292572D01*
X76731804Y-40268773D01*
X76728204Y-40244505D01*
X76727000Y-40220001D01*
X76727000Y-38519999D01*
X76728204Y-38495495D01*
X76731804Y-38471227D01*
X76737765Y-38447428D01*
X76746030Y-38424329D01*
X76756520Y-38402150D01*
X76769132Y-38381107D01*
X76783747Y-38361401D01*
X76800223Y-38343223D01*
X76818401Y-38326747D01*
X76838107Y-38312132D01*
X76859150Y-38299520D01*
X76881329Y-38289030D01*
X76904428Y-38280765D01*
X76928227Y-38274804D01*
X76952495Y-38271204D01*
X76976999Y-38270000D01*
X78217001Y-38270000D01*
X78241505Y-38271204D01*
X78241505Y-38271204D01*
G37*
D16*
X77597000Y-39370000D03*
D15*
X80137000Y-39370000D03*
X82677000Y-39370000D03*
X85217000Y-39370000D03*
D17*
X48768000Y-59055000D03*
D18*
X48768000Y-61595000D03*
X51308000Y-59055000D03*
X51308000Y-61595000D03*
X53848000Y-59055000D03*
X53848000Y-61595000D03*
X56388000Y-59055000D03*
X56388000Y-61595000D03*
X58928000Y-59055000D03*
X58928000Y-61595000D03*
X61468000Y-59055000D03*
X61468000Y-61595000D03*
X64008000Y-59055000D03*
X64008000Y-61595000D03*
X66548000Y-59055000D03*
X66548000Y-61595000D03*
X69088000Y-59055000D03*
X69088000Y-61595000D03*
X71628000Y-59055000D03*
X71628000Y-61595000D03*
X74168000Y-59055000D03*
X74168000Y-61595000D03*
X76708000Y-59055000D03*
X76708000Y-61595000D03*
X79248000Y-59055000D03*
X79248000Y-61595000D03*
X81788000Y-59055000D03*
X81788000Y-61595000D03*
X84328000Y-59055000D03*
X84328000Y-61595000D03*
X86868000Y-59055000D03*
X86868000Y-61595000D03*
X89408000Y-59055000D03*
X89408000Y-61595000D03*
X91948000Y-59055000D03*
X91948000Y-61595000D03*
X94488000Y-59055000D03*
X94488000Y-61595000D03*
X97028000Y-59055000D03*
X97028000Y-61595000D03*
D17*
X59309000Y-37846000D03*
D18*
X59309000Y-40386000D03*
D12*
G36*
X68087504Y-53736204D02*
G01*
X68111773Y-53739804D01*
X68135571Y-53745765D01*
X68158671Y-53754030D01*
X68180849Y-53764520D01*
X68201893Y-53777133D01*
X68221598Y-53791747D01*
X68239777Y-53808223D01*
X68256253Y-53826402D01*
X68270867Y-53846107D01*
X68283480Y-53867151D01*
X68293970Y-53889329D01*
X68302235Y-53912429D01*
X68308196Y-53936227D01*
X68311796Y-53960496D01*
X68313000Y-53985000D01*
X68313000Y-55235000D01*
X68311796Y-55259504D01*
X68308196Y-55283773D01*
X68302235Y-55307571D01*
X68293970Y-55330671D01*
X68283480Y-55352849D01*
X68270867Y-55373893D01*
X68256253Y-55393598D01*
X68239777Y-55411777D01*
X68221598Y-55428253D01*
X68201893Y-55442867D01*
X68180849Y-55455480D01*
X68158671Y-55465970D01*
X68135571Y-55474235D01*
X68111773Y-55480196D01*
X68087504Y-55483796D01*
X68063000Y-55485000D01*
X67313000Y-55485000D01*
X67288496Y-55483796D01*
X67264227Y-55480196D01*
X67240429Y-55474235D01*
X67217329Y-55465970D01*
X67195151Y-55455480D01*
X67174107Y-55442867D01*
X67154402Y-55428253D01*
X67136223Y-55411777D01*
X67119747Y-55393598D01*
X67105133Y-55373893D01*
X67092520Y-55352849D01*
X67082030Y-55330671D01*
X67073765Y-55307571D01*
X67067804Y-55283773D01*
X67064204Y-55259504D01*
X67063000Y-55235000D01*
X67063000Y-53985000D01*
X67064204Y-53960496D01*
X67067804Y-53936227D01*
X67073765Y-53912429D01*
X67082030Y-53889329D01*
X67092520Y-53867151D01*
X67105133Y-53846107D01*
X67119747Y-53826402D01*
X67136223Y-53808223D01*
X67154402Y-53791747D01*
X67174107Y-53777133D01*
X67195151Y-53764520D01*
X67217329Y-53754030D01*
X67240429Y-53745765D01*
X67264227Y-53739804D01*
X67288496Y-53736204D01*
X67313000Y-53735000D01*
X68063000Y-53735000D01*
X68087504Y-53736204D01*
X68087504Y-53736204D01*
G37*
D13*
X67688000Y-54610000D03*
D12*
G36*
X70887504Y-53736204D02*
G01*
X70911773Y-53739804D01*
X70935571Y-53745765D01*
X70958671Y-53754030D01*
X70980849Y-53764520D01*
X71001893Y-53777133D01*
X71021598Y-53791747D01*
X71039777Y-53808223D01*
X71056253Y-53826402D01*
X71070867Y-53846107D01*
X71083480Y-53867151D01*
X71093970Y-53889329D01*
X71102235Y-53912429D01*
X71108196Y-53936227D01*
X71111796Y-53960496D01*
X71113000Y-53985000D01*
X71113000Y-55235000D01*
X71111796Y-55259504D01*
X71108196Y-55283773D01*
X71102235Y-55307571D01*
X71093970Y-55330671D01*
X71083480Y-55352849D01*
X71070867Y-55373893D01*
X71056253Y-55393598D01*
X71039777Y-55411777D01*
X71021598Y-55428253D01*
X71001893Y-55442867D01*
X70980849Y-55455480D01*
X70958671Y-55465970D01*
X70935571Y-55474235D01*
X70911773Y-55480196D01*
X70887504Y-55483796D01*
X70863000Y-55485000D01*
X70113000Y-55485000D01*
X70088496Y-55483796D01*
X70064227Y-55480196D01*
X70040429Y-55474235D01*
X70017329Y-55465970D01*
X69995151Y-55455480D01*
X69974107Y-55442867D01*
X69954402Y-55428253D01*
X69936223Y-55411777D01*
X69919747Y-55393598D01*
X69905133Y-55373893D01*
X69892520Y-55352849D01*
X69882030Y-55330671D01*
X69873765Y-55307571D01*
X69867804Y-55283773D01*
X69864204Y-55259504D01*
X69863000Y-55235000D01*
X69863000Y-53985000D01*
X69864204Y-53960496D01*
X69867804Y-53936227D01*
X69873765Y-53912429D01*
X69882030Y-53889329D01*
X69892520Y-53867151D01*
X69905133Y-53846107D01*
X69919747Y-53826402D01*
X69936223Y-53808223D01*
X69954402Y-53791747D01*
X69974107Y-53777133D01*
X69995151Y-53764520D01*
X70017329Y-53754030D01*
X70040429Y-53745765D01*
X70064227Y-53739804D01*
X70088496Y-53736204D01*
X70113000Y-53735000D01*
X70863000Y-53735000D01*
X70887504Y-53736204D01*
X70887504Y-53736204D01*
G37*
D13*
X70488000Y-54610000D03*
D12*
G36*
X64022504Y-37349204D02*
G01*
X64046773Y-37352804D01*
X64070571Y-37358765D01*
X64093671Y-37367030D01*
X64115849Y-37377520D01*
X64136893Y-37390133D01*
X64156598Y-37404747D01*
X64174777Y-37421223D01*
X64191253Y-37439402D01*
X64205867Y-37459107D01*
X64218480Y-37480151D01*
X64228970Y-37502329D01*
X64237235Y-37525429D01*
X64243196Y-37549227D01*
X64246796Y-37573496D01*
X64248000Y-37598000D01*
X64248000Y-38348000D01*
X64246796Y-38372504D01*
X64243196Y-38396773D01*
X64237235Y-38420571D01*
X64228970Y-38443671D01*
X64218480Y-38465849D01*
X64205867Y-38486893D01*
X64191253Y-38506598D01*
X64174777Y-38524777D01*
X64156598Y-38541253D01*
X64136893Y-38555867D01*
X64115849Y-38568480D01*
X64093671Y-38578970D01*
X64070571Y-38587235D01*
X64046773Y-38593196D01*
X64022504Y-38596796D01*
X63998000Y-38598000D01*
X62748000Y-38598000D01*
X62723496Y-38596796D01*
X62699227Y-38593196D01*
X62675429Y-38587235D01*
X62652329Y-38578970D01*
X62630151Y-38568480D01*
X62609107Y-38555867D01*
X62589402Y-38541253D01*
X62571223Y-38524777D01*
X62554747Y-38506598D01*
X62540133Y-38486893D01*
X62527520Y-38465849D01*
X62517030Y-38443671D01*
X62508765Y-38420571D01*
X62502804Y-38396773D01*
X62499204Y-38372504D01*
X62498000Y-38348000D01*
X62498000Y-37598000D01*
X62499204Y-37573496D01*
X62502804Y-37549227D01*
X62508765Y-37525429D01*
X62517030Y-37502329D01*
X62527520Y-37480151D01*
X62540133Y-37459107D01*
X62554747Y-37439402D01*
X62571223Y-37421223D01*
X62589402Y-37404747D01*
X62609107Y-37390133D01*
X62630151Y-37377520D01*
X62652329Y-37367030D01*
X62675429Y-37358765D01*
X62699227Y-37352804D01*
X62723496Y-37349204D01*
X62748000Y-37348000D01*
X63998000Y-37348000D01*
X64022504Y-37349204D01*
X64022504Y-37349204D01*
G37*
D13*
X63373000Y-37973000D03*
D12*
G36*
X64022504Y-40149204D02*
G01*
X64046773Y-40152804D01*
X64070571Y-40158765D01*
X64093671Y-40167030D01*
X64115849Y-40177520D01*
X64136893Y-40190133D01*
X64156598Y-40204747D01*
X64174777Y-40221223D01*
X64191253Y-40239402D01*
X64205867Y-40259107D01*
X64218480Y-40280151D01*
X64228970Y-40302329D01*
X64237235Y-40325429D01*
X64243196Y-40349227D01*
X64246796Y-40373496D01*
X64248000Y-40398000D01*
X64248000Y-41148000D01*
X64246796Y-41172504D01*
X64243196Y-41196773D01*
X64237235Y-41220571D01*
X64228970Y-41243671D01*
X64218480Y-41265849D01*
X64205867Y-41286893D01*
X64191253Y-41306598D01*
X64174777Y-41324777D01*
X64156598Y-41341253D01*
X64136893Y-41355867D01*
X64115849Y-41368480D01*
X64093671Y-41378970D01*
X64070571Y-41387235D01*
X64046773Y-41393196D01*
X64022504Y-41396796D01*
X63998000Y-41398000D01*
X62748000Y-41398000D01*
X62723496Y-41396796D01*
X62699227Y-41393196D01*
X62675429Y-41387235D01*
X62652329Y-41378970D01*
X62630151Y-41368480D01*
X62609107Y-41355867D01*
X62589402Y-41341253D01*
X62571223Y-41324777D01*
X62554747Y-41306598D01*
X62540133Y-41286893D01*
X62527520Y-41265849D01*
X62517030Y-41243671D01*
X62508765Y-41220571D01*
X62502804Y-41196773D01*
X62499204Y-41172504D01*
X62498000Y-41148000D01*
X62498000Y-40398000D01*
X62499204Y-40373496D01*
X62502804Y-40349227D01*
X62508765Y-40325429D01*
X62517030Y-40302329D01*
X62527520Y-40280151D01*
X62540133Y-40259107D01*
X62554747Y-40239402D01*
X62571223Y-40221223D01*
X62589402Y-40204747D01*
X62609107Y-40190133D01*
X62630151Y-40177520D01*
X62652329Y-40167030D01*
X62675429Y-40158765D01*
X62699227Y-40152804D01*
X62723496Y-40149204D01*
X62748000Y-40148000D01*
X63998000Y-40148000D01*
X64022504Y-40149204D01*
X64022504Y-40149204D01*
G37*
D13*
X63373000Y-40773000D03*
D12*
G36*
X74817504Y-40016204D02*
G01*
X74841773Y-40019804D01*
X74865571Y-40025765D01*
X74888671Y-40034030D01*
X74910849Y-40044520D01*
X74931893Y-40057133D01*
X74951598Y-40071747D01*
X74969777Y-40088223D01*
X74986253Y-40106402D01*
X75000867Y-40126107D01*
X75013480Y-40147151D01*
X75023970Y-40169329D01*
X75032235Y-40192429D01*
X75038196Y-40216227D01*
X75041796Y-40240496D01*
X75043000Y-40265000D01*
X75043000Y-41015000D01*
X75041796Y-41039504D01*
X75038196Y-41063773D01*
X75032235Y-41087571D01*
X75023970Y-41110671D01*
X75013480Y-41132849D01*
X75000867Y-41153893D01*
X74986253Y-41173598D01*
X74969777Y-41191777D01*
X74951598Y-41208253D01*
X74931893Y-41222867D01*
X74910849Y-41235480D01*
X74888671Y-41245970D01*
X74865571Y-41254235D01*
X74841773Y-41260196D01*
X74817504Y-41263796D01*
X74793000Y-41265000D01*
X73543000Y-41265000D01*
X73518496Y-41263796D01*
X73494227Y-41260196D01*
X73470429Y-41254235D01*
X73447329Y-41245970D01*
X73425151Y-41235480D01*
X73404107Y-41222867D01*
X73384402Y-41208253D01*
X73366223Y-41191777D01*
X73349747Y-41173598D01*
X73335133Y-41153893D01*
X73322520Y-41132849D01*
X73312030Y-41110671D01*
X73303765Y-41087571D01*
X73297804Y-41063773D01*
X73294204Y-41039504D01*
X73293000Y-41015000D01*
X73293000Y-40265000D01*
X73294204Y-40240496D01*
X73297804Y-40216227D01*
X73303765Y-40192429D01*
X73312030Y-40169329D01*
X73322520Y-40147151D01*
X73335133Y-40126107D01*
X73349747Y-40106402D01*
X73366223Y-40088223D01*
X73384402Y-40071747D01*
X73404107Y-40057133D01*
X73425151Y-40044520D01*
X73447329Y-40034030D01*
X73470429Y-40025765D01*
X73494227Y-40019804D01*
X73518496Y-40016204D01*
X73543000Y-40015000D01*
X74793000Y-40015000D01*
X74817504Y-40016204D01*
X74817504Y-40016204D01*
G37*
D13*
X74168000Y-40640000D03*
D12*
G36*
X74817504Y-37216204D02*
G01*
X74841773Y-37219804D01*
X74865571Y-37225765D01*
X74888671Y-37234030D01*
X74910849Y-37244520D01*
X74931893Y-37257133D01*
X74951598Y-37271747D01*
X74969777Y-37288223D01*
X74986253Y-37306402D01*
X75000867Y-37326107D01*
X75013480Y-37347151D01*
X75023970Y-37369329D01*
X75032235Y-37392429D01*
X75038196Y-37416227D01*
X75041796Y-37440496D01*
X75043000Y-37465000D01*
X75043000Y-38215000D01*
X75041796Y-38239504D01*
X75038196Y-38263773D01*
X75032235Y-38287571D01*
X75023970Y-38310671D01*
X75013480Y-38332849D01*
X75000867Y-38353893D01*
X74986253Y-38373598D01*
X74969777Y-38391777D01*
X74951598Y-38408253D01*
X74931893Y-38422867D01*
X74910849Y-38435480D01*
X74888671Y-38445970D01*
X74865571Y-38454235D01*
X74841773Y-38460196D01*
X74817504Y-38463796D01*
X74793000Y-38465000D01*
X73543000Y-38465000D01*
X73518496Y-38463796D01*
X73494227Y-38460196D01*
X73470429Y-38454235D01*
X73447329Y-38445970D01*
X73425151Y-38435480D01*
X73404107Y-38422867D01*
X73384402Y-38408253D01*
X73366223Y-38391777D01*
X73349747Y-38373598D01*
X73335133Y-38353893D01*
X73322520Y-38332849D01*
X73312030Y-38310671D01*
X73303765Y-38287571D01*
X73297804Y-38263773D01*
X73294204Y-38239504D01*
X73293000Y-38215000D01*
X73293000Y-37465000D01*
X73294204Y-37440496D01*
X73297804Y-37416227D01*
X73303765Y-37392429D01*
X73312030Y-37369329D01*
X73322520Y-37347151D01*
X73335133Y-37326107D01*
X73349747Y-37306402D01*
X73366223Y-37288223D01*
X73384402Y-37271747D01*
X73404107Y-37257133D01*
X73425151Y-37244520D01*
X73447329Y-37234030D01*
X73470429Y-37225765D01*
X73494227Y-37219804D01*
X73518496Y-37216204D01*
X73543000Y-37215000D01*
X74793000Y-37215000D01*
X74817504Y-37216204D01*
X74817504Y-37216204D01*
G37*
D13*
X74168000Y-37840000D03*
D19*
X63373000Y-52070000D03*
D20*
X78613000Y-44450000D03*
X65913000Y-52070000D03*
X76073000Y-44450000D03*
X68453000Y-52070000D03*
X73533000Y-44450000D03*
X70993000Y-52070000D03*
X70993000Y-44450000D03*
X73533000Y-52070000D03*
X68453000Y-44450000D03*
X76073000Y-52070000D03*
X65913000Y-44450000D03*
X78613000Y-52070000D03*
X63373000Y-44450000D03*
D18*
X70993000Y-41068001D03*
D17*
X70993000Y-38528001D03*
X66800001Y-38528001D03*
D18*
X66800001Y-41068001D03*
D21*
X51181000Y-35052000D03*
X56261000Y-36322000D03*
X56261000Y-36322000D03*
X78841600Y-46482000D03*
X76708000Y-46888400D03*
X49784000Y-55753000D03*
X49174000Y-42520000D03*
X59817000Y-45593000D03*
X85217000Y-56007000D03*
D22*
X63373000Y-49403000D02*
X63373000Y-52070000D01*
X70863000Y-44580000D02*
X70993000Y-44450000D01*
X70863000Y-47117000D02*
X70863000Y-44580000D01*
X63373000Y-54102000D02*
X63373000Y-52070000D01*
X63881000Y-54610000D02*
X63373000Y-54102000D01*
X70138000Y-47117000D02*
X70863000Y-47117000D01*
X63373000Y-48387000D02*
X64135000Y-47625000D01*
X69630000Y-47625000D02*
X70138000Y-47117000D01*
X64135000Y-47625000D02*
X69630000Y-47625000D01*
X63373000Y-49403000D02*
X63373000Y-48387000D01*
X51175000Y-35601000D02*
X51181000Y-35595000D01*
X51175000Y-36576000D02*
X51175000Y-35601000D01*
X51181000Y-35595000D02*
X51181000Y-35052000D01*
X61728000Y-40773000D02*
X63373000Y-40773000D01*
X61468000Y-40513000D02*
X61728000Y-40773000D01*
X61468000Y-36068000D02*
X61468000Y-40513000D01*
X51181000Y-35052000D02*
X60452000Y-35052000D01*
X60452000Y-35052000D02*
X61468000Y-36068000D01*
X74168000Y-42037000D02*
X74168000Y-40640000D01*
X71628000Y-42545000D02*
X73660000Y-42545000D01*
X73660000Y-42545000D02*
X74168000Y-42037000D01*
X70993000Y-44450000D02*
X70993000Y-43180000D01*
X70993000Y-43180000D02*
X71628000Y-42545000D01*
X64389000Y-54610000D02*
X63881000Y-54610000D01*
X67688000Y-54610000D02*
X64389000Y-54610000D01*
X47244000Y-35433000D02*
X47625000Y-35052000D01*
X64389000Y-54610000D02*
X48387000Y-54610000D01*
X47625000Y-35052000D02*
X51181000Y-35052000D01*
X47244000Y-53467000D02*
X47244000Y-35433000D01*
X48387000Y-54610000D02*
X47244000Y-53467000D01*
X53975000Y-39249000D02*
X53854000Y-39370000D01*
X53975000Y-36576000D02*
X53975000Y-39249000D01*
X53848000Y-39376000D02*
X53854000Y-39370000D01*
X53848000Y-42164000D02*
X53848000Y-39376000D01*
X73663000Y-48765000D02*
X73663000Y-47117000D01*
X66173000Y-49403000D02*
X73025000Y-49403000D01*
X73025000Y-49403000D02*
X73663000Y-48765000D01*
X53975000Y-36068000D02*
X54040990Y-36002010D01*
X53975000Y-36576000D02*
X53975000Y-36068000D01*
X54360980Y-36322000D02*
X56261000Y-36322000D01*
X54040990Y-36002010D02*
X54360980Y-36322000D01*
X51048000Y-39376000D02*
X51054000Y-39370000D01*
X51048000Y-42164000D02*
X51048000Y-39376000D01*
X50692000Y-42520000D02*
X51048000Y-42164000D01*
X49174000Y-42520000D02*
X50692000Y-42520000D01*
X59309000Y-40386000D02*
X59309000Y-41588081D01*
X51743710Y-42859710D02*
X51048000Y-42164000D01*
X51943000Y-43942000D02*
X51743710Y-43742710D01*
X51743710Y-43742710D02*
X51743710Y-42859710D01*
X58928000Y-43942000D02*
X51943000Y-43942000D01*
X59309000Y-43561000D02*
X58928000Y-43942000D01*
X68834000Y-36449000D02*
X69596000Y-35687000D01*
X69596000Y-35687000D02*
X84201000Y-35687000D01*
X85217000Y-36703000D02*
X85217000Y-39370000D01*
X84201000Y-35687000D02*
X85217000Y-36703000D01*
X68834000Y-36449000D02*
X68834000Y-42164000D01*
X68834000Y-42164000D02*
X68072000Y-42926000D01*
X60325000Y-42926000D02*
X59309000Y-41910000D01*
X68072000Y-42926000D02*
X60325000Y-42926000D01*
X59309000Y-40386000D02*
X59309000Y-41910000D01*
X59309000Y-41910000D02*
X59309000Y-43561000D01*
X47117000Y-56374200D02*
X47408000Y-56083200D01*
X47117000Y-60452000D02*
X47117000Y-56374200D01*
X47408000Y-56083200D02*
X48133000Y-56083200D01*
X48260000Y-61595000D02*
X47117000Y-60452000D01*
X48768000Y-61595000D02*
X48260000Y-61595000D01*
X48768000Y-61595000D02*
X51308000Y-61595000D01*
X53537000Y-47917000D02*
X52997000Y-47917000D01*
X52997000Y-47917000D02*
X52197000Y-47117000D01*
X52197000Y-47117000D02*
X52197000Y-46228000D01*
X52197000Y-46228000D02*
X52832000Y-45593000D01*
X52832000Y-45593000D02*
X59817000Y-45593000D01*
X65913000Y-45581370D02*
X65913000Y-44450000D01*
X61468000Y-46355000D02*
X65139370Y-46355000D01*
X65139370Y-46355000D02*
X65913000Y-45581370D01*
X54737000Y-48717000D02*
X59106000Y-48717000D01*
X59106000Y-48717000D02*
X61468000Y-46355000D01*
X73533000Y-54483000D02*
X73533000Y-52070000D01*
X76200000Y-52197000D02*
X76073000Y-52070000D01*
X76200000Y-54483000D02*
X76200000Y-52197000D01*
X85217000Y-56007000D02*
X85852000Y-55372000D01*
X85852000Y-55372000D02*
X85852000Y-50292000D01*
X79883000Y-42545000D02*
X80137000Y-42291000D01*
X73533000Y-44450000D02*
X75438000Y-42545000D01*
X75438000Y-42545000D02*
X79883000Y-42545000D01*
X80137000Y-41402000D02*
X80137000Y-39370000D01*
X80137000Y-42291000D02*
X80137000Y-41402000D01*
X53975000Y-56388000D02*
X53848000Y-56515000D01*
X81153000Y-54229000D02*
X78994000Y-56388000D01*
X53848000Y-56515000D02*
X53848000Y-59055000D01*
X80137000Y-42291000D02*
X81153000Y-43307000D01*
X78994000Y-56388000D02*
X53975000Y-56388000D01*
X81153000Y-43307000D02*
X81153000Y-54229000D01*
X70488000Y-52575000D02*
X70993000Y-52070000D01*
X70488000Y-54610000D02*
X70488000Y-52575000D01*
X73479999Y-38528001D02*
X74168000Y-37840000D01*
X70993000Y-38528001D02*
X73479999Y-38528001D01*
X66800001Y-38528001D02*
X66341001Y-38528001D01*
X65786000Y-37973000D02*
X63373000Y-37973000D01*
X66341001Y-38528001D02*
X65786000Y-37973000D01*
D23*
G36*
X98527000Y-34690381D02*
G01*
X98527001Y-62591618D01*
X97516620Y-63602000D01*
X48152381Y-63602000D01*
X47142000Y-62591620D01*
X47142000Y-61905355D01*
X47383619Y-62146974D01*
X47389401Y-62166034D01*
X47527294Y-62424014D01*
X47712866Y-62650134D01*
X47938986Y-62835706D01*
X48196966Y-62973599D01*
X48476889Y-63058513D01*
X48695050Y-63080000D01*
X48840950Y-63080000D01*
X49059111Y-63058513D01*
X49339034Y-62973599D01*
X49597014Y-62835706D01*
X49823134Y-62650134D01*
X49860175Y-62605000D01*
X50215825Y-62605000D01*
X50252866Y-62650134D01*
X50478986Y-62835706D01*
X50736966Y-62973599D01*
X51016889Y-63058513D01*
X51235050Y-63080000D01*
X51380950Y-63080000D01*
X51599111Y-63058513D01*
X51879034Y-62973599D01*
X52137014Y-62835706D01*
X52363134Y-62650134D01*
X52548706Y-62424014D01*
X52583201Y-62359477D01*
X52652822Y-62476355D01*
X52847731Y-62692588D01*
X53081080Y-62866641D01*
X53343901Y-62991825D01*
X53491110Y-63036476D01*
X53721000Y-62915155D01*
X53721000Y-61722000D01*
X53701000Y-61722000D01*
X53701000Y-61468000D01*
X53721000Y-61468000D01*
X53721000Y-61448000D01*
X53975000Y-61448000D01*
X53975000Y-61468000D01*
X53995000Y-61468000D01*
X53995000Y-61722000D01*
X53975000Y-61722000D01*
X53975000Y-62915155D01*
X54204890Y-63036476D01*
X54352099Y-62991825D01*
X54614920Y-62866641D01*
X54848269Y-62692588D01*
X55043178Y-62476355D01*
X55112799Y-62359477D01*
X55147294Y-62424014D01*
X55332866Y-62650134D01*
X55558986Y-62835706D01*
X55816966Y-62973599D01*
X56096889Y-63058513D01*
X56315050Y-63080000D01*
X56460950Y-63080000D01*
X56679111Y-63058513D01*
X56959034Y-62973599D01*
X57217014Y-62835706D01*
X57443134Y-62650134D01*
X57628706Y-62424014D01*
X57658000Y-62369209D01*
X57687294Y-62424014D01*
X57872866Y-62650134D01*
X58098986Y-62835706D01*
X58356966Y-62973599D01*
X58636889Y-63058513D01*
X58855050Y-63080000D01*
X59000950Y-63080000D01*
X59219111Y-63058513D01*
X59499034Y-62973599D01*
X59757014Y-62835706D01*
X59983134Y-62650134D01*
X60168706Y-62424014D01*
X60198000Y-62369209D01*
X60227294Y-62424014D01*
X60412866Y-62650134D01*
X60638986Y-62835706D01*
X60896966Y-62973599D01*
X61176889Y-63058513D01*
X61395050Y-63080000D01*
X61540950Y-63080000D01*
X61759111Y-63058513D01*
X62039034Y-62973599D01*
X62297014Y-62835706D01*
X62523134Y-62650134D01*
X62708706Y-62424014D01*
X62743201Y-62359477D01*
X62812822Y-62476355D01*
X63007731Y-62692588D01*
X63241080Y-62866641D01*
X63503901Y-62991825D01*
X63651110Y-63036476D01*
X63881000Y-62915155D01*
X63881000Y-61722000D01*
X63861000Y-61722000D01*
X63861000Y-61468000D01*
X63881000Y-61468000D01*
X63881000Y-61448000D01*
X64135000Y-61448000D01*
X64135000Y-61468000D01*
X64155000Y-61468000D01*
X64155000Y-61722000D01*
X64135000Y-61722000D01*
X64135000Y-62915155D01*
X64364890Y-63036476D01*
X64512099Y-62991825D01*
X64774920Y-62866641D01*
X65008269Y-62692588D01*
X65203178Y-62476355D01*
X65272799Y-62359477D01*
X65307294Y-62424014D01*
X65492866Y-62650134D01*
X65718986Y-62835706D01*
X65976966Y-62973599D01*
X66256889Y-63058513D01*
X66475050Y-63080000D01*
X66620950Y-63080000D01*
X66839111Y-63058513D01*
X67119034Y-62973599D01*
X67377014Y-62835706D01*
X67603134Y-62650134D01*
X67788706Y-62424014D01*
X67818000Y-62369209D01*
X67847294Y-62424014D01*
X68032866Y-62650134D01*
X68258986Y-62835706D01*
X68516966Y-62973599D01*
X68796889Y-63058513D01*
X69015050Y-63080000D01*
X69160950Y-63080000D01*
X69379111Y-63058513D01*
X69659034Y-62973599D01*
X69917014Y-62835706D01*
X70143134Y-62650134D01*
X70328706Y-62424014D01*
X70363201Y-62359477D01*
X70432822Y-62476355D01*
X70627731Y-62692588D01*
X70861080Y-62866641D01*
X71123901Y-62991825D01*
X71271110Y-63036476D01*
X71501000Y-62915155D01*
X71501000Y-61722000D01*
X71481000Y-61722000D01*
X71481000Y-61468000D01*
X71501000Y-61468000D01*
X71501000Y-61448000D01*
X71755000Y-61448000D01*
X71755000Y-61468000D01*
X71775000Y-61468000D01*
X71775000Y-61722000D01*
X71755000Y-61722000D01*
X71755000Y-62915155D01*
X71984890Y-63036476D01*
X72132099Y-62991825D01*
X72394920Y-62866641D01*
X72628269Y-62692588D01*
X72823178Y-62476355D01*
X72892799Y-62359477D01*
X72927294Y-62424014D01*
X73112866Y-62650134D01*
X73338986Y-62835706D01*
X73596966Y-62973599D01*
X73876889Y-63058513D01*
X74095050Y-63080000D01*
X74240950Y-63080000D01*
X74459111Y-63058513D01*
X74739034Y-62973599D01*
X74997014Y-62835706D01*
X75223134Y-62650134D01*
X75408706Y-62424014D01*
X75438000Y-62369209D01*
X75467294Y-62424014D01*
X75652866Y-62650134D01*
X75878986Y-62835706D01*
X76136966Y-62973599D01*
X76416889Y-63058513D01*
X76635050Y-63080000D01*
X76780950Y-63080000D01*
X76999111Y-63058513D01*
X77279034Y-62973599D01*
X77537014Y-62835706D01*
X77763134Y-62650134D01*
X77948706Y-62424014D01*
X77978000Y-62369209D01*
X78007294Y-62424014D01*
X78192866Y-62650134D01*
X78418986Y-62835706D01*
X78676966Y-62973599D01*
X78956889Y-63058513D01*
X79175050Y-63080000D01*
X79320950Y-63080000D01*
X79539111Y-63058513D01*
X79819034Y-62973599D01*
X80077014Y-62835706D01*
X80303134Y-62650134D01*
X80488706Y-62424014D01*
X80518000Y-62369209D01*
X80547294Y-62424014D01*
X80732866Y-62650134D01*
X80958986Y-62835706D01*
X81216966Y-62973599D01*
X81496889Y-63058513D01*
X81715050Y-63080000D01*
X81860950Y-63080000D01*
X82079111Y-63058513D01*
X82359034Y-62973599D01*
X82617014Y-62835706D01*
X82843134Y-62650134D01*
X83028706Y-62424014D01*
X83063201Y-62359477D01*
X83132822Y-62476355D01*
X83327731Y-62692588D01*
X83561080Y-62866641D01*
X83823901Y-62991825D01*
X83971110Y-63036476D01*
X84201000Y-62915155D01*
X84201000Y-61722000D01*
X84181000Y-61722000D01*
X84181000Y-61468000D01*
X84201000Y-61468000D01*
X84201000Y-61448000D01*
X84455000Y-61448000D01*
X84455000Y-61468000D01*
X84475000Y-61468000D01*
X84475000Y-61722000D01*
X84455000Y-61722000D01*
X84455000Y-62915155D01*
X84684890Y-63036476D01*
X84832099Y-62991825D01*
X85094920Y-62866641D01*
X85328269Y-62692588D01*
X85523178Y-62476355D01*
X85592799Y-62359477D01*
X85627294Y-62424014D01*
X85812866Y-62650134D01*
X86038986Y-62835706D01*
X86296966Y-62973599D01*
X86576889Y-63058513D01*
X86795050Y-63080000D01*
X86940950Y-63080000D01*
X87159111Y-63058513D01*
X87439034Y-62973599D01*
X87697014Y-62835706D01*
X87923134Y-62650134D01*
X88108706Y-62424014D01*
X88143201Y-62359477D01*
X88212822Y-62476355D01*
X88407731Y-62692588D01*
X88641080Y-62866641D01*
X88903901Y-62991825D01*
X89051110Y-63036476D01*
X89281000Y-62915155D01*
X89281000Y-61722000D01*
X89261000Y-61722000D01*
X89261000Y-61468000D01*
X89281000Y-61468000D01*
X89281000Y-61448000D01*
X89535000Y-61448000D01*
X89535000Y-61468000D01*
X89555000Y-61468000D01*
X89555000Y-61722000D01*
X89535000Y-61722000D01*
X89535000Y-62915155D01*
X89764890Y-63036476D01*
X89912099Y-62991825D01*
X90174920Y-62866641D01*
X90408269Y-62692588D01*
X90603178Y-62476355D01*
X90672799Y-62359477D01*
X90707294Y-62424014D01*
X90892866Y-62650134D01*
X91118986Y-62835706D01*
X91376966Y-62973599D01*
X91656889Y-63058513D01*
X91875050Y-63080000D01*
X92020950Y-63080000D01*
X92239111Y-63058513D01*
X92519034Y-62973599D01*
X92777014Y-62835706D01*
X93003134Y-62650134D01*
X93188706Y-62424014D01*
X93218000Y-62369209D01*
X93247294Y-62424014D01*
X93432866Y-62650134D01*
X93658986Y-62835706D01*
X93916966Y-62973599D01*
X94196889Y-63058513D01*
X94415050Y-63080000D01*
X94560950Y-63080000D01*
X94779111Y-63058513D01*
X95059034Y-62973599D01*
X95317014Y-62835706D01*
X95543134Y-62650134D01*
X95728706Y-62424014D01*
X95758000Y-62369209D01*
X95787294Y-62424014D01*
X95972866Y-62650134D01*
X96198986Y-62835706D01*
X96456966Y-62973599D01*
X96736889Y-63058513D01*
X96955050Y-63080000D01*
X97100950Y-63080000D01*
X97319111Y-63058513D01*
X97599034Y-62973599D01*
X97857014Y-62835706D01*
X98083134Y-62650134D01*
X98268706Y-62424014D01*
X98406599Y-62166034D01*
X98491513Y-61886111D01*
X98520185Y-61595000D01*
X98491513Y-61303889D01*
X98406599Y-61023966D01*
X98268706Y-60765986D01*
X98083134Y-60539866D01*
X97857014Y-60354294D01*
X97799244Y-60323416D01*
X98028269Y-60152588D01*
X98223178Y-59936355D01*
X98372157Y-59686252D01*
X98469481Y-59411891D01*
X98348814Y-59182000D01*
X97155000Y-59182000D01*
X97155000Y-59202000D01*
X96901000Y-59202000D01*
X96901000Y-59182000D01*
X96881000Y-59182000D01*
X96881000Y-58928000D01*
X96901000Y-58928000D01*
X96901000Y-57734845D01*
X97155000Y-57734845D01*
X97155000Y-58928000D01*
X98348814Y-58928000D01*
X98469481Y-58698109D01*
X98372157Y-58423748D01*
X98223178Y-58173645D01*
X98028269Y-57957412D01*
X97794920Y-57783359D01*
X97532099Y-57658175D01*
X97384890Y-57613524D01*
X97155000Y-57734845D01*
X96901000Y-57734845D01*
X96671110Y-57613524D01*
X96523901Y-57658175D01*
X96261080Y-57783359D01*
X96027731Y-57957412D01*
X95832822Y-58173645D01*
X95763201Y-58290523D01*
X95728706Y-58225986D01*
X95543134Y-57999866D01*
X95317014Y-57814294D01*
X95059034Y-57676401D01*
X94779111Y-57591487D01*
X94560950Y-57570000D01*
X94415050Y-57570000D01*
X94196889Y-57591487D01*
X93916966Y-57676401D01*
X93658986Y-57814294D01*
X93432866Y-57999866D01*
X93247294Y-58225986D01*
X93218000Y-58280791D01*
X93188706Y-58225986D01*
X93003134Y-57999866D01*
X92777014Y-57814294D01*
X92519034Y-57676401D01*
X92239111Y-57591487D01*
X92020950Y-57570000D01*
X91875050Y-57570000D01*
X91656889Y-57591487D01*
X91376966Y-57676401D01*
X91118986Y-57814294D01*
X90892866Y-57999866D01*
X90707294Y-58225986D01*
X90678000Y-58280791D01*
X90648706Y-58225986D01*
X90463134Y-57999866D01*
X90237014Y-57814294D01*
X89979034Y-57676401D01*
X89699111Y-57591487D01*
X89480950Y-57570000D01*
X89335050Y-57570000D01*
X89116889Y-57591487D01*
X88836966Y-57676401D01*
X88578986Y-57814294D01*
X88352866Y-57999866D01*
X88167294Y-58225986D01*
X88138000Y-58280791D01*
X88108706Y-58225986D01*
X87923134Y-57999866D01*
X87697014Y-57814294D01*
X87439034Y-57676401D01*
X87159111Y-57591487D01*
X86940950Y-57570000D01*
X86795050Y-57570000D01*
X86576889Y-57591487D01*
X86296966Y-57676401D01*
X86038986Y-57814294D01*
X85812866Y-57999866D01*
X85627294Y-58225986D01*
X85598000Y-58280791D01*
X85568706Y-58225986D01*
X85383134Y-57999866D01*
X85157014Y-57814294D01*
X84899034Y-57676401D01*
X84619111Y-57591487D01*
X84400950Y-57570000D01*
X84255050Y-57570000D01*
X84036889Y-57591487D01*
X83756966Y-57676401D01*
X83498986Y-57814294D01*
X83272866Y-57999866D01*
X83087294Y-58225986D01*
X83058000Y-58280791D01*
X83028706Y-58225986D01*
X82843134Y-57999866D01*
X82617014Y-57814294D01*
X82359034Y-57676401D01*
X82079111Y-57591487D01*
X81860950Y-57570000D01*
X81715050Y-57570000D01*
X81496889Y-57591487D01*
X81216966Y-57676401D01*
X80958986Y-57814294D01*
X80732866Y-57999866D01*
X80547294Y-58225986D01*
X80512799Y-58290523D01*
X80443178Y-58173645D01*
X80248269Y-57957412D01*
X80014920Y-57783359D01*
X79752099Y-57658175D01*
X79604890Y-57613524D01*
X79375000Y-57734845D01*
X79375000Y-58928000D01*
X79395000Y-58928000D01*
X79395000Y-59182000D01*
X79375000Y-59182000D01*
X79375000Y-59202000D01*
X79121000Y-59202000D01*
X79121000Y-59182000D01*
X79101000Y-59182000D01*
X79101000Y-58928000D01*
X79121000Y-58928000D01*
X79121000Y-57734845D01*
X78891110Y-57613524D01*
X78743901Y-57658175D01*
X78481080Y-57783359D01*
X78247731Y-57957412D01*
X78052822Y-58173645D01*
X77983201Y-58290523D01*
X77948706Y-58225986D01*
X77763134Y-57999866D01*
X77537014Y-57814294D01*
X77279034Y-57676401D01*
X76999111Y-57591487D01*
X76780950Y-57570000D01*
X76635050Y-57570000D01*
X76416889Y-57591487D01*
X76136966Y-57676401D01*
X75878986Y-57814294D01*
X75652866Y-57999866D01*
X75467294Y-58225986D01*
X75438000Y-58280791D01*
X75408706Y-58225986D01*
X75223134Y-57999866D01*
X74997014Y-57814294D01*
X74739034Y-57676401D01*
X74459111Y-57591487D01*
X74240950Y-57570000D01*
X74095050Y-57570000D01*
X73876889Y-57591487D01*
X73596966Y-57676401D01*
X73338986Y-57814294D01*
X73112866Y-57999866D01*
X72927294Y-58225986D01*
X72898000Y-58280791D01*
X72868706Y-58225986D01*
X72683134Y-57999866D01*
X72457014Y-57814294D01*
X72199034Y-57676401D01*
X71919111Y-57591487D01*
X71700950Y-57570000D01*
X71555050Y-57570000D01*
X71336889Y-57591487D01*
X71056966Y-57676401D01*
X70798986Y-57814294D01*
X70572866Y-57999866D01*
X70387294Y-58225986D01*
X70358000Y-58280791D01*
X70328706Y-58225986D01*
X70143134Y-57999866D01*
X69917014Y-57814294D01*
X69659034Y-57676401D01*
X69379111Y-57591487D01*
X69160950Y-57570000D01*
X69015050Y-57570000D01*
X68796889Y-57591487D01*
X68516966Y-57676401D01*
X68258986Y-57814294D01*
X68032866Y-57999866D01*
X67847294Y-58225986D01*
X67818000Y-58280791D01*
X67788706Y-58225986D01*
X67603134Y-57999866D01*
X67377014Y-57814294D01*
X67119034Y-57676401D01*
X66839111Y-57591487D01*
X66620950Y-57570000D01*
X66475050Y-57570000D01*
X66256889Y-57591487D01*
X65976966Y-57676401D01*
X65718986Y-57814294D01*
X65492866Y-57999866D01*
X65307294Y-58225986D01*
X65278000Y-58280791D01*
X65248706Y-58225986D01*
X65063134Y-57999866D01*
X64837014Y-57814294D01*
X64579034Y-57676401D01*
X64299111Y-57591487D01*
X64080950Y-57570000D01*
X63935050Y-57570000D01*
X63716889Y-57591487D01*
X63436966Y-57676401D01*
X63178986Y-57814294D01*
X62952866Y-57999866D01*
X62767294Y-58225986D01*
X62738000Y-58280791D01*
X62708706Y-58225986D01*
X62523134Y-57999866D01*
X62297014Y-57814294D01*
X62039034Y-57676401D01*
X61759111Y-57591487D01*
X61540950Y-57570000D01*
X61395050Y-57570000D01*
X61176889Y-57591487D01*
X60896966Y-57676401D01*
X60638986Y-57814294D01*
X60412866Y-57999866D01*
X60227294Y-58225986D01*
X60192799Y-58290523D01*
X60123178Y-58173645D01*
X59928269Y-57957412D01*
X59694920Y-57783359D01*
X59432099Y-57658175D01*
X59284890Y-57613524D01*
X59055000Y-57734845D01*
X59055000Y-58928000D01*
X59075000Y-58928000D01*
X59075000Y-59182000D01*
X59055000Y-59182000D01*
X59055000Y-59202000D01*
X58801000Y-59202000D01*
X58801000Y-59182000D01*
X58781000Y-59182000D01*
X58781000Y-58928000D01*
X58801000Y-58928000D01*
X58801000Y-57734845D01*
X58571110Y-57613524D01*
X58423901Y-57658175D01*
X58161080Y-57783359D01*
X57927731Y-57957412D01*
X57732822Y-58173645D01*
X57663201Y-58290523D01*
X57628706Y-58225986D01*
X57443134Y-57999866D01*
X57217014Y-57814294D01*
X56959034Y-57676401D01*
X56679111Y-57591487D01*
X56460950Y-57570000D01*
X56315050Y-57570000D01*
X56096889Y-57591487D01*
X55816966Y-57676401D01*
X55558986Y-57814294D01*
X55332866Y-57999866D01*
X55147294Y-58225986D01*
X55118000Y-58280791D01*
X55088706Y-58225986D01*
X54903134Y-57999866D01*
X54858000Y-57962825D01*
X54858000Y-57398000D01*
X78944392Y-57398000D01*
X78994000Y-57402886D01*
X79191994Y-57383385D01*
X79272888Y-57358846D01*
X79382380Y-57325632D01*
X79557840Y-57231847D01*
X79711633Y-57105633D01*
X79743261Y-57067094D01*
X81832094Y-54978261D01*
X81870633Y-54946633D01*
X81996847Y-54792840D01*
X82090632Y-54617380D01*
X82148385Y-54426994D01*
X82163000Y-54278608D01*
X82163000Y-54278606D01*
X82167886Y-54229001D01*
X82163000Y-54179396D01*
X82163000Y-51494285D01*
X82242655Y-51591345D01*
X82471821Y-51779417D01*
X82733275Y-51919166D01*
X83016968Y-52005224D01*
X83312000Y-52034282D01*
X83607031Y-52005224D01*
X83890724Y-51919166D01*
X84152178Y-51779417D01*
X84381345Y-51591345D01*
X84569417Y-51362179D01*
X84582000Y-51338637D01*
X84594583Y-51362178D01*
X84782655Y-51591345D01*
X84842001Y-51640049D01*
X84842000Y-54953645D01*
X84663777Y-55131868D01*
X84557226Y-55203063D01*
X84413063Y-55347226D01*
X84299795Y-55516744D01*
X84221774Y-55705102D01*
X84182000Y-55905061D01*
X84182000Y-56108939D01*
X84221774Y-56308898D01*
X84299795Y-56497256D01*
X84413063Y-56666774D01*
X84557226Y-56810937D01*
X84726744Y-56924205D01*
X84915102Y-57002226D01*
X85115061Y-57042000D01*
X85318939Y-57042000D01*
X85518898Y-57002226D01*
X85707256Y-56924205D01*
X85876774Y-56810937D01*
X86020937Y-56666774D01*
X86092132Y-56560223D01*
X86531094Y-56121261D01*
X86569633Y-56089633D01*
X86695847Y-55935840D01*
X86789632Y-55760380D01*
X86809519Y-55694821D01*
X86847385Y-55569995D01*
X86866886Y-55372000D01*
X86862000Y-55322392D01*
X86862000Y-51640048D01*
X86921345Y-51591345D01*
X87109417Y-51362179D01*
X87122000Y-51338637D01*
X87134583Y-51362178D01*
X87322655Y-51591345D01*
X87551821Y-51779417D01*
X87813275Y-51919166D01*
X88096968Y-52005224D01*
X88392000Y-52034282D01*
X88687031Y-52005224D01*
X88970724Y-51919166D01*
X89232178Y-51779417D01*
X89459385Y-51592953D01*
X89472498Y-51636180D01*
X89531463Y-51746494D01*
X89610815Y-51843185D01*
X89707506Y-51922537D01*
X89817820Y-51981502D01*
X89937518Y-52017812D01*
X90062000Y-52030072D01*
X90646250Y-52027000D01*
X90805000Y-51868250D01*
X90805000Y-50419000D01*
X91059000Y-50419000D01*
X91059000Y-51868250D01*
X91217750Y-52027000D01*
X91802000Y-52030072D01*
X91926482Y-52017812D01*
X92046180Y-51981502D01*
X92156494Y-51922537D01*
X92253185Y-51843185D01*
X92332537Y-51746494D01*
X92391502Y-51636180D01*
X92427812Y-51516482D01*
X92440072Y-51392000D01*
X92437000Y-50577750D01*
X92278250Y-50419000D01*
X91059000Y-50419000D01*
X90805000Y-50419000D01*
X90785000Y-50419000D01*
X90785000Y-50165000D01*
X90805000Y-50165000D01*
X90805000Y-48715750D01*
X91059000Y-48715750D01*
X91059000Y-50165000D01*
X92278250Y-50165000D01*
X92437000Y-50006250D01*
X92440072Y-49192000D01*
X92427812Y-49067518D01*
X92391502Y-48947820D01*
X92332537Y-48837506D01*
X92253185Y-48740815D01*
X92156494Y-48661463D01*
X92046180Y-48602498D01*
X91926482Y-48566188D01*
X91802000Y-48553928D01*
X91217750Y-48557000D01*
X91059000Y-48715750D01*
X90805000Y-48715750D01*
X90646250Y-48557000D01*
X90062000Y-48553928D01*
X89937518Y-48566188D01*
X89817820Y-48602498D01*
X89707506Y-48661463D01*
X89610815Y-48740815D01*
X89531463Y-48837506D01*
X89472498Y-48947820D01*
X89459385Y-48991047D01*
X89232179Y-48804583D01*
X88970725Y-48664834D01*
X88687032Y-48578776D01*
X88392000Y-48549718D01*
X88096969Y-48578776D01*
X87813276Y-48664834D01*
X87551822Y-48804583D01*
X87322655Y-48992655D01*
X87134583Y-49221821D01*
X87122000Y-49245362D01*
X87109417Y-49221821D01*
X86921345Y-48992655D01*
X86692179Y-48804583D01*
X86430725Y-48664834D01*
X86147032Y-48578776D01*
X85852000Y-48549718D01*
X85556969Y-48578776D01*
X85273276Y-48664834D01*
X85011822Y-48804583D01*
X84782655Y-48992655D01*
X84594583Y-49221821D01*
X84582000Y-49245362D01*
X84569417Y-49221821D01*
X84381345Y-48992655D01*
X84152179Y-48804583D01*
X83890725Y-48664834D01*
X83607032Y-48578776D01*
X83312000Y-48549718D01*
X83016969Y-48578776D01*
X82733276Y-48664834D01*
X82471822Y-48804583D01*
X82242655Y-48992655D01*
X82163000Y-49089715D01*
X82163000Y-43356608D01*
X82167886Y-43307000D01*
X82148385Y-43109005D01*
X82090632Y-42918620D01*
X82033506Y-42811745D01*
X81996847Y-42743160D01*
X81870633Y-42589367D01*
X81832099Y-42557743D01*
X81147000Y-41872645D01*
X81147000Y-40718048D01*
X81206345Y-40669345D01*
X81394417Y-40440179D01*
X81407000Y-40416638D01*
X81419583Y-40440179D01*
X81607655Y-40669345D01*
X81836822Y-40857417D01*
X82098276Y-40997166D01*
X82381969Y-41083224D01*
X82677000Y-41112282D01*
X82972032Y-41083224D01*
X83255725Y-40997166D01*
X83517179Y-40857417D01*
X83746345Y-40669345D01*
X83934417Y-40440179D01*
X83947000Y-40416638D01*
X83959583Y-40440179D01*
X84147655Y-40669345D01*
X84376822Y-40857417D01*
X84638276Y-40997166D01*
X84921969Y-41083224D01*
X85217000Y-41112282D01*
X85512032Y-41083224D01*
X85795725Y-40997166D01*
X86057179Y-40857417D01*
X86286345Y-40669345D01*
X86474417Y-40440179D01*
X86614166Y-40178724D01*
X86700224Y-39895031D01*
X86722000Y-39673935D01*
X86722000Y-39066064D01*
X86700224Y-38844968D01*
X86614166Y-38561275D01*
X86474417Y-38299821D01*
X86286345Y-38070655D01*
X86227000Y-38021952D01*
X86227000Y-36752608D01*
X86231886Y-36703000D01*
X86212385Y-36505005D01*
X86154632Y-36314620D01*
X86120630Y-36251006D01*
X86060847Y-36139160D01*
X85934633Y-35985367D01*
X85896099Y-35953743D01*
X84950261Y-35007906D01*
X84918633Y-34969367D01*
X84764840Y-34843153D01*
X84589380Y-34749368D01*
X84398994Y-34691615D01*
X84250608Y-34677000D01*
X84201000Y-34672114D01*
X84151392Y-34677000D01*
X69645608Y-34677000D01*
X69596000Y-34672114D01*
X69398005Y-34691615D01*
X69319706Y-34715367D01*
X69207620Y-34749368D01*
X69032160Y-34843153D01*
X68878367Y-34969367D01*
X68846743Y-35007901D01*
X68154905Y-35699740D01*
X68116367Y-35731367D01*
X67990153Y-35885160D01*
X67918940Y-36018392D01*
X67896368Y-36060621D01*
X67838615Y-36251006D01*
X67819114Y-36449000D01*
X67824000Y-36498608D01*
X67824000Y-37067210D01*
X67774483Y-37052189D01*
X67650001Y-37039929D01*
X66182913Y-37039929D01*
X66174380Y-37035368D01*
X65983994Y-36977615D01*
X65835608Y-36963000D01*
X65786000Y-36958114D01*
X65736392Y-36963000D01*
X64617386Y-36963000D01*
X64491386Y-36859595D01*
X64337850Y-36777528D01*
X64171254Y-36726992D01*
X63998000Y-36709928D01*
X62748000Y-36709928D01*
X62574746Y-36726992D01*
X62478000Y-36756339D01*
X62478000Y-36117608D01*
X62482886Y-36068000D01*
X62463385Y-35870005D01*
X62405632Y-35679620D01*
X62369034Y-35611150D01*
X62311847Y-35504160D01*
X62185633Y-35350367D01*
X62147099Y-35318743D01*
X61201261Y-34372906D01*
X61169633Y-34334367D01*
X61015840Y-34208153D01*
X60840380Y-34114368D01*
X60649994Y-34056615D01*
X60501608Y-34042000D01*
X60452000Y-34037114D01*
X60402392Y-34042000D01*
X51408623Y-34042000D01*
X51282939Y-34017000D01*
X51079061Y-34017000D01*
X50953377Y-34042000D01*
X47790381Y-34042000D01*
X48152381Y-33680000D01*
X97516620Y-33680000D01*
X98527000Y-34690381D01*
X98527000Y-34690381D01*
G37*
X98527000Y-34690381D02*
X98527001Y-62591618D01*
X97516620Y-63602000D01*
X48152381Y-63602000D01*
X47142000Y-62591620D01*
X47142000Y-61905355D01*
X47383619Y-62146974D01*
X47389401Y-62166034D01*
X47527294Y-62424014D01*
X47712866Y-62650134D01*
X47938986Y-62835706D01*
X48196966Y-62973599D01*
X48476889Y-63058513D01*
X48695050Y-63080000D01*
X48840950Y-63080000D01*
X49059111Y-63058513D01*
X49339034Y-62973599D01*
X49597014Y-62835706D01*
X49823134Y-62650134D01*
X49860175Y-62605000D01*
X50215825Y-62605000D01*
X50252866Y-62650134D01*
X50478986Y-62835706D01*
X50736966Y-62973599D01*
X51016889Y-63058513D01*
X51235050Y-63080000D01*
X51380950Y-63080000D01*
X51599111Y-63058513D01*
X51879034Y-62973599D01*
X52137014Y-62835706D01*
X52363134Y-62650134D01*
X52548706Y-62424014D01*
X52583201Y-62359477D01*
X52652822Y-62476355D01*
X52847731Y-62692588D01*
X53081080Y-62866641D01*
X53343901Y-62991825D01*
X53491110Y-63036476D01*
X53721000Y-62915155D01*
X53721000Y-61722000D01*
X53701000Y-61722000D01*
X53701000Y-61468000D01*
X53721000Y-61468000D01*
X53721000Y-61448000D01*
X53975000Y-61448000D01*
X53975000Y-61468000D01*
X53995000Y-61468000D01*
X53995000Y-61722000D01*
X53975000Y-61722000D01*
X53975000Y-62915155D01*
X54204890Y-63036476D01*
X54352099Y-62991825D01*
X54614920Y-62866641D01*
X54848269Y-62692588D01*
X55043178Y-62476355D01*
X55112799Y-62359477D01*
X55147294Y-62424014D01*
X55332866Y-62650134D01*
X55558986Y-62835706D01*
X55816966Y-62973599D01*
X56096889Y-63058513D01*
X56315050Y-63080000D01*
X56460950Y-63080000D01*
X56679111Y-63058513D01*
X56959034Y-62973599D01*
X57217014Y-62835706D01*
X57443134Y-62650134D01*
X57628706Y-62424014D01*
X57658000Y-62369209D01*
X57687294Y-62424014D01*
X57872866Y-62650134D01*
X58098986Y-62835706D01*
X58356966Y-62973599D01*
X58636889Y-63058513D01*
X58855050Y-63080000D01*
X59000950Y-63080000D01*
X59219111Y-63058513D01*
X59499034Y-62973599D01*
X59757014Y-62835706D01*
X59983134Y-62650134D01*
X60168706Y-62424014D01*
X60198000Y-62369209D01*
X60227294Y-62424014D01*
X60412866Y-62650134D01*
X60638986Y-62835706D01*
X60896966Y-62973599D01*
X61176889Y-63058513D01*
X61395050Y-63080000D01*
X61540950Y-63080000D01*
X61759111Y-63058513D01*
X62039034Y-62973599D01*
X62297014Y-62835706D01*
X62523134Y-62650134D01*
X62708706Y-62424014D01*
X62743201Y-62359477D01*
X62812822Y-62476355D01*
X63007731Y-62692588D01*
X63241080Y-62866641D01*
X63503901Y-62991825D01*
X63651110Y-63036476D01*
X63881000Y-62915155D01*
X63881000Y-61722000D01*
X63861000Y-61722000D01*
X63861000Y-61468000D01*
X63881000Y-61468000D01*
X63881000Y-61448000D01*
X64135000Y-61448000D01*
X64135000Y-61468000D01*
X64155000Y-61468000D01*
X64155000Y-61722000D01*
X64135000Y-61722000D01*
X64135000Y-62915155D01*
X64364890Y-63036476D01*
X64512099Y-62991825D01*
X64774920Y-62866641D01*
X65008269Y-62692588D01*
X65203178Y-62476355D01*
X65272799Y-62359477D01*
X65307294Y-62424014D01*
X65492866Y-62650134D01*
X65718986Y-62835706D01*
X65976966Y-62973599D01*
X66256889Y-63058513D01*
X66475050Y-63080000D01*
X66620950Y-63080000D01*
X66839111Y-63058513D01*
X67119034Y-62973599D01*
X67377014Y-62835706D01*
X67603134Y-62650134D01*
X67788706Y-62424014D01*
X67818000Y-62369209D01*
X67847294Y-62424014D01*
X68032866Y-62650134D01*
X68258986Y-62835706D01*
X68516966Y-62973599D01*
X68796889Y-63058513D01*
X69015050Y-63080000D01*
X69160950Y-63080000D01*
X69379111Y-63058513D01*
X69659034Y-62973599D01*
X69917014Y-62835706D01*
X70143134Y-62650134D01*
X70328706Y-62424014D01*
X70363201Y-62359477D01*
X70432822Y-62476355D01*
X70627731Y-62692588D01*
X70861080Y-62866641D01*
X71123901Y-62991825D01*
X71271110Y-63036476D01*
X71501000Y-62915155D01*
X71501000Y-61722000D01*
X71481000Y-61722000D01*
X71481000Y-61468000D01*
X71501000Y-61468000D01*
X71501000Y-61448000D01*
X71755000Y-61448000D01*
X71755000Y-61468000D01*
X71775000Y-61468000D01*
X71775000Y-61722000D01*
X71755000Y-61722000D01*
X71755000Y-62915155D01*
X71984890Y-63036476D01*
X72132099Y-62991825D01*
X72394920Y-62866641D01*
X72628269Y-62692588D01*
X72823178Y-62476355D01*
X72892799Y-62359477D01*
X72927294Y-62424014D01*
X73112866Y-62650134D01*
X73338986Y-62835706D01*
X73596966Y-62973599D01*
X73876889Y-63058513D01*
X74095050Y-63080000D01*
X74240950Y-63080000D01*
X74459111Y-63058513D01*
X74739034Y-62973599D01*
X74997014Y-62835706D01*
X75223134Y-62650134D01*
X75408706Y-62424014D01*
X75438000Y-62369209D01*
X75467294Y-62424014D01*
X75652866Y-62650134D01*
X75878986Y-62835706D01*
X76136966Y-62973599D01*
X76416889Y-63058513D01*
X76635050Y-63080000D01*
X76780950Y-63080000D01*
X76999111Y-63058513D01*
X77279034Y-62973599D01*
X77537014Y-62835706D01*
X77763134Y-62650134D01*
X77948706Y-62424014D01*
X77978000Y-62369209D01*
X78007294Y-62424014D01*
X78192866Y-62650134D01*
X78418986Y-62835706D01*
X78676966Y-62973599D01*
X78956889Y-63058513D01*
X79175050Y-63080000D01*
X79320950Y-63080000D01*
X79539111Y-63058513D01*
X79819034Y-62973599D01*
X80077014Y-62835706D01*
X80303134Y-62650134D01*
X80488706Y-62424014D01*
X80518000Y-62369209D01*
X80547294Y-62424014D01*
X80732866Y-62650134D01*
X80958986Y-62835706D01*
X81216966Y-62973599D01*
X81496889Y-63058513D01*
X81715050Y-63080000D01*
X81860950Y-63080000D01*
X82079111Y-63058513D01*
X82359034Y-62973599D01*
X82617014Y-62835706D01*
X82843134Y-62650134D01*
X83028706Y-62424014D01*
X83063201Y-62359477D01*
X83132822Y-62476355D01*
X83327731Y-62692588D01*
X83561080Y-62866641D01*
X83823901Y-62991825D01*
X83971110Y-63036476D01*
X84201000Y-62915155D01*
X84201000Y-61722000D01*
X84181000Y-61722000D01*
X84181000Y-61468000D01*
X84201000Y-61468000D01*
X84201000Y-61448000D01*
X84455000Y-61448000D01*
X84455000Y-61468000D01*
X84475000Y-61468000D01*
X84475000Y-61722000D01*
X84455000Y-61722000D01*
X84455000Y-62915155D01*
X84684890Y-63036476D01*
X84832099Y-62991825D01*
X85094920Y-62866641D01*
X85328269Y-62692588D01*
X85523178Y-62476355D01*
X85592799Y-62359477D01*
X85627294Y-62424014D01*
X85812866Y-62650134D01*
X86038986Y-62835706D01*
X86296966Y-62973599D01*
X86576889Y-63058513D01*
X86795050Y-63080000D01*
X86940950Y-63080000D01*
X87159111Y-63058513D01*
X87439034Y-62973599D01*
X87697014Y-62835706D01*
X87923134Y-62650134D01*
X88108706Y-62424014D01*
X88143201Y-62359477D01*
X88212822Y-62476355D01*
X88407731Y-62692588D01*
X88641080Y-62866641D01*
X88903901Y-62991825D01*
X89051110Y-63036476D01*
X89281000Y-62915155D01*
X89281000Y-61722000D01*
X89261000Y-61722000D01*
X89261000Y-61468000D01*
X89281000Y-61468000D01*
X89281000Y-61448000D01*
X89535000Y-61448000D01*
X89535000Y-61468000D01*
X89555000Y-61468000D01*
X89555000Y-61722000D01*
X89535000Y-61722000D01*
X89535000Y-62915155D01*
X89764890Y-63036476D01*
X89912099Y-62991825D01*
X90174920Y-62866641D01*
X90408269Y-62692588D01*
X90603178Y-62476355D01*
X90672799Y-62359477D01*
X90707294Y-62424014D01*
X90892866Y-62650134D01*
X91118986Y-62835706D01*
X91376966Y-62973599D01*
X91656889Y-63058513D01*
X91875050Y-63080000D01*
X92020950Y-63080000D01*
X92239111Y-63058513D01*
X92519034Y-62973599D01*
X92777014Y-62835706D01*
X93003134Y-62650134D01*
X93188706Y-62424014D01*
X93218000Y-62369209D01*
X93247294Y-62424014D01*
X93432866Y-62650134D01*
X93658986Y-62835706D01*
X93916966Y-62973599D01*
X94196889Y-63058513D01*
X94415050Y-63080000D01*
X94560950Y-63080000D01*
X94779111Y-63058513D01*
X95059034Y-62973599D01*
X95317014Y-62835706D01*
X95543134Y-62650134D01*
X95728706Y-62424014D01*
X95758000Y-62369209D01*
X95787294Y-62424014D01*
X95972866Y-62650134D01*
X96198986Y-62835706D01*
X96456966Y-62973599D01*
X96736889Y-63058513D01*
X96955050Y-63080000D01*
X97100950Y-63080000D01*
X97319111Y-63058513D01*
X97599034Y-62973599D01*
X97857014Y-62835706D01*
X98083134Y-62650134D01*
X98268706Y-62424014D01*
X98406599Y-62166034D01*
X98491513Y-61886111D01*
X98520185Y-61595000D01*
X98491513Y-61303889D01*
X98406599Y-61023966D01*
X98268706Y-60765986D01*
X98083134Y-60539866D01*
X97857014Y-60354294D01*
X97799244Y-60323416D01*
X98028269Y-60152588D01*
X98223178Y-59936355D01*
X98372157Y-59686252D01*
X98469481Y-59411891D01*
X98348814Y-59182000D01*
X97155000Y-59182000D01*
X97155000Y-59202000D01*
X96901000Y-59202000D01*
X96901000Y-59182000D01*
X96881000Y-59182000D01*
X96881000Y-58928000D01*
X96901000Y-58928000D01*
X96901000Y-57734845D01*
X97155000Y-57734845D01*
X97155000Y-58928000D01*
X98348814Y-58928000D01*
X98469481Y-58698109D01*
X98372157Y-58423748D01*
X98223178Y-58173645D01*
X98028269Y-57957412D01*
X97794920Y-57783359D01*
X97532099Y-57658175D01*
X97384890Y-57613524D01*
X97155000Y-57734845D01*
X96901000Y-57734845D01*
X96671110Y-57613524D01*
X96523901Y-57658175D01*
X96261080Y-57783359D01*
X96027731Y-57957412D01*
X95832822Y-58173645D01*
X95763201Y-58290523D01*
X95728706Y-58225986D01*
X95543134Y-57999866D01*
X95317014Y-57814294D01*
X95059034Y-57676401D01*
X94779111Y-57591487D01*
X94560950Y-57570000D01*
X94415050Y-57570000D01*
X94196889Y-57591487D01*
X93916966Y-57676401D01*
X93658986Y-57814294D01*
X93432866Y-57999866D01*
X93247294Y-58225986D01*
X93218000Y-58280791D01*
X93188706Y-58225986D01*
X93003134Y-57999866D01*
X92777014Y-57814294D01*
X92519034Y-57676401D01*
X92239111Y-57591487D01*
X92020950Y-57570000D01*
X91875050Y-57570000D01*
X91656889Y-57591487D01*
X91376966Y-57676401D01*
X91118986Y-57814294D01*
X90892866Y-57999866D01*
X90707294Y-58225986D01*
X90678000Y-58280791D01*
X90648706Y-58225986D01*
X90463134Y-57999866D01*
X90237014Y-57814294D01*
X89979034Y-57676401D01*
X89699111Y-57591487D01*
X89480950Y-57570000D01*
X89335050Y-57570000D01*
X89116889Y-57591487D01*
X88836966Y-57676401D01*
X88578986Y-57814294D01*
X88352866Y-57999866D01*
X88167294Y-58225986D01*
X88138000Y-58280791D01*
X88108706Y-58225986D01*
X87923134Y-57999866D01*
X87697014Y-57814294D01*
X87439034Y-57676401D01*
X87159111Y-57591487D01*
X86940950Y-57570000D01*
X86795050Y-57570000D01*
X86576889Y-57591487D01*
X86296966Y-57676401D01*
X86038986Y-57814294D01*
X85812866Y-57999866D01*
X85627294Y-58225986D01*
X85598000Y-58280791D01*
X85568706Y-58225986D01*
X85383134Y-57999866D01*
X85157014Y-57814294D01*
X84899034Y-57676401D01*
X84619111Y-57591487D01*
X84400950Y-57570000D01*
X84255050Y-57570000D01*
X84036889Y-57591487D01*
X83756966Y-57676401D01*
X83498986Y-57814294D01*
X83272866Y-57999866D01*
X83087294Y-58225986D01*
X83058000Y-58280791D01*
X83028706Y-58225986D01*
X82843134Y-57999866D01*
X82617014Y-57814294D01*
X82359034Y-57676401D01*
X82079111Y-57591487D01*
X81860950Y-57570000D01*
X81715050Y-57570000D01*
X81496889Y-57591487D01*
X81216966Y-57676401D01*
X80958986Y-57814294D01*
X80732866Y-57999866D01*
X80547294Y-58225986D01*
X80512799Y-58290523D01*
X80443178Y-58173645D01*
X80248269Y-57957412D01*
X80014920Y-57783359D01*
X79752099Y-57658175D01*
X79604890Y-57613524D01*
X79375000Y-57734845D01*
X79375000Y-58928000D01*
X79395000Y-58928000D01*
X79395000Y-59182000D01*
X79375000Y-59182000D01*
X79375000Y-59202000D01*
X79121000Y-59202000D01*
X79121000Y-59182000D01*
X79101000Y-59182000D01*
X79101000Y-58928000D01*
X79121000Y-58928000D01*
X79121000Y-57734845D01*
X78891110Y-57613524D01*
X78743901Y-57658175D01*
X78481080Y-57783359D01*
X78247731Y-57957412D01*
X78052822Y-58173645D01*
X77983201Y-58290523D01*
X77948706Y-58225986D01*
X77763134Y-57999866D01*
X77537014Y-57814294D01*
X77279034Y-57676401D01*
X76999111Y-57591487D01*
X76780950Y-57570000D01*
X76635050Y-57570000D01*
X76416889Y-57591487D01*
X76136966Y-57676401D01*
X75878986Y-57814294D01*
X75652866Y-57999866D01*
X75467294Y-58225986D01*
X75438000Y-58280791D01*
X75408706Y-58225986D01*
X75223134Y-57999866D01*
X74997014Y-57814294D01*
X74739034Y-57676401D01*
X74459111Y-57591487D01*
X74240950Y-57570000D01*
X74095050Y-57570000D01*
X73876889Y-57591487D01*
X73596966Y-57676401D01*
X73338986Y-57814294D01*
X73112866Y-57999866D01*
X72927294Y-58225986D01*
X72898000Y-58280791D01*
X72868706Y-58225986D01*
X72683134Y-57999866D01*
X72457014Y-57814294D01*
X72199034Y-57676401D01*
X71919111Y-57591487D01*
X71700950Y-57570000D01*
X71555050Y-57570000D01*
X71336889Y-57591487D01*
X71056966Y-57676401D01*
X70798986Y-57814294D01*
X70572866Y-57999866D01*
X70387294Y-58225986D01*
X70358000Y-58280791D01*
X70328706Y-58225986D01*
X70143134Y-57999866D01*
X69917014Y-57814294D01*
X69659034Y-57676401D01*
X69379111Y-57591487D01*
X69160950Y-57570000D01*
X69015050Y-57570000D01*
X68796889Y-57591487D01*
X68516966Y-57676401D01*
X68258986Y-57814294D01*
X68032866Y-57999866D01*
X67847294Y-58225986D01*
X67818000Y-58280791D01*
X67788706Y-58225986D01*
X67603134Y-57999866D01*
X67377014Y-57814294D01*
X67119034Y-57676401D01*
X66839111Y-57591487D01*
X66620950Y-57570000D01*
X66475050Y-57570000D01*
X66256889Y-57591487D01*
X65976966Y-57676401D01*
X65718986Y-57814294D01*
X65492866Y-57999866D01*
X65307294Y-58225986D01*
X65278000Y-58280791D01*
X65248706Y-58225986D01*
X65063134Y-57999866D01*
X64837014Y-57814294D01*
X64579034Y-57676401D01*
X64299111Y-57591487D01*
X64080950Y-57570000D01*
X63935050Y-57570000D01*
X63716889Y-57591487D01*
X63436966Y-57676401D01*
X63178986Y-57814294D01*
X62952866Y-57999866D01*
X62767294Y-58225986D01*
X62738000Y-58280791D01*
X62708706Y-58225986D01*
X62523134Y-57999866D01*
X62297014Y-57814294D01*
X62039034Y-57676401D01*
X61759111Y-57591487D01*
X61540950Y-57570000D01*
X61395050Y-57570000D01*
X61176889Y-57591487D01*
X60896966Y-57676401D01*
X60638986Y-57814294D01*
X60412866Y-57999866D01*
X60227294Y-58225986D01*
X60192799Y-58290523D01*
X60123178Y-58173645D01*
X59928269Y-57957412D01*
X59694920Y-57783359D01*
X59432099Y-57658175D01*
X59284890Y-57613524D01*
X59055000Y-57734845D01*
X59055000Y-58928000D01*
X59075000Y-58928000D01*
X59075000Y-59182000D01*
X59055000Y-59182000D01*
X59055000Y-59202000D01*
X58801000Y-59202000D01*
X58801000Y-59182000D01*
X58781000Y-59182000D01*
X58781000Y-58928000D01*
X58801000Y-58928000D01*
X58801000Y-57734845D01*
X58571110Y-57613524D01*
X58423901Y-57658175D01*
X58161080Y-57783359D01*
X57927731Y-57957412D01*
X57732822Y-58173645D01*
X57663201Y-58290523D01*
X57628706Y-58225986D01*
X57443134Y-57999866D01*
X57217014Y-57814294D01*
X56959034Y-57676401D01*
X56679111Y-57591487D01*
X56460950Y-57570000D01*
X56315050Y-57570000D01*
X56096889Y-57591487D01*
X55816966Y-57676401D01*
X55558986Y-57814294D01*
X55332866Y-57999866D01*
X55147294Y-58225986D01*
X55118000Y-58280791D01*
X55088706Y-58225986D01*
X54903134Y-57999866D01*
X54858000Y-57962825D01*
X54858000Y-57398000D01*
X78944392Y-57398000D01*
X78994000Y-57402886D01*
X79191994Y-57383385D01*
X79272888Y-57358846D01*
X79382380Y-57325632D01*
X79557840Y-57231847D01*
X79711633Y-57105633D01*
X79743261Y-57067094D01*
X81832094Y-54978261D01*
X81870633Y-54946633D01*
X81996847Y-54792840D01*
X82090632Y-54617380D01*
X82148385Y-54426994D01*
X82163000Y-54278608D01*
X82163000Y-54278606D01*
X82167886Y-54229001D01*
X82163000Y-54179396D01*
X82163000Y-51494285D01*
X82242655Y-51591345D01*
X82471821Y-51779417D01*
X82733275Y-51919166D01*
X83016968Y-52005224D01*
X83312000Y-52034282D01*
X83607031Y-52005224D01*
X83890724Y-51919166D01*
X84152178Y-51779417D01*
X84381345Y-51591345D01*
X84569417Y-51362179D01*
X84582000Y-51338637D01*
X84594583Y-51362178D01*
X84782655Y-51591345D01*
X84842001Y-51640049D01*
X84842000Y-54953645D01*
X84663777Y-55131868D01*
X84557226Y-55203063D01*
X84413063Y-55347226D01*
X84299795Y-55516744D01*
X84221774Y-55705102D01*
X84182000Y-55905061D01*
X84182000Y-56108939D01*
X84221774Y-56308898D01*
X84299795Y-56497256D01*
X84413063Y-56666774D01*
X84557226Y-56810937D01*
X84726744Y-56924205D01*
X84915102Y-57002226D01*
X85115061Y-57042000D01*
X85318939Y-57042000D01*
X85518898Y-57002226D01*
X85707256Y-56924205D01*
X85876774Y-56810937D01*
X86020937Y-56666774D01*
X86092132Y-56560223D01*
X86531094Y-56121261D01*
X86569633Y-56089633D01*
X86695847Y-55935840D01*
X86789632Y-55760380D01*
X86809519Y-55694821D01*
X86847385Y-55569995D01*
X86866886Y-55372000D01*
X86862000Y-55322392D01*
X86862000Y-51640048D01*
X86921345Y-51591345D01*
X87109417Y-51362179D01*
X87122000Y-51338637D01*
X87134583Y-51362178D01*
X87322655Y-51591345D01*
X87551821Y-51779417D01*
X87813275Y-51919166D01*
X88096968Y-52005224D01*
X88392000Y-52034282D01*
X88687031Y-52005224D01*
X88970724Y-51919166D01*
X89232178Y-51779417D01*
X89459385Y-51592953D01*
X89472498Y-51636180D01*
X89531463Y-51746494D01*
X89610815Y-51843185D01*
X89707506Y-51922537D01*
X89817820Y-51981502D01*
X89937518Y-52017812D01*
X90062000Y-52030072D01*
X90646250Y-52027000D01*
X90805000Y-51868250D01*
X90805000Y-50419000D01*
X91059000Y-50419000D01*
X91059000Y-51868250D01*
X91217750Y-52027000D01*
X91802000Y-52030072D01*
X91926482Y-52017812D01*
X92046180Y-51981502D01*
X92156494Y-51922537D01*
X92253185Y-51843185D01*
X92332537Y-51746494D01*
X92391502Y-51636180D01*
X92427812Y-51516482D01*
X92440072Y-51392000D01*
X92437000Y-50577750D01*
X92278250Y-50419000D01*
X91059000Y-50419000D01*
X90805000Y-50419000D01*
X90785000Y-50419000D01*
X90785000Y-50165000D01*
X90805000Y-50165000D01*
X90805000Y-48715750D01*
X91059000Y-48715750D01*
X91059000Y-50165000D01*
X92278250Y-50165000D01*
X92437000Y-50006250D01*
X92440072Y-49192000D01*
X92427812Y-49067518D01*
X92391502Y-48947820D01*
X92332537Y-48837506D01*
X92253185Y-48740815D01*
X92156494Y-48661463D01*
X92046180Y-48602498D01*
X91926482Y-48566188D01*
X91802000Y-48553928D01*
X91217750Y-48557000D01*
X91059000Y-48715750D01*
X90805000Y-48715750D01*
X90646250Y-48557000D01*
X90062000Y-48553928D01*
X89937518Y-48566188D01*
X89817820Y-48602498D01*
X89707506Y-48661463D01*
X89610815Y-48740815D01*
X89531463Y-48837506D01*
X89472498Y-48947820D01*
X89459385Y-48991047D01*
X89232179Y-48804583D01*
X88970725Y-48664834D01*
X88687032Y-48578776D01*
X88392000Y-48549718D01*
X88096969Y-48578776D01*
X87813276Y-48664834D01*
X87551822Y-48804583D01*
X87322655Y-48992655D01*
X87134583Y-49221821D01*
X87122000Y-49245362D01*
X87109417Y-49221821D01*
X86921345Y-48992655D01*
X86692179Y-48804583D01*
X86430725Y-48664834D01*
X86147032Y-48578776D01*
X85852000Y-48549718D01*
X85556969Y-48578776D01*
X85273276Y-48664834D01*
X85011822Y-48804583D01*
X84782655Y-48992655D01*
X84594583Y-49221821D01*
X84582000Y-49245362D01*
X84569417Y-49221821D01*
X84381345Y-48992655D01*
X84152179Y-48804583D01*
X83890725Y-48664834D01*
X83607032Y-48578776D01*
X83312000Y-48549718D01*
X83016969Y-48578776D01*
X82733276Y-48664834D01*
X82471822Y-48804583D01*
X82242655Y-48992655D01*
X82163000Y-49089715D01*
X82163000Y-43356608D01*
X82167886Y-43307000D01*
X82148385Y-43109005D01*
X82090632Y-42918620D01*
X82033506Y-42811745D01*
X81996847Y-42743160D01*
X81870633Y-42589367D01*
X81832099Y-42557743D01*
X81147000Y-41872645D01*
X81147000Y-40718048D01*
X81206345Y-40669345D01*
X81394417Y-40440179D01*
X81407000Y-40416638D01*
X81419583Y-40440179D01*
X81607655Y-40669345D01*
X81836822Y-40857417D01*
X82098276Y-40997166D01*
X82381969Y-41083224D01*
X82677000Y-41112282D01*
X82972032Y-41083224D01*
X83255725Y-40997166D01*
X83517179Y-40857417D01*
X83746345Y-40669345D01*
X83934417Y-40440179D01*
X83947000Y-40416638D01*
X83959583Y-40440179D01*
X84147655Y-40669345D01*
X84376822Y-40857417D01*
X84638276Y-40997166D01*
X84921969Y-41083224D01*
X85217000Y-41112282D01*
X85512032Y-41083224D01*
X85795725Y-40997166D01*
X86057179Y-40857417D01*
X86286345Y-40669345D01*
X86474417Y-40440179D01*
X86614166Y-40178724D01*
X86700224Y-39895031D01*
X86722000Y-39673935D01*
X86722000Y-39066064D01*
X86700224Y-38844968D01*
X86614166Y-38561275D01*
X86474417Y-38299821D01*
X86286345Y-38070655D01*
X86227000Y-38021952D01*
X86227000Y-36752608D01*
X86231886Y-36703000D01*
X86212385Y-36505005D01*
X86154632Y-36314620D01*
X86120630Y-36251006D01*
X86060847Y-36139160D01*
X85934633Y-35985367D01*
X85896099Y-35953743D01*
X84950261Y-35007906D01*
X84918633Y-34969367D01*
X84764840Y-34843153D01*
X84589380Y-34749368D01*
X84398994Y-34691615D01*
X84250608Y-34677000D01*
X84201000Y-34672114D01*
X84151392Y-34677000D01*
X69645608Y-34677000D01*
X69596000Y-34672114D01*
X69398005Y-34691615D01*
X69319706Y-34715367D01*
X69207620Y-34749368D01*
X69032160Y-34843153D01*
X68878367Y-34969367D01*
X68846743Y-35007901D01*
X68154905Y-35699740D01*
X68116367Y-35731367D01*
X67990153Y-35885160D01*
X67918940Y-36018392D01*
X67896368Y-36060621D01*
X67838615Y-36251006D01*
X67819114Y-36449000D01*
X67824000Y-36498608D01*
X67824000Y-37067210D01*
X67774483Y-37052189D01*
X67650001Y-37039929D01*
X66182913Y-37039929D01*
X66174380Y-37035368D01*
X65983994Y-36977615D01*
X65835608Y-36963000D01*
X65786000Y-36958114D01*
X65736392Y-36963000D01*
X64617386Y-36963000D01*
X64491386Y-36859595D01*
X64337850Y-36777528D01*
X64171254Y-36726992D01*
X63998000Y-36709928D01*
X62748000Y-36709928D01*
X62574746Y-36726992D01*
X62478000Y-36756339D01*
X62478000Y-36117608D01*
X62482886Y-36068000D01*
X62463385Y-35870005D01*
X62405632Y-35679620D01*
X62369034Y-35611150D01*
X62311847Y-35504160D01*
X62185633Y-35350367D01*
X62147099Y-35318743D01*
X61201261Y-34372906D01*
X61169633Y-34334367D01*
X61015840Y-34208153D01*
X60840380Y-34114368D01*
X60649994Y-34056615D01*
X60501608Y-34042000D01*
X60452000Y-34037114D01*
X60402392Y-34042000D01*
X51408623Y-34042000D01*
X51282939Y-34017000D01*
X51079061Y-34017000D01*
X50953377Y-34042000D01*
X47790381Y-34042000D01*
X48152381Y-33680000D01*
X97516620Y-33680000D01*
X98527000Y-34690381D01*
G36*
X49673000Y-55797450D02*
G01*
X49831750Y-55956200D01*
X50806000Y-55956200D01*
X50806000Y-55936200D01*
X51060000Y-55936200D01*
X51060000Y-55956200D01*
X52034250Y-55956200D01*
X52193000Y-55797450D01*
X52193925Y-55620000D01*
X53318740Y-55620000D01*
X53257367Y-55670367D01*
X53225736Y-55708909D01*
X53168908Y-55765738D01*
X53130367Y-55797367D01*
X53004153Y-55951160D01*
X52921386Y-56106008D01*
X52910368Y-56126621D01*
X52852615Y-56317006D01*
X52833114Y-56515000D01*
X52838000Y-56564608D01*
X52838001Y-57962825D01*
X52792866Y-57999866D01*
X52607294Y-58225986D01*
X52578000Y-58280791D01*
X52548706Y-58225986D01*
X52363134Y-57999866D01*
X52137014Y-57814294D01*
X51879034Y-57676401D01*
X51600943Y-57592043D01*
X51682482Y-57584012D01*
X51802180Y-57547702D01*
X51912494Y-57488737D01*
X52009185Y-57409385D01*
X52088537Y-57312694D01*
X52147502Y-57202380D01*
X52183812Y-57082682D01*
X52196072Y-56958200D01*
X52193000Y-56368950D01*
X52034250Y-56210200D01*
X51060000Y-56210200D01*
X51060000Y-57434450D01*
X51199092Y-57573542D01*
X51016889Y-57591487D01*
X50736966Y-57676401D01*
X50478986Y-57814294D01*
X50252866Y-57999866D01*
X50228393Y-58029687D01*
X50207502Y-57960820D01*
X50148537Y-57850506D01*
X50069185Y-57753815D01*
X49972494Y-57674463D01*
X49862180Y-57615498D01*
X49742482Y-57579188D01*
X49618000Y-57566928D01*
X48721736Y-57566928D01*
X48847850Y-57528672D01*
X49001386Y-57446605D01*
X49135962Y-57336162D01*
X49246405Y-57201586D01*
X49328472Y-57048050D01*
X49355727Y-56958200D01*
X49669928Y-56958200D01*
X49682188Y-57082682D01*
X49718498Y-57202380D01*
X49777463Y-57312694D01*
X49856815Y-57409385D01*
X49953506Y-57488737D01*
X50063820Y-57547702D01*
X50183518Y-57584012D01*
X50308000Y-57596272D01*
X50647250Y-57593200D01*
X50806000Y-57434450D01*
X50806000Y-56210200D01*
X49831750Y-56210200D01*
X49673000Y-56368950D01*
X49669928Y-56958200D01*
X49355727Y-56958200D01*
X49379008Y-56881454D01*
X49396072Y-56708200D01*
X49396072Y-55620000D01*
X49672075Y-55620000D01*
X49673000Y-55797450D01*
X49673000Y-55797450D01*
G37*
X49673000Y-55797450D02*
X49831750Y-55956200D01*
X50806000Y-55956200D01*
X50806000Y-55936200D01*
X51060000Y-55936200D01*
X51060000Y-55956200D01*
X52034250Y-55956200D01*
X52193000Y-55797450D01*
X52193925Y-55620000D01*
X53318740Y-55620000D01*
X53257367Y-55670367D01*
X53225736Y-55708909D01*
X53168908Y-55765738D01*
X53130367Y-55797367D01*
X53004153Y-55951160D01*
X52921386Y-56106008D01*
X52910368Y-56126621D01*
X52852615Y-56317006D01*
X52833114Y-56515000D01*
X52838000Y-56564608D01*
X52838001Y-57962825D01*
X52792866Y-57999866D01*
X52607294Y-58225986D01*
X52578000Y-58280791D01*
X52548706Y-58225986D01*
X52363134Y-57999866D01*
X52137014Y-57814294D01*
X51879034Y-57676401D01*
X51600943Y-57592043D01*
X51682482Y-57584012D01*
X51802180Y-57547702D01*
X51912494Y-57488737D01*
X52009185Y-57409385D01*
X52088537Y-57312694D01*
X52147502Y-57202380D01*
X52183812Y-57082682D01*
X52196072Y-56958200D01*
X52193000Y-56368950D01*
X52034250Y-56210200D01*
X51060000Y-56210200D01*
X51060000Y-57434450D01*
X51199092Y-57573542D01*
X51016889Y-57591487D01*
X50736966Y-57676401D01*
X50478986Y-57814294D01*
X50252866Y-57999866D01*
X50228393Y-58029687D01*
X50207502Y-57960820D01*
X50148537Y-57850506D01*
X50069185Y-57753815D01*
X49972494Y-57674463D01*
X49862180Y-57615498D01*
X49742482Y-57579188D01*
X49618000Y-57566928D01*
X48721736Y-57566928D01*
X48847850Y-57528672D01*
X49001386Y-57446605D01*
X49135962Y-57336162D01*
X49246405Y-57201586D01*
X49328472Y-57048050D01*
X49355727Y-56958200D01*
X49669928Y-56958200D01*
X49682188Y-57082682D01*
X49718498Y-57202380D01*
X49777463Y-57312694D01*
X49856815Y-57409385D01*
X49953506Y-57488737D01*
X50063820Y-57547702D01*
X50183518Y-57584012D01*
X50308000Y-57596272D01*
X50647250Y-57593200D01*
X50806000Y-57434450D01*
X50806000Y-56210200D01*
X49831750Y-56210200D01*
X49673000Y-56368950D01*
X49669928Y-56958200D01*
X49355727Y-56958200D01*
X49379008Y-56881454D01*
X49396072Y-56708200D01*
X49396072Y-55620000D01*
X49672075Y-55620000D01*
X49673000Y-55797450D01*
G36*
X80143000Y-43725356D02*
G01*
X80143001Y-53810644D01*
X78575645Y-55378000D01*
X77263685Y-55378000D01*
X77275799Y-55365886D01*
X77427371Y-55139043D01*
X77531775Y-54886989D01*
X77585000Y-54619411D01*
X77585000Y-54346589D01*
X77531775Y-54079011D01*
X77427371Y-53826957D01*
X77275799Y-53600114D01*
X77210000Y-53534315D01*
X77210000Y-52946565D01*
X77271932Y-52871101D01*
X77343000Y-52738142D01*
X77414068Y-52871101D01*
X77593392Y-53089608D01*
X77811899Y-53268932D01*
X78061192Y-53402182D01*
X78331691Y-53484236D01*
X78542508Y-53505000D01*
X78683492Y-53505000D01*
X78894309Y-53484236D01*
X79164808Y-53402182D01*
X79414101Y-53268932D01*
X79632608Y-53089608D01*
X79811932Y-52871101D01*
X79945182Y-52621808D01*
X80027236Y-52351309D01*
X80054943Y-52070000D01*
X80027236Y-51788691D01*
X79945182Y-51518192D01*
X79811932Y-51268899D01*
X79632608Y-51050392D01*
X79414101Y-50871068D01*
X79164808Y-50737818D01*
X78894309Y-50655764D01*
X78683492Y-50635000D01*
X78542508Y-50635000D01*
X78331691Y-50655764D01*
X78061192Y-50737818D01*
X77811899Y-50871068D01*
X77593392Y-51050392D01*
X77414068Y-51268899D01*
X77343000Y-51401858D01*
X77271932Y-51268899D01*
X77092608Y-51050392D01*
X76874101Y-50871068D01*
X76624808Y-50737818D01*
X76354309Y-50655764D01*
X76143492Y-50635000D01*
X76002508Y-50635000D01*
X75791691Y-50655764D01*
X75521192Y-50737818D01*
X75271899Y-50871068D01*
X75053392Y-51050392D01*
X74874068Y-51268899D01*
X74803000Y-51401858D01*
X74731932Y-51268899D01*
X74552608Y-51050392D01*
X74334101Y-50871068D01*
X74084808Y-50737818D01*
X73814309Y-50655764D01*
X73603492Y-50635000D01*
X73462508Y-50635000D01*
X73251691Y-50655764D01*
X72981192Y-50737818D01*
X72731899Y-50871068D01*
X72513392Y-51050392D01*
X72334068Y-51268899D01*
X72263000Y-51401858D01*
X72191932Y-51268899D01*
X72012608Y-51050392D01*
X71794101Y-50871068D01*
X71544808Y-50737818D01*
X71274309Y-50655764D01*
X71063492Y-50635000D01*
X70922508Y-50635000D01*
X70711691Y-50655764D01*
X70441192Y-50737818D01*
X70191899Y-50871068D01*
X69973392Y-51050392D01*
X69794068Y-51268899D01*
X69723000Y-51401858D01*
X69651932Y-51268899D01*
X69472608Y-51050392D01*
X69254101Y-50871068D01*
X69004808Y-50737818D01*
X68734309Y-50655764D01*
X68523492Y-50635000D01*
X68382508Y-50635000D01*
X68171691Y-50655764D01*
X67901192Y-50737818D01*
X67651899Y-50871068D01*
X67433392Y-51050392D01*
X67254068Y-51268899D01*
X67183000Y-51401858D01*
X67111932Y-51268899D01*
X66932608Y-51050392D01*
X66768614Y-50915806D01*
X66798000Y-50916072D01*
X66922482Y-50903812D01*
X67042180Y-50867502D01*
X67152494Y-50808537D01*
X67249185Y-50729185D01*
X67328537Y-50632494D01*
X67387502Y-50522180D01*
X67423812Y-50402482D01*
X67436072Y-50278000D01*
X67433000Y-49688750D01*
X67274250Y-49530000D01*
X66300000Y-49530000D01*
X66300000Y-49550000D01*
X66046000Y-49550000D01*
X66046000Y-49530000D01*
X65071750Y-49530000D01*
X64913000Y-49688750D01*
X64909928Y-50278000D01*
X64922188Y-50402482D01*
X64958498Y-50522180D01*
X65017463Y-50632494D01*
X65096815Y-50729185D01*
X65193506Y-50808537D01*
X65211196Y-50817993D01*
X65111899Y-50871068D01*
X64893392Y-51050392D01*
X64800581Y-51163482D01*
X64798812Y-51145518D01*
X64762502Y-51025820D01*
X64703537Y-50915506D01*
X64624185Y-50818815D01*
X64527494Y-50739463D01*
X64417180Y-50680498D01*
X64383000Y-50670130D01*
X64383000Y-50647386D01*
X64486405Y-50521386D01*
X64568472Y-50367850D01*
X64619008Y-50201254D01*
X64636072Y-50028000D01*
X64636072Y-48778000D01*
X64621988Y-48635000D01*
X64910486Y-48635000D01*
X64913000Y-49117250D01*
X65071750Y-49276000D01*
X66046000Y-49276000D01*
X66046000Y-49256000D01*
X66300000Y-49256000D01*
X66300000Y-49276000D01*
X67274250Y-49276000D01*
X67433000Y-49117250D01*
X67435514Y-48635000D01*
X69580392Y-48635000D01*
X69630000Y-48639886D01*
X69827994Y-48620385D01*
X69944662Y-48584994D01*
X70018380Y-48562632D01*
X70083415Y-48527870D01*
X70148150Y-48562472D01*
X70314746Y-48613008D01*
X70488000Y-48630072D01*
X71238000Y-48630072D01*
X71411254Y-48613008D01*
X71577850Y-48562472D01*
X71731386Y-48480405D01*
X71865962Y-48369962D01*
X71976405Y-48235386D01*
X72058472Y-48081850D01*
X72085727Y-47992000D01*
X72399928Y-47992000D01*
X72412188Y-48116482D01*
X72448498Y-48236180D01*
X72507463Y-48346494D01*
X72586815Y-48443185D01*
X72683506Y-48522537D01*
X72793820Y-48581502D01*
X72913518Y-48617812D01*
X73038000Y-48630072D01*
X73377250Y-48627000D01*
X73536000Y-48468250D01*
X73536000Y-47244000D01*
X73790000Y-47244000D01*
X73790000Y-48468250D01*
X73948750Y-48627000D01*
X74288000Y-48630072D01*
X74412482Y-48617812D01*
X74532180Y-48581502D01*
X74642494Y-48522537D01*
X74739185Y-48443185D01*
X74818537Y-48346494D01*
X74877502Y-48236180D01*
X74913812Y-48116482D01*
X74926072Y-47992000D01*
X74923000Y-47402750D01*
X74764250Y-47244000D01*
X73790000Y-47244000D01*
X73536000Y-47244000D01*
X72561750Y-47244000D01*
X72403000Y-47402750D01*
X72399928Y-47992000D01*
X72085727Y-47992000D01*
X72109008Y-47915254D01*
X72126072Y-47742000D01*
X72126072Y-46492000D01*
X72109008Y-46318746D01*
X72058472Y-46152150D01*
X71976405Y-45998614D01*
X71873000Y-45872614D01*
X71873000Y-45584181D01*
X72012608Y-45469608D01*
X72191932Y-45251101D01*
X72263000Y-45118142D01*
X72334068Y-45251101D01*
X72513392Y-45469608D01*
X72731899Y-45648932D01*
X72766195Y-45667264D01*
X72683506Y-45711463D01*
X72586815Y-45790815D01*
X72507463Y-45887506D01*
X72448498Y-45997820D01*
X72412188Y-46117518D01*
X72399928Y-46242000D01*
X72403000Y-46831250D01*
X72561750Y-46990000D01*
X73536000Y-46990000D01*
X73536000Y-46970000D01*
X73790000Y-46970000D01*
X73790000Y-46990000D01*
X74764250Y-46990000D01*
X74923000Y-46831250D01*
X74926072Y-46242000D01*
X74913812Y-46117518D01*
X74877502Y-45997820D01*
X74818537Y-45887506D01*
X74739185Y-45790815D01*
X74642494Y-45711463D01*
X74532180Y-45652498D01*
X74412482Y-45616188D01*
X74378123Y-45612804D01*
X74552608Y-45469608D01*
X74731932Y-45251101D01*
X74803000Y-45118142D01*
X74874068Y-45251101D01*
X75053392Y-45469608D01*
X75271899Y-45648932D01*
X75521192Y-45782182D01*
X75791691Y-45864236D01*
X76002508Y-45885000D01*
X76143492Y-45885000D01*
X76354309Y-45864236D01*
X76624808Y-45782182D01*
X76874101Y-45648932D01*
X77092608Y-45469608D01*
X77271932Y-45251101D01*
X77343000Y-45118142D01*
X77414068Y-45251101D01*
X77593392Y-45469608D01*
X77811899Y-45648932D01*
X78061192Y-45782182D01*
X78331691Y-45864236D01*
X78542508Y-45885000D01*
X78683492Y-45885000D01*
X78894309Y-45864236D01*
X79164808Y-45782182D01*
X79414101Y-45648932D01*
X79632608Y-45469608D01*
X79811932Y-45251101D01*
X79945182Y-45001808D01*
X80027236Y-44731309D01*
X80054943Y-44450000D01*
X80027236Y-44168691D01*
X79945182Y-43898192D01*
X79811932Y-43648899D01*
X79734871Y-43555000D01*
X79833392Y-43555000D01*
X79883000Y-43559886D01*
X79969055Y-43551410D01*
X80143000Y-43725356D01*
X80143000Y-43725356D01*
G37*
X80143000Y-43725356D02*
X80143001Y-53810644D01*
X78575645Y-55378000D01*
X77263685Y-55378000D01*
X77275799Y-55365886D01*
X77427371Y-55139043D01*
X77531775Y-54886989D01*
X77585000Y-54619411D01*
X77585000Y-54346589D01*
X77531775Y-54079011D01*
X77427371Y-53826957D01*
X77275799Y-53600114D01*
X77210000Y-53534315D01*
X77210000Y-52946565D01*
X77271932Y-52871101D01*
X77343000Y-52738142D01*
X77414068Y-52871101D01*
X77593392Y-53089608D01*
X77811899Y-53268932D01*
X78061192Y-53402182D01*
X78331691Y-53484236D01*
X78542508Y-53505000D01*
X78683492Y-53505000D01*
X78894309Y-53484236D01*
X79164808Y-53402182D01*
X79414101Y-53268932D01*
X79632608Y-53089608D01*
X79811932Y-52871101D01*
X79945182Y-52621808D01*
X80027236Y-52351309D01*
X80054943Y-52070000D01*
X80027236Y-51788691D01*
X79945182Y-51518192D01*
X79811932Y-51268899D01*
X79632608Y-51050392D01*
X79414101Y-50871068D01*
X79164808Y-50737818D01*
X78894309Y-50655764D01*
X78683492Y-50635000D01*
X78542508Y-50635000D01*
X78331691Y-50655764D01*
X78061192Y-50737818D01*
X77811899Y-50871068D01*
X77593392Y-51050392D01*
X77414068Y-51268899D01*
X77343000Y-51401858D01*
X77271932Y-51268899D01*
X77092608Y-51050392D01*
X76874101Y-50871068D01*
X76624808Y-50737818D01*
X76354309Y-50655764D01*
X76143492Y-50635000D01*
X76002508Y-50635000D01*
X75791691Y-50655764D01*
X75521192Y-50737818D01*
X75271899Y-50871068D01*
X75053392Y-51050392D01*
X74874068Y-51268899D01*
X74803000Y-51401858D01*
X74731932Y-51268899D01*
X74552608Y-51050392D01*
X74334101Y-50871068D01*
X74084808Y-50737818D01*
X73814309Y-50655764D01*
X73603492Y-50635000D01*
X73462508Y-50635000D01*
X73251691Y-50655764D01*
X72981192Y-50737818D01*
X72731899Y-50871068D01*
X72513392Y-51050392D01*
X72334068Y-51268899D01*
X72263000Y-51401858D01*
X72191932Y-51268899D01*
X72012608Y-51050392D01*
X71794101Y-50871068D01*
X71544808Y-50737818D01*
X71274309Y-50655764D01*
X71063492Y-50635000D01*
X70922508Y-50635000D01*
X70711691Y-50655764D01*
X70441192Y-50737818D01*
X70191899Y-50871068D01*
X69973392Y-51050392D01*
X69794068Y-51268899D01*
X69723000Y-51401858D01*
X69651932Y-51268899D01*
X69472608Y-51050392D01*
X69254101Y-50871068D01*
X69004808Y-50737818D01*
X68734309Y-50655764D01*
X68523492Y-50635000D01*
X68382508Y-50635000D01*
X68171691Y-50655764D01*
X67901192Y-50737818D01*
X67651899Y-50871068D01*
X67433392Y-51050392D01*
X67254068Y-51268899D01*
X67183000Y-51401858D01*
X67111932Y-51268899D01*
X66932608Y-51050392D01*
X66768614Y-50915806D01*
X66798000Y-50916072D01*
X66922482Y-50903812D01*
X67042180Y-50867502D01*
X67152494Y-50808537D01*
X67249185Y-50729185D01*
X67328537Y-50632494D01*
X67387502Y-50522180D01*
X67423812Y-50402482D01*
X67436072Y-50278000D01*
X67433000Y-49688750D01*
X67274250Y-49530000D01*
X66300000Y-49530000D01*
X66300000Y-49550000D01*
X66046000Y-49550000D01*
X66046000Y-49530000D01*
X65071750Y-49530000D01*
X64913000Y-49688750D01*
X64909928Y-50278000D01*
X64922188Y-50402482D01*
X64958498Y-50522180D01*
X65017463Y-50632494D01*
X65096815Y-50729185D01*
X65193506Y-50808537D01*
X65211196Y-50817993D01*
X65111899Y-50871068D01*
X64893392Y-51050392D01*
X64800581Y-51163482D01*
X64798812Y-51145518D01*
X64762502Y-51025820D01*
X64703537Y-50915506D01*
X64624185Y-50818815D01*
X64527494Y-50739463D01*
X64417180Y-50680498D01*
X64383000Y-50670130D01*
X64383000Y-50647386D01*
X64486405Y-50521386D01*
X64568472Y-50367850D01*
X64619008Y-50201254D01*
X64636072Y-50028000D01*
X64636072Y-48778000D01*
X64621988Y-48635000D01*
X64910486Y-48635000D01*
X64913000Y-49117250D01*
X65071750Y-49276000D01*
X66046000Y-49276000D01*
X66046000Y-49256000D01*
X66300000Y-49256000D01*
X66300000Y-49276000D01*
X67274250Y-49276000D01*
X67433000Y-49117250D01*
X67435514Y-48635000D01*
X69580392Y-48635000D01*
X69630000Y-48639886D01*
X69827994Y-48620385D01*
X69944662Y-48584994D01*
X70018380Y-48562632D01*
X70083415Y-48527870D01*
X70148150Y-48562472D01*
X70314746Y-48613008D01*
X70488000Y-48630072D01*
X71238000Y-48630072D01*
X71411254Y-48613008D01*
X71577850Y-48562472D01*
X71731386Y-48480405D01*
X71865962Y-48369962D01*
X71976405Y-48235386D01*
X72058472Y-48081850D01*
X72085727Y-47992000D01*
X72399928Y-47992000D01*
X72412188Y-48116482D01*
X72448498Y-48236180D01*
X72507463Y-48346494D01*
X72586815Y-48443185D01*
X72683506Y-48522537D01*
X72793820Y-48581502D01*
X72913518Y-48617812D01*
X73038000Y-48630072D01*
X73377250Y-48627000D01*
X73536000Y-48468250D01*
X73536000Y-47244000D01*
X73790000Y-47244000D01*
X73790000Y-48468250D01*
X73948750Y-48627000D01*
X74288000Y-48630072D01*
X74412482Y-48617812D01*
X74532180Y-48581502D01*
X74642494Y-48522537D01*
X74739185Y-48443185D01*
X74818537Y-48346494D01*
X74877502Y-48236180D01*
X74913812Y-48116482D01*
X74926072Y-47992000D01*
X74923000Y-47402750D01*
X74764250Y-47244000D01*
X73790000Y-47244000D01*
X73536000Y-47244000D01*
X72561750Y-47244000D01*
X72403000Y-47402750D01*
X72399928Y-47992000D01*
X72085727Y-47992000D01*
X72109008Y-47915254D01*
X72126072Y-47742000D01*
X72126072Y-46492000D01*
X72109008Y-46318746D01*
X72058472Y-46152150D01*
X71976405Y-45998614D01*
X71873000Y-45872614D01*
X71873000Y-45584181D01*
X72012608Y-45469608D01*
X72191932Y-45251101D01*
X72263000Y-45118142D01*
X72334068Y-45251101D01*
X72513392Y-45469608D01*
X72731899Y-45648932D01*
X72766195Y-45667264D01*
X72683506Y-45711463D01*
X72586815Y-45790815D01*
X72507463Y-45887506D01*
X72448498Y-45997820D01*
X72412188Y-46117518D01*
X72399928Y-46242000D01*
X72403000Y-46831250D01*
X72561750Y-46990000D01*
X73536000Y-46990000D01*
X73536000Y-46970000D01*
X73790000Y-46970000D01*
X73790000Y-46990000D01*
X74764250Y-46990000D01*
X74923000Y-46831250D01*
X74926072Y-46242000D01*
X74913812Y-46117518D01*
X74877502Y-45997820D01*
X74818537Y-45887506D01*
X74739185Y-45790815D01*
X74642494Y-45711463D01*
X74532180Y-45652498D01*
X74412482Y-45616188D01*
X74378123Y-45612804D01*
X74552608Y-45469608D01*
X74731932Y-45251101D01*
X74803000Y-45118142D01*
X74874068Y-45251101D01*
X75053392Y-45469608D01*
X75271899Y-45648932D01*
X75521192Y-45782182D01*
X75791691Y-45864236D01*
X76002508Y-45885000D01*
X76143492Y-45885000D01*
X76354309Y-45864236D01*
X76624808Y-45782182D01*
X76874101Y-45648932D01*
X77092608Y-45469608D01*
X77271932Y-45251101D01*
X77343000Y-45118142D01*
X77414068Y-45251101D01*
X77593392Y-45469608D01*
X77811899Y-45648932D01*
X78061192Y-45782182D01*
X78331691Y-45864236D01*
X78542508Y-45885000D01*
X78683492Y-45885000D01*
X78894309Y-45864236D01*
X79164808Y-45782182D01*
X79414101Y-45648932D01*
X79632608Y-45469608D01*
X79811932Y-45251101D01*
X79945182Y-45001808D01*
X80027236Y-44731309D01*
X80054943Y-44450000D01*
X80027236Y-44168691D01*
X79945182Y-43898192D01*
X79811932Y-43648899D01*
X79734871Y-43555000D01*
X79833392Y-43555000D01*
X79883000Y-43559886D01*
X79969055Y-43551410D01*
X80143000Y-43725356D01*
G36*
X48256795Y-43010256D02*
G01*
X48370063Y-43179774D01*
X48514226Y-43323937D01*
X48683744Y-43437205D01*
X48872102Y-43515226D01*
X49072061Y-43555000D01*
X49275939Y-43555000D01*
X49401623Y-43530000D01*
X50184469Y-43530000D01*
X50281754Y-43582000D01*
X49814000Y-43582000D01*
X49814000Y-44940000D01*
X51507155Y-44940000D01*
X51542447Y-44873125D01*
X51554620Y-44879632D01*
X51649813Y-44908508D01*
X51745005Y-44937385D01*
X51943000Y-44956886D01*
X51992608Y-44952000D01*
X52044645Y-44952000D01*
X51609228Y-45387417D01*
X51507155Y-45194000D01*
X49814000Y-45194000D01*
X49814000Y-46552000D01*
X50314000Y-46552000D01*
X50601269Y-46498690D01*
X50872618Y-46390361D01*
X51117619Y-46231176D01*
X51188616Y-46161982D01*
X51182114Y-46228000D01*
X51187000Y-46277608D01*
X51187000Y-47067392D01*
X51182114Y-47117000D01*
X51201615Y-47314994D01*
X51218942Y-47372114D01*
X51259368Y-47505379D01*
X51353153Y-47680840D01*
X51479367Y-47834633D01*
X51517905Y-47866260D01*
X51793404Y-48141760D01*
X51794147Y-48149300D01*
X51861906Y-48372674D01*
X51971942Y-48578536D01*
X52085577Y-48717000D01*
X51971942Y-48855464D01*
X51861906Y-49061326D01*
X51794147Y-49284700D01*
X51771267Y-49517000D01*
X51794147Y-49749300D01*
X51861906Y-49972674D01*
X51971942Y-50178536D01*
X52120025Y-50358975D01*
X52300464Y-50507058D01*
X52506326Y-50617094D01*
X52729700Y-50684853D01*
X52903793Y-50702000D01*
X53570207Y-50702000D01*
X53635738Y-50695546D01*
X53706150Y-50869754D01*
X53834275Y-51065119D01*
X53998052Y-51231734D01*
X54191187Y-51363196D01*
X54406258Y-51454454D01*
X54635000Y-51502000D01*
X54910000Y-51502000D01*
X54910000Y-50444000D01*
X55164000Y-50444000D01*
X55164000Y-51502000D01*
X55439000Y-51502000D01*
X55667742Y-51454454D01*
X55882813Y-51363196D01*
X56075948Y-51231734D01*
X56239725Y-51065119D01*
X56367850Y-50869754D01*
X56455399Y-50653147D01*
X56455803Y-50626744D01*
X56330361Y-50444000D01*
X55164000Y-50444000D01*
X54910000Y-50444000D01*
X54890000Y-50444000D01*
X54890000Y-50190000D01*
X54910000Y-50190000D01*
X54910000Y-50170000D01*
X55164000Y-50170000D01*
X55164000Y-50190000D01*
X56330361Y-50190000D01*
X56455803Y-50007256D01*
X56455399Y-49980853D01*
X56367850Y-49764246D01*
X56343423Y-49727000D01*
X59056392Y-49727000D01*
X59106000Y-49731886D01*
X59303994Y-49712385D01*
X59381908Y-49688750D01*
X59494380Y-49654632D01*
X59669840Y-49560847D01*
X59823633Y-49434633D01*
X59855261Y-49396094D01*
X61886356Y-47365000D01*
X62966645Y-47365000D01*
X62693901Y-47637744D01*
X62655368Y-47669367D01*
X62623745Y-47707900D01*
X62623744Y-47707901D01*
X62529154Y-47823160D01*
X62435368Y-47998621D01*
X62395866Y-48128842D01*
X62370038Y-48150038D01*
X62259595Y-48284614D01*
X62177528Y-48438150D01*
X62126992Y-48604746D01*
X62109928Y-48778000D01*
X62109928Y-50028000D01*
X62126992Y-50201254D01*
X62177528Y-50367850D01*
X62259595Y-50521386D01*
X62363000Y-50647387D01*
X62363000Y-50670129D01*
X62328820Y-50680498D01*
X62218506Y-50739463D01*
X62121815Y-50818815D01*
X62042463Y-50915506D01*
X61983498Y-51025820D01*
X61947188Y-51145518D01*
X61934928Y-51270000D01*
X61934928Y-52870000D01*
X61947188Y-52994482D01*
X61983498Y-53114180D01*
X62042463Y-53224494D01*
X62121815Y-53321185D01*
X62218506Y-53400537D01*
X62328820Y-53459502D01*
X62363000Y-53469870D01*
X62363000Y-53600000D01*
X51011692Y-53600000D01*
X51117619Y-53531176D01*
X51326857Y-53327252D01*
X51492291Y-53086426D01*
X51607563Y-52817953D01*
X51628476Y-52723890D01*
X51507155Y-52494000D01*
X49814000Y-52494000D01*
X49814000Y-52514000D01*
X49560000Y-52514000D01*
X49560000Y-52494000D01*
X49540000Y-52494000D01*
X49540000Y-52240000D01*
X49560000Y-52240000D01*
X49560000Y-50882000D01*
X49814000Y-50882000D01*
X49814000Y-52240000D01*
X51507155Y-52240000D01*
X51628476Y-52010110D01*
X51607563Y-51916047D01*
X51492291Y-51647574D01*
X51326857Y-51406748D01*
X51117619Y-51202824D01*
X50872618Y-51043639D01*
X50601269Y-50935310D01*
X50314000Y-50882000D01*
X49814000Y-50882000D01*
X49560000Y-50882000D01*
X49060000Y-50882000D01*
X48772731Y-50935310D01*
X48501382Y-51043639D01*
X48256381Y-51202824D01*
X48254000Y-51205145D01*
X48254000Y-46228855D01*
X48256381Y-46231176D01*
X48501382Y-46390361D01*
X48772731Y-46498690D01*
X49060000Y-46552000D01*
X49560000Y-46552000D01*
X49560000Y-45194000D01*
X49540000Y-45194000D01*
X49540000Y-44940000D01*
X49560000Y-44940000D01*
X49560000Y-43582000D01*
X49060000Y-43582000D01*
X48772731Y-43635310D01*
X48501382Y-43743639D01*
X48256381Y-43902824D01*
X48254000Y-43905145D01*
X48254000Y-43003508D01*
X48256795Y-43010256D01*
X48256795Y-43010256D01*
G37*
X48256795Y-43010256D02*
X48370063Y-43179774D01*
X48514226Y-43323937D01*
X48683744Y-43437205D01*
X48872102Y-43515226D01*
X49072061Y-43555000D01*
X49275939Y-43555000D01*
X49401623Y-43530000D01*
X50184469Y-43530000D01*
X50281754Y-43582000D01*
X49814000Y-43582000D01*
X49814000Y-44940000D01*
X51507155Y-44940000D01*
X51542447Y-44873125D01*
X51554620Y-44879632D01*
X51649813Y-44908508D01*
X51745005Y-44937385D01*
X51943000Y-44956886D01*
X51992608Y-44952000D01*
X52044645Y-44952000D01*
X51609228Y-45387417D01*
X51507155Y-45194000D01*
X49814000Y-45194000D01*
X49814000Y-46552000D01*
X50314000Y-46552000D01*
X50601269Y-46498690D01*
X50872618Y-46390361D01*
X51117619Y-46231176D01*
X51188616Y-46161982D01*
X51182114Y-46228000D01*
X51187000Y-46277608D01*
X51187000Y-47067392D01*
X51182114Y-47117000D01*
X51201615Y-47314994D01*
X51218942Y-47372114D01*
X51259368Y-47505379D01*
X51353153Y-47680840D01*
X51479367Y-47834633D01*
X51517905Y-47866260D01*
X51793404Y-48141760D01*
X51794147Y-48149300D01*
X51861906Y-48372674D01*
X51971942Y-48578536D01*
X52085577Y-48717000D01*
X51971942Y-48855464D01*
X51861906Y-49061326D01*
X51794147Y-49284700D01*
X51771267Y-49517000D01*
X51794147Y-49749300D01*
X51861906Y-49972674D01*
X51971942Y-50178536D01*
X52120025Y-50358975D01*
X52300464Y-50507058D01*
X52506326Y-50617094D01*
X52729700Y-50684853D01*
X52903793Y-50702000D01*
X53570207Y-50702000D01*
X53635738Y-50695546D01*
X53706150Y-50869754D01*
X53834275Y-51065119D01*
X53998052Y-51231734D01*
X54191187Y-51363196D01*
X54406258Y-51454454D01*
X54635000Y-51502000D01*
X54910000Y-51502000D01*
X54910000Y-50444000D01*
X55164000Y-50444000D01*
X55164000Y-51502000D01*
X55439000Y-51502000D01*
X55667742Y-51454454D01*
X55882813Y-51363196D01*
X56075948Y-51231734D01*
X56239725Y-51065119D01*
X56367850Y-50869754D01*
X56455399Y-50653147D01*
X56455803Y-50626744D01*
X56330361Y-50444000D01*
X55164000Y-50444000D01*
X54910000Y-50444000D01*
X54890000Y-50444000D01*
X54890000Y-50190000D01*
X54910000Y-50190000D01*
X54910000Y-50170000D01*
X55164000Y-50170000D01*
X55164000Y-50190000D01*
X56330361Y-50190000D01*
X56455803Y-50007256D01*
X56455399Y-49980853D01*
X56367850Y-49764246D01*
X56343423Y-49727000D01*
X59056392Y-49727000D01*
X59106000Y-49731886D01*
X59303994Y-49712385D01*
X59381908Y-49688750D01*
X59494380Y-49654632D01*
X59669840Y-49560847D01*
X59823633Y-49434633D01*
X59855261Y-49396094D01*
X61886356Y-47365000D01*
X62966645Y-47365000D01*
X62693901Y-47637744D01*
X62655368Y-47669367D01*
X62623745Y-47707900D01*
X62623744Y-47707901D01*
X62529154Y-47823160D01*
X62435368Y-47998621D01*
X62395866Y-48128842D01*
X62370038Y-48150038D01*
X62259595Y-48284614D01*
X62177528Y-48438150D01*
X62126992Y-48604746D01*
X62109928Y-48778000D01*
X62109928Y-50028000D01*
X62126992Y-50201254D01*
X62177528Y-50367850D01*
X62259595Y-50521386D01*
X62363000Y-50647387D01*
X62363000Y-50670129D01*
X62328820Y-50680498D01*
X62218506Y-50739463D01*
X62121815Y-50818815D01*
X62042463Y-50915506D01*
X61983498Y-51025820D01*
X61947188Y-51145518D01*
X61934928Y-51270000D01*
X61934928Y-52870000D01*
X61947188Y-52994482D01*
X61983498Y-53114180D01*
X62042463Y-53224494D01*
X62121815Y-53321185D01*
X62218506Y-53400537D01*
X62328820Y-53459502D01*
X62363000Y-53469870D01*
X62363000Y-53600000D01*
X51011692Y-53600000D01*
X51117619Y-53531176D01*
X51326857Y-53327252D01*
X51492291Y-53086426D01*
X51607563Y-52817953D01*
X51628476Y-52723890D01*
X51507155Y-52494000D01*
X49814000Y-52494000D01*
X49814000Y-52514000D01*
X49560000Y-52514000D01*
X49560000Y-52494000D01*
X49540000Y-52494000D01*
X49540000Y-52240000D01*
X49560000Y-52240000D01*
X49560000Y-50882000D01*
X49814000Y-50882000D01*
X49814000Y-52240000D01*
X51507155Y-52240000D01*
X51628476Y-52010110D01*
X51607563Y-51916047D01*
X51492291Y-51647574D01*
X51326857Y-51406748D01*
X51117619Y-51202824D01*
X50872618Y-51043639D01*
X50601269Y-50935310D01*
X50314000Y-50882000D01*
X49814000Y-50882000D01*
X49560000Y-50882000D01*
X49060000Y-50882000D01*
X48772731Y-50935310D01*
X48501382Y-51043639D01*
X48256381Y-51202824D01*
X48254000Y-51205145D01*
X48254000Y-46228855D01*
X48256381Y-46231176D01*
X48501382Y-46390361D01*
X48772731Y-46498690D01*
X49060000Y-46552000D01*
X49560000Y-46552000D01*
X49560000Y-45194000D01*
X49540000Y-45194000D01*
X49540000Y-44940000D01*
X49560000Y-44940000D01*
X49560000Y-43582000D01*
X49060000Y-43582000D01*
X48772731Y-43635310D01*
X48501382Y-43743639D01*
X48256381Y-43902824D01*
X48254000Y-43905145D01*
X48254000Y-43003508D01*
X48256795Y-43010256D01*
G36*
X60325000Y-43940886D02*
G01*
X60374608Y-43936000D01*
X62040163Y-43936000D01*
X61981091Y-44100960D01*
X62102376Y-44323000D01*
X63246000Y-44323000D01*
X63246000Y-44303000D01*
X63500000Y-44303000D01*
X63500000Y-44323000D01*
X63520000Y-44323000D01*
X63520000Y-44577000D01*
X63500000Y-44577000D01*
X63500000Y-44597000D01*
X63246000Y-44597000D01*
X63246000Y-44577000D01*
X62102376Y-44577000D01*
X61981091Y-44799040D01*
X62075930Y-45063881D01*
X62220615Y-45305131D01*
X62256769Y-45345000D01*
X61517604Y-45345000D01*
X61467999Y-45340114D01*
X61418394Y-45345000D01*
X61418392Y-45345000D01*
X61270006Y-45359615D01*
X61079620Y-45417368D01*
X60904160Y-45511153D01*
X60852000Y-45553959D01*
X60852000Y-45491061D01*
X60812226Y-45291102D01*
X60734205Y-45102744D01*
X60620937Y-44933226D01*
X60476774Y-44789063D01*
X60307256Y-44675795D01*
X60118898Y-44597774D01*
X59918939Y-44558000D01*
X59740355Y-44558000D01*
X59988089Y-44310265D01*
X60026633Y-44278633D01*
X60152847Y-44124840D01*
X60246632Y-43949380D01*
X60251407Y-43933638D01*
X60325000Y-43940886D01*
X60325000Y-43940886D01*
G37*
X60325000Y-43940886D02*
X60374608Y-43936000D01*
X62040163Y-43936000D01*
X61981091Y-44100960D01*
X62102376Y-44323000D01*
X63246000Y-44323000D01*
X63246000Y-44303000D01*
X63500000Y-44303000D01*
X63500000Y-44323000D01*
X63520000Y-44323000D01*
X63520000Y-44577000D01*
X63500000Y-44577000D01*
X63500000Y-44597000D01*
X63246000Y-44597000D01*
X63246000Y-44577000D01*
X62102376Y-44577000D01*
X61981091Y-44799040D01*
X62075930Y-45063881D01*
X62220615Y-45305131D01*
X62256769Y-45345000D01*
X61517604Y-45345000D01*
X61467999Y-45340114D01*
X61418394Y-45345000D01*
X61418392Y-45345000D01*
X61270006Y-45359615D01*
X61079620Y-45417368D01*
X60904160Y-45511153D01*
X60852000Y-45553959D01*
X60852000Y-45491061D01*
X60812226Y-45291102D01*
X60734205Y-45102744D01*
X60620937Y-44933226D01*
X60476774Y-44789063D01*
X60307256Y-44675795D01*
X60118898Y-44597774D01*
X59918939Y-44558000D01*
X59740355Y-44558000D01*
X59988089Y-44310265D01*
X60026633Y-44278633D01*
X60152847Y-44124840D01*
X60246632Y-43949380D01*
X60251407Y-43933638D01*
X60325000Y-43940886D01*
G36*
X52715000Y-36290250D02*
G01*
X52873750Y-36449000D01*
X53848000Y-36449000D01*
X53848000Y-36429000D01*
X54102000Y-36429000D01*
X54102000Y-36449000D01*
X55076250Y-36449000D01*
X55235000Y-36290250D01*
X55236190Y-36062000D01*
X60033645Y-36062000D01*
X60367240Y-36395596D01*
X60283482Y-36370188D01*
X60159000Y-36357928D01*
X58459000Y-36357928D01*
X58334518Y-36370188D01*
X58214820Y-36406498D01*
X58104506Y-36465463D01*
X58007815Y-36544815D01*
X57928463Y-36641506D01*
X57869498Y-36751820D01*
X57833188Y-36871518D01*
X57820928Y-36996000D01*
X57820928Y-38696000D01*
X57833188Y-38820482D01*
X57869498Y-38940180D01*
X57928463Y-39050494D01*
X58007815Y-39147185D01*
X58104506Y-39226537D01*
X58214820Y-39285502D01*
X58283687Y-39306393D01*
X58253866Y-39330866D01*
X58068294Y-39556986D01*
X57930401Y-39814966D01*
X57845487Y-40094889D01*
X57816815Y-40386000D01*
X57845487Y-40677111D01*
X57930401Y-40957034D01*
X58068294Y-41215014D01*
X58253866Y-41441134D01*
X58299001Y-41478175D01*
X58299001Y-41860383D01*
X58294114Y-41910000D01*
X58299000Y-41959608D01*
X58299001Y-42932000D01*
X55110514Y-42932000D01*
X55108000Y-42449750D01*
X54949250Y-42291000D01*
X53975000Y-42291000D01*
X53975000Y-42311000D01*
X53721000Y-42311000D01*
X53721000Y-42291000D01*
X52746750Y-42291000D01*
X52641312Y-42396438D01*
X52626842Y-42369368D01*
X52587557Y-42295870D01*
X52461343Y-42142077D01*
X52422809Y-42110453D01*
X52311072Y-41998716D01*
X52311072Y-41539000D01*
X52294008Y-41365746D01*
X52270728Y-41289000D01*
X52584928Y-41289000D01*
X52588000Y-41878250D01*
X52746750Y-42037000D01*
X53721000Y-42037000D01*
X53721000Y-40812750D01*
X53975000Y-40812750D01*
X53975000Y-42037000D01*
X54949250Y-42037000D01*
X55108000Y-41878250D01*
X55111072Y-41289000D01*
X55098812Y-41164518D01*
X55062502Y-41044820D01*
X55003537Y-40934506D01*
X54924185Y-40837815D01*
X54840896Y-40769462D01*
X54930185Y-40696185D01*
X55009537Y-40599494D01*
X55068502Y-40489180D01*
X55104812Y-40369482D01*
X55117072Y-40245000D01*
X55114000Y-39655750D01*
X54955250Y-39497000D01*
X53981000Y-39497000D01*
X53981000Y-40721250D01*
X54023750Y-40764000D01*
X53975000Y-40812750D01*
X53721000Y-40812750D01*
X53678250Y-40770000D01*
X53727000Y-40721250D01*
X53727000Y-39497000D01*
X52752750Y-39497000D01*
X52594000Y-39655750D01*
X52590928Y-40245000D01*
X52603188Y-40369482D01*
X52639498Y-40489180D01*
X52698463Y-40599494D01*
X52777815Y-40696185D01*
X52861104Y-40764538D01*
X52771815Y-40837815D01*
X52692463Y-40934506D01*
X52633498Y-41044820D01*
X52597188Y-41164518D01*
X52584928Y-41289000D01*
X52270728Y-41289000D01*
X52243472Y-41199150D01*
X52161405Y-41045614D01*
X52058000Y-40919614D01*
X52058000Y-40621697D01*
X52167405Y-40488386D01*
X52249472Y-40334850D01*
X52300008Y-40168254D01*
X52317072Y-39995000D01*
X52317072Y-38745000D01*
X52300008Y-38571746D01*
X52276728Y-38495000D01*
X52590928Y-38495000D01*
X52594000Y-39084250D01*
X52752750Y-39243000D01*
X53727000Y-39243000D01*
X53727000Y-38048250D01*
X53756500Y-38018750D01*
X53981000Y-38018750D01*
X53981000Y-39243000D01*
X54955250Y-39243000D01*
X55114000Y-39084250D01*
X55117072Y-38495000D01*
X55104812Y-38370518D01*
X55068502Y-38250820D01*
X55009537Y-38140506D01*
X54930185Y-38043815D01*
X54893818Y-38013969D01*
X54954494Y-37981537D01*
X55051185Y-37902185D01*
X55130537Y-37805494D01*
X55189502Y-37695180D01*
X55225812Y-37575482D01*
X55238072Y-37451000D01*
X55235000Y-36861750D01*
X55076250Y-36703000D01*
X54102000Y-36703000D01*
X54102000Y-37897750D01*
X53981000Y-38018750D01*
X53756500Y-38018750D01*
X53848000Y-37927250D01*
X53848000Y-36703000D01*
X52873750Y-36703000D01*
X52715000Y-36861750D01*
X52711928Y-37451000D01*
X52724188Y-37575482D01*
X52760498Y-37695180D01*
X52819463Y-37805494D01*
X52898815Y-37902185D01*
X52935182Y-37932031D01*
X52874506Y-37964463D01*
X52777815Y-38043815D01*
X52698463Y-38140506D01*
X52639498Y-38250820D01*
X52603188Y-38370518D01*
X52590928Y-38495000D01*
X52276728Y-38495000D01*
X52249472Y-38405150D01*
X52167405Y-38251614D01*
X52056962Y-38117038D01*
X51922386Y-38006595D01*
X51920034Y-38005338D01*
X52043386Y-37939405D01*
X52177962Y-37828962D01*
X52288405Y-37694386D01*
X52370472Y-37540850D01*
X52421008Y-37374254D01*
X52438072Y-37201000D01*
X52438072Y-36062000D01*
X52713810Y-36062000D01*
X52715000Y-36290250D01*
X52715000Y-36290250D01*
G37*
X52715000Y-36290250D02*
X52873750Y-36449000D01*
X53848000Y-36449000D01*
X53848000Y-36429000D01*
X54102000Y-36429000D01*
X54102000Y-36449000D01*
X55076250Y-36449000D01*
X55235000Y-36290250D01*
X55236190Y-36062000D01*
X60033645Y-36062000D01*
X60367240Y-36395596D01*
X60283482Y-36370188D01*
X60159000Y-36357928D01*
X58459000Y-36357928D01*
X58334518Y-36370188D01*
X58214820Y-36406498D01*
X58104506Y-36465463D01*
X58007815Y-36544815D01*
X57928463Y-36641506D01*
X57869498Y-36751820D01*
X57833188Y-36871518D01*
X57820928Y-36996000D01*
X57820928Y-38696000D01*
X57833188Y-38820482D01*
X57869498Y-38940180D01*
X57928463Y-39050494D01*
X58007815Y-39147185D01*
X58104506Y-39226537D01*
X58214820Y-39285502D01*
X58283687Y-39306393D01*
X58253866Y-39330866D01*
X58068294Y-39556986D01*
X57930401Y-39814966D01*
X57845487Y-40094889D01*
X57816815Y-40386000D01*
X57845487Y-40677111D01*
X57930401Y-40957034D01*
X58068294Y-41215014D01*
X58253866Y-41441134D01*
X58299001Y-41478175D01*
X58299001Y-41860383D01*
X58294114Y-41910000D01*
X58299000Y-41959608D01*
X58299001Y-42932000D01*
X55110514Y-42932000D01*
X55108000Y-42449750D01*
X54949250Y-42291000D01*
X53975000Y-42291000D01*
X53975000Y-42311000D01*
X53721000Y-42311000D01*
X53721000Y-42291000D01*
X52746750Y-42291000D01*
X52641312Y-42396438D01*
X52626842Y-42369368D01*
X52587557Y-42295870D01*
X52461343Y-42142077D01*
X52422809Y-42110453D01*
X52311072Y-41998716D01*
X52311072Y-41539000D01*
X52294008Y-41365746D01*
X52270728Y-41289000D01*
X52584928Y-41289000D01*
X52588000Y-41878250D01*
X52746750Y-42037000D01*
X53721000Y-42037000D01*
X53721000Y-40812750D01*
X53975000Y-40812750D01*
X53975000Y-42037000D01*
X54949250Y-42037000D01*
X55108000Y-41878250D01*
X55111072Y-41289000D01*
X55098812Y-41164518D01*
X55062502Y-41044820D01*
X55003537Y-40934506D01*
X54924185Y-40837815D01*
X54840896Y-40769462D01*
X54930185Y-40696185D01*
X55009537Y-40599494D01*
X55068502Y-40489180D01*
X55104812Y-40369482D01*
X55117072Y-40245000D01*
X55114000Y-39655750D01*
X54955250Y-39497000D01*
X53981000Y-39497000D01*
X53981000Y-40721250D01*
X54023750Y-40764000D01*
X53975000Y-40812750D01*
X53721000Y-40812750D01*
X53678250Y-40770000D01*
X53727000Y-40721250D01*
X53727000Y-39497000D01*
X52752750Y-39497000D01*
X52594000Y-39655750D01*
X52590928Y-40245000D01*
X52603188Y-40369482D01*
X52639498Y-40489180D01*
X52698463Y-40599494D01*
X52777815Y-40696185D01*
X52861104Y-40764538D01*
X52771815Y-40837815D01*
X52692463Y-40934506D01*
X52633498Y-41044820D01*
X52597188Y-41164518D01*
X52584928Y-41289000D01*
X52270728Y-41289000D01*
X52243472Y-41199150D01*
X52161405Y-41045614D01*
X52058000Y-40919614D01*
X52058000Y-40621697D01*
X52167405Y-40488386D01*
X52249472Y-40334850D01*
X52300008Y-40168254D01*
X52317072Y-39995000D01*
X52317072Y-38745000D01*
X52300008Y-38571746D01*
X52276728Y-38495000D01*
X52590928Y-38495000D01*
X52594000Y-39084250D01*
X52752750Y-39243000D01*
X53727000Y-39243000D01*
X53727000Y-38048250D01*
X53756500Y-38018750D01*
X53981000Y-38018750D01*
X53981000Y-39243000D01*
X54955250Y-39243000D01*
X55114000Y-39084250D01*
X55117072Y-38495000D01*
X55104812Y-38370518D01*
X55068502Y-38250820D01*
X55009537Y-38140506D01*
X54930185Y-38043815D01*
X54893818Y-38013969D01*
X54954494Y-37981537D01*
X55051185Y-37902185D01*
X55130537Y-37805494D01*
X55189502Y-37695180D01*
X55225812Y-37575482D01*
X55238072Y-37451000D01*
X55235000Y-36861750D01*
X55076250Y-36703000D01*
X54102000Y-36703000D01*
X54102000Y-37897750D01*
X53981000Y-38018750D01*
X53756500Y-38018750D01*
X53848000Y-37927250D01*
X53848000Y-36703000D01*
X52873750Y-36703000D01*
X52715000Y-36861750D01*
X52711928Y-37451000D01*
X52724188Y-37575482D01*
X52760498Y-37695180D01*
X52819463Y-37805494D01*
X52898815Y-37902185D01*
X52935182Y-37932031D01*
X52874506Y-37964463D01*
X52777815Y-38043815D01*
X52698463Y-38140506D01*
X52639498Y-38250820D01*
X52603188Y-38370518D01*
X52590928Y-38495000D01*
X52276728Y-38495000D01*
X52249472Y-38405150D01*
X52167405Y-38251614D01*
X52056962Y-38117038D01*
X51922386Y-38006595D01*
X51920034Y-38005338D01*
X52043386Y-37939405D01*
X52177962Y-37828962D01*
X52288405Y-37694386D01*
X52370472Y-37540850D01*
X52421008Y-37374254D01*
X52438072Y-37201000D01*
X52438072Y-36062000D01*
X52713810Y-36062000D01*
X52715000Y-36290250D01*
G36*
X84207000Y-37121356D02*
G01*
X84207000Y-38021951D01*
X84147655Y-38070655D01*
X83959583Y-38299822D01*
X83947000Y-38323363D01*
X83934417Y-38299821D01*
X83746345Y-38070655D01*
X83517178Y-37882583D01*
X83255724Y-37742834D01*
X82972031Y-37656776D01*
X82677000Y-37627718D01*
X82381968Y-37656776D01*
X82098275Y-37742834D01*
X81836821Y-37882583D01*
X81607655Y-38070655D01*
X81419583Y-38299822D01*
X81407000Y-38323363D01*
X81394417Y-38299821D01*
X81206345Y-38070655D01*
X80977178Y-37882583D01*
X80715724Y-37742834D01*
X80432031Y-37656776D01*
X80137000Y-37627718D01*
X79841968Y-37656776D01*
X79558275Y-37742834D01*
X79296821Y-37882583D01*
X79069615Y-38069047D01*
X79056502Y-38025820D01*
X78997537Y-37915506D01*
X78918185Y-37818815D01*
X78821494Y-37739463D01*
X78711180Y-37680498D01*
X78591482Y-37644188D01*
X78467000Y-37631928D01*
X77882750Y-37635000D01*
X77724000Y-37793750D01*
X77724000Y-39243000D01*
X77744000Y-39243000D01*
X77744000Y-39497000D01*
X77724000Y-39497000D01*
X77724000Y-40946250D01*
X77882750Y-41105000D01*
X78467000Y-41108072D01*
X78591482Y-41095812D01*
X78711180Y-41059502D01*
X78821494Y-41000537D01*
X78918185Y-40921185D01*
X78997537Y-40824494D01*
X79056502Y-40714180D01*
X79069615Y-40670953D01*
X79127000Y-40718048D01*
X79127000Y-41535000D01*
X75509564Y-41535000D01*
X75531405Y-41508386D01*
X75613472Y-41354850D01*
X75664008Y-41188254D01*
X75681072Y-41015000D01*
X75681072Y-40470000D01*
X76088928Y-40470000D01*
X76101188Y-40594482D01*
X76137498Y-40714180D01*
X76196463Y-40824494D01*
X76275815Y-40921185D01*
X76372506Y-41000537D01*
X76482820Y-41059502D01*
X76602518Y-41095812D01*
X76727000Y-41108072D01*
X77311250Y-41105000D01*
X77470000Y-40946250D01*
X77470000Y-39497000D01*
X76250750Y-39497000D01*
X76092000Y-39655750D01*
X76088928Y-40470000D01*
X75681072Y-40470000D01*
X75681072Y-40265000D01*
X75664008Y-40091746D01*
X75613472Y-39925150D01*
X75531405Y-39771614D01*
X75420962Y-39637038D01*
X75286386Y-39526595D01*
X75132850Y-39444528D01*
X74966254Y-39393992D01*
X74793000Y-39376928D01*
X74034335Y-39376928D01*
X74043839Y-39371848D01*
X74197632Y-39245634D01*
X74229260Y-39207095D01*
X74333283Y-39103072D01*
X74793000Y-39103072D01*
X74966254Y-39086008D01*
X75132850Y-39035472D01*
X75286386Y-38953405D01*
X75420962Y-38842962D01*
X75531405Y-38708386D01*
X75613472Y-38554850D01*
X75664008Y-38388254D01*
X75675654Y-38270000D01*
X76088928Y-38270000D01*
X76092000Y-39084250D01*
X76250750Y-39243000D01*
X77470000Y-39243000D01*
X77470000Y-37793750D01*
X77311250Y-37635000D01*
X76727000Y-37631928D01*
X76602518Y-37644188D01*
X76482820Y-37680498D01*
X76372506Y-37739463D01*
X76275815Y-37818815D01*
X76196463Y-37915506D01*
X76137498Y-38025820D01*
X76101188Y-38145518D01*
X76088928Y-38270000D01*
X75675654Y-38270000D01*
X75681072Y-38215000D01*
X75681072Y-37465000D01*
X75664008Y-37291746D01*
X75613472Y-37125150D01*
X75531405Y-36971614D01*
X75420962Y-36837038D01*
X75286386Y-36726595D01*
X75231018Y-36697000D01*
X83782645Y-36697000D01*
X84207000Y-37121356D01*
X84207000Y-37121356D01*
G37*
X84207000Y-37121356D02*
X84207000Y-38021951D01*
X84147655Y-38070655D01*
X83959583Y-38299822D01*
X83947000Y-38323363D01*
X83934417Y-38299821D01*
X83746345Y-38070655D01*
X83517178Y-37882583D01*
X83255724Y-37742834D01*
X82972031Y-37656776D01*
X82677000Y-37627718D01*
X82381968Y-37656776D01*
X82098275Y-37742834D01*
X81836821Y-37882583D01*
X81607655Y-38070655D01*
X81419583Y-38299822D01*
X81407000Y-38323363D01*
X81394417Y-38299821D01*
X81206345Y-38070655D01*
X80977178Y-37882583D01*
X80715724Y-37742834D01*
X80432031Y-37656776D01*
X80137000Y-37627718D01*
X79841968Y-37656776D01*
X79558275Y-37742834D01*
X79296821Y-37882583D01*
X79069615Y-38069047D01*
X79056502Y-38025820D01*
X78997537Y-37915506D01*
X78918185Y-37818815D01*
X78821494Y-37739463D01*
X78711180Y-37680498D01*
X78591482Y-37644188D01*
X78467000Y-37631928D01*
X77882750Y-37635000D01*
X77724000Y-37793750D01*
X77724000Y-39243000D01*
X77744000Y-39243000D01*
X77744000Y-39497000D01*
X77724000Y-39497000D01*
X77724000Y-40946250D01*
X77882750Y-41105000D01*
X78467000Y-41108072D01*
X78591482Y-41095812D01*
X78711180Y-41059502D01*
X78821494Y-41000537D01*
X78918185Y-40921185D01*
X78997537Y-40824494D01*
X79056502Y-40714180D01*
X79069615Y-40670953D01*
X79127000Y-40718048D01*
X79127000Y-41535000D01*
X75509564Y-41535000D01*
X75531405Y-41508386D01*
X75613472Y-41354850D01*
X75664008Y-41188254D01*
X75681072Y-41015000D01*
X75681072Y-40470000D01*
X76088928Y-40470000D01*
X76101188Y-40594482D01*
X76137498Y-40714180D01*
X76196463Y-40824494D01*
X76275815Y-40921185D01*
X76372506Y-41000537D01*
X76482820Y-41059502D01*
X76602518Y-41095812D01*
X76727000Y-41108072D01*
X77311250Y-41105000D01*
X77470000Y-40946250D01*
X77470000Y-39497000D01*
X76250750Y-39497000D01*
X76092000Y-39655750D01*
X76088928Y-40470000D01*
X75681072Y-40470000D01*
X75681072Y-40265000D01*
X75664008Y-40091746D01*
X75613472Y-39925150D01*
X75531405Y-39771614D01*
X75420962Y-39637038D01*
X75286386Y-39526595D01*
X75132850Y-39444528D01*
X74966254Y-39393992D01*
X74793000Y-39376928D01*
X74034335Y-39376928D01*
X74043839Y-39371848D01*
X74197632Y-39245634D01*
X74229260Y-39207095D01*
X74333283Y-39103072D01*
X74793000Y-39103072D01*
X74966254Y-39086008D01*
X75132850Y-39035472D01*
X75286386Y-38953405D01*
X75420962Y-38842962D01*
X75531405Y-38708386D01*
X75613472Y-38554850D01*
X75664008Y-38388254D01*
X75675654Y-38270000D01*
X76088928Y-38270000D01*
X76092000Y-39084250D01*
X76250750Y-39243000D01*
X77470000Y-39243000D01*
X77470000Y-37793750D01*
X77311250Y-37635000D01*
X76727000Y-37631928D01*
X76602518Y-37644188D01*
X76482820Y-37680498D01*
X76372506Y-37739463D01*
X76275815Y-37818815D01*
X76196463Y-37915506D01*
X76137498Y-38025820D01*
X76101188Y-38145518D01*
X76088928Y-38270000D01*
X75675654Y-38270000D01*
X75681072Y-38215000D01*
X75681072Y-37465000D01*
X75664008Y-37291746D01*
X75613472Y-37125150D01*
X75531405Y-36971614D01*
X75420962Y-36837038D01*
X75286386Y-36726595D01*
X75231018Y-36697000D01*
X83782645Y-36697000D01*
X84207000Y-37121356D01*
M02*
