G04 #@! TF.GenerationSoftware,KiCad,Pcbnew,5.1.2-f72e74a~84~ubuntu18.04.1*
G04 #@! TF.CreationDate,2021-05-31T02:13:38+02:00*
G04 #@! TF.ProjectId,USB_I2C_Iface,5553425f-4932-4435-9f49-666163652e6b,rev?*
G04 #@! TF.SameCoordinates,Original*
G04 #@! TF.FileFunction,Legend,Top*
G04 #@! TF.FilePolarity,Positive*
%FSLAX46Y46*%
G04 Gerber Fmt 4.6, Leading zero omitted, Abs format (unit mm)*
G04 Created by KiCad (PCBNEW 5.1.2-f72e74a~84~ubuntu18.04.1) date 2021-05-31 02:13:38*
%MOMM*%
%LPD*%
G04 APERTURE LIST*
%ADD10C,0.125000*%
%ADD11C,0.150000*%
%ADD12C,0.200000*%
%ADD13C,0.100000*%
%ADD14C,0.120000*%
%ADD15C,0.254000*%
G04 APERTURE END LIST*
D10*
X72080428Y-56761000D02*
X72080428Y-56380047D01*
X71794714Y-56141952D02*
X72080428Y-55761000D01*
X72366142Y-56141952D01*
X77652571Y-55761000D02*
X77652571Y-56141952D01*
X77938285Y-56380047D02*
X77652571Y-56761000D01*
X77366857Y-56380047D01*
D11*
X75565095Y-55840380D02*
X76136523Y-55840380D01*
X75850809Y-56840380D02*
X75850809Y-55840380D01*
X76374619Y-55840380D02*
X77041285Y-56840380D01*
X77041285Y-55840380D02*
X76374619Y-56840380D01*
X73239333Y-56840380D02*
X72906000Y-56364190D01*
X72667904Y-56840380D02*
X72667904Y-55840380D01*
X73048857Y-55840380D01*
X73144095Y-55888000D01*
X73191714Y-55935619D01*
X73239333Y-56030857D01*
X73239333Y-56173714D01*
X73191714Y-56268952D01*
X73144095Y-56316571D01*
X73048857Y-56364190D01*
X72667904Y-56364190D01*
X73572666Y-55840380D02*
X74239333Y-56840380D01*
X74239333Y-55840380D02*
X73572666Y-56840380D01*
X87025370Y-54888522D02*
X86924355Y-54922194D01*
X86823339Y-55023209D01*
X86755996Y-55157896D01*
X86755996Y-55292583D01*
X86789668Y-55393599D01*
X86890683Y-55561957D01*
X86991698Y-55662973D01*
X87160057Y-55763988D01*
X87261072Y-55797660D01*
X87395759Y-55797660D01*
X87530446Y-55730316D01*
X87597790Y-55662973D01*
X87665133Y-55528286D01*
X87665133Y-55460942D01*
X87429431Y-55225240D01*
X87294744Y-55359927D01*
X88035522Y-55225240D02*
X87328416Y-54518133D01*
X87597790Y-54248759D01*
X87698805Y-54215087D01*
X87766148Y-54215087D01*
X87867164Y-54248759D01*
X87968179Y-54349774D01*
X88001851Y-54450790D01*
X88001851Y-54518133D01*
X87968179Y-54619148D01*
X87698805Y-54888522D01*
X88069194Y-53912042D02*
X88069194Y-53844698D01*
X88102866Y-53743683D01*
X88271225Y-53575324D01*
X88372240Y-53541652D01*
X88439583Y-53541652D01*
X88540599Y-53575324D01*
X88607942Y-53642668D01*
X88675286Y-53777355D01*
X88675286Y-54585477D01*
X89113018Y-54147744D01*
X84358370Y-54888522D02*
X84257355Y-54922194D01*
X84156339Y-55023209D01*
X84088996Y-55157896D01*
X84088996Y-55292583D01*
X84122668Y-55393599D01*
X84223683Y-55561957D01*
X84324698Y-55662973D01*
X84493057Y-55763988D01*
X84594072Y-55797660D01*
X84728759Y-55797660D01*
X84863446Y-55730316D01*
X84930790Y-55662973D01*
X84998133Y-55528286D01*
X84998133Y-55460942D01*
X84762431Y-55225240D01*
X84627744Y-55359927D01*
X85368522Y-55225240D02*
X84661416Y-54518133D01*
X84930790Y-54248759D01*
X85031805Y-54215087D01*
X85099148Y-54215087D01*
X85200164Y-54248759D01*
X85301179Y-54349774D01*
X85334851Y-54450790D01*
X85334851Y-54518133D01*
X85301179Y-54619148D01*
X85031805Y-54888522D01*
X86446018Y-54147744D02*
X86041957Y-54551805D01*
X86243988Y-54349774D02*
X85536881Y-53642668D01*
X85570553Y-53811026D01*
X85570553Y-53945713D01*
X85536881Y-54046729D01*
X81818370Y-54888522D02*
X81717355Y-54922194D01*
X81616339Y-55023209D01*
X81548996Y-55157896D01*
X81548996Y-55292583D01*
X81582668Y-55393599D01*
X81683683Y-55561957D01*
X81784698Y-55662973D01*
X81953057Y-55763988D01*
X82054072Y-55797660D01*
X82188759Y-55797660D01*
X82323446Y-55730316D01*
X82390790Y-55662973D01*
X82458133Y-55528286D01*
X82458133Y-55460942D01*
X82222431Y-55225240D01*
X82087744Y-55359927D01*
X82828522Y-55225240D02*
X82121416Y-54518133D01*
X82390790Y-54248759D01*
X82491805Y-54215087D01*
X82559148Y-54215087D01*
X82660164Y-54248759D01*
X82761179Y-54349774D01*
X82794851Y-54450790D01*
X82794851Y-54518133D01*
X82761179Y-54619148D01*
X82491805Y-54888522D01*
X82963209Y-53676339D02*
X83030553Y-53608996D01*
X83131568Y-53575324D01*
X83198912Y-53575324D01*
X83299927Y-53608996D01*
X83468286Y-53710011D01*
X83636644Y-53878370D01*
X83737660Y-54046729D01*
X83771331Y-54147744D01*
X83771331Y-54215087D01*
X83737660Y-54316103D01*
X83670316Y-54383446D01*
X83569301Y-54417118D01*
X83501957Y-54417118D01*
X83400942Y-54383446D01*
X83232583Y-54282431D01*
X83064225Y-54114072D01*
X82963209Y-53945713D01*
X82929538Y-53844698D01*
X82929538Y-53777355D01*
X82963209Y-53676339D01*
X89531698Y-54922194D02*
X89430683Y-54955866D01*
X89329668Y-55056881D01*
X89262324Y-55191568D01*
X89262324Y-55326255D01*
X89295996Y-55427270D01*
X89397011Y-55595629D01*
X89498026Y-55696644D01*
X89666385Y-55797660D01*
X89767400Y-55831331D01*
X89902087Y-55831331D01*
X90036774Y-55763988D01*
X90104118Y-55696644D01*
X90171461Y-55561957D01*
X90171461Y-55494614D01*
X89935759Y-55258912D01*
X89801072Y-55393599D01*
X90541851Y-55258912D02*
X89834744Y-54551805D01*
X90945912Y-54854851D01*
X90238805Y-54147744D01*
X91282629Y-54518133D02*
X90575522Y-53811026D01*
X90743881Y-53642668D01*
X90878568Y-53575324D01*
X91013255Y-53575324D01*
X91114270Y-53608996D01*
X91282629Y-53710011D01*
X91383644Y-53811026D01*
X91484660Y-53979385D01*
X91518331Y-54080400D01*
X91518331Y-54215087D01*
X91450988Y-54349774D01*
X91282629Y-54518133D01*
X84993370Y-35884644D02*
X85532118Y-35345896D01*
X85532118Y-35884644D02*
X84993370Y-35345896D01*
X85767820Y-34234729D02*
X85431103Y-34571446D01*
X85734148Y-34941835D01*
X85734148Y-34874492D01*
X85767820Y-34773477D01*
X85936179Y-34605118D01*
X86037194Y-34571446D01*
X86104538Y-34571446D01*
X86205553Y-34605118D01*
X86373912Y-34773477D01*
X86407583Y-34874492D01*
X86407583Y-34941835D01*
X86373912Y-35042851D01*
X86205553Y-35211209D01*
X86104538Y-35244881D01*
X86037194Y-35244881D01*
X86003522Y-33999026D02*
X86946331Y-34470431D01*
X86474927Y-33527622D01*
X82739580Y-36069839D02*
X82874267Y-36002496D01*
X83042625Y-35834137D01*
X83076297Y-35733122D01*
X83076297Y-35665778D01*
X83042625Y-35564763D01*
X82975282Y-35497419D01*
X82874267Y-35463748D01*
X82806923Y-35463748D01*
X82705908Y-35497419D01*
X82537549Y-35598435D01*
X82436534Y-35632106D01*
X82369190Y-35632106D01*
X82268175Y-35598435D01*
X82200832Y-35531091D01*
X82167160Y-35430076D01*
X82167160Y-35362732D01*
X82200832Y-35261717D01*
X82369190Y-35093358D01*
X82503877Y-35026015D01*
X83480358Y-35396404D02*
X82773251Y-34689297D01*
X82941610Y-34520938D01*
X83076297Y-34453595D01*
X83210984Y-34453595D01*
X83312000Y-34487267D01*
X83480358Y-34588282D01*
X83581374Y-34689297D01*
X83682389Y-34857656D01*
X83716061Y-34958671D01*
X83716061Y-35093358D01*
X83648717Y-35228045D01*
X83480358Y-35396404D01*
X83951763Y-34520938D02*
X84288480Y-34184221D01*
X84086450Y-34790312D02*
X83615045Y-33847503D01*
X84557854Y-34318908D01*
X80216416Y-36053003D02*
X80351103Y-35985660D01*
X80519461Y-35817301D01*
X80553133Y-35716286D01*
X80553133Y-35648942D01*
X80519461Y-35547927D01*
X80452118Y-35480583D01*
X80351103Y-35446912D01*
X80283759Y-35446912D01*
X80182744Y-35480583D01*
X80014385Y-35581599D01*
X79913370Y-35615270D01*
X79846026Y-35615270D01*
X79745011Y-35581599D01*
X79677668Y-35514255D01*
X79643996Y-35413240D01*
X79643996Y-35345896D01*
X79677668Y-35244881D01*
X79846026Y-35076522D01*
X79980713Y-35009179D01*
X81293912Y-34908164D02*
X81293912Y-34975507D01*
X81226568Y-35110194D01*
X81159225Y-35177538D01*
X81024538Y-35244881D01*
X80889851Y-35244881D01*
X80788835Y-35211209D01*
X80620477Y-35110194D01*
X80519461Y-35009179D01*
X80418446Y-34840820D01*
X80384774Y-34739805D01*
X80384774Y-34605118D01*
X80452118Y-34470431D01*
X80519461Y-34403087D01*
X80654148Y-34335744D01*
X80721492Y-34335744D01*
X82001018Y-34335744D02*
X81664301Y-34672461D01*
X80957194Y-33965355D01*
X77212698Y-34983194D02*
X77111683Y-35016866D01*
X77010668Y-35117881D01*
X76943324Y-35252568D01*
X76943324Y-35387255D01*
X76976996Y-35488270D01*
X77078011Y-35656629D01*
X77179026Y-35757644D01*
X77347385Y-35858660D01*
X77448400Y-35892331D01*
X77583087Y-35892331D01*
X77717774Y-35824988D01*
X77785118Y-35757644D01*
X77852461Y-35622957D01*
X77852461Y-35555614D01*
X77616759Y-35319912D01*
X77482072Y-35454599D01*
X78222851Y-35319912D02*
X77515744Y-34612805D01*
X78626912Y-34915851D01*
X77919805Y-34208744D01*
X78963629Y-34579133D02*
X78256522Y-33872026D01*
X78424881Y-33703668D01*
X78559568Y-33636324D01*
X78694255Y-33636324D01*
X78795270Y-33669996D01*
X78963629Y-33771011D01*
X79064644Y-33872026D01*
X79165660Y-34040385D01*
X79199331Y-34141400D01*
X79199331Y-34276087D01*
X79131988Y-34410774D01*
X78963629Y-34579133D01*
X97242380Y-54513809D02*
X98051904Y-54513809D01*
X98147142Y-54466190D01*
X98194761Y-54418571D01*
X98242380Y-54323333D01*
X98242380Y-54132857D01*
X98194761Y-54037619D01*
X98147142Y-53990000D01*
X98051904Y-53942380D01*
X97242380Y-53942380D01*
X98194761Y-53513809D02*
X98242380Y-53370952D01*
X98242380Y-53132857D01*
X98194761Y-53037619D01*
X98147142Y-52990000D01*
X98051904Y-52942380D01*
X97956666Y-52942380D01*
X97861428Y-52990000D01*
X97813809Y-53037619D01*
X97766190Y-53132857D01*
X97718571Y-53323333D01*
X97670952Y-53418571D01*
X97623333Y-53466190D01*
X97528095Y-53513809D01*
X97432857Y-53513809D01*
X97337619Y-53466190D01*
X97290000Y-53418571D01*
X97242380Y-53323333D01*
X97242380Y-53085238D01*
X97290000Y-52942380D01*
X97718571Y-52180476D02*
X97766190Y-52037619D01*
X97813809Y-51990000D01*
X97909047Y-51942380D01*
X98051904Y-51942380D01*
X98147142Y-51990000D01*
X98194761Y-52037619D01*
X98242380Y-52132857D01*
X98242380Y-52513809D01*
X97242380Y-52513809D01*
X97242380Y-52180476D01*
X97290000Y-52085238D01*
X97337619Y-52037619D01*
X97432857Y-51990000D01*
X97528095Y-51990000D01*
X97623333Y-52037619D01*
X97670952Y-52085238D01*
X97718571Y-52180476D01*
X97718571Y-52513809D01*
X97861428Y-51513809D02*
X97861428Y-50751904D01*
X98242380Y-50275714D02*
X97242380Y-50275714D01*
X97337619Y-49847142D02*
X97290000Y-49799523D01*
X97242380Y-49704285D01*
X97242380Y-49466190D01*
X97290000Y-49370952D01*
X97337619Y-49323333D01*
X97432857Y-49275714D01*
X97528095Y-49275714D01*
X97670952Y-49323333D01*
X98242380Y-49894761D01*
X98242380Y-49275714D01*
X98147142Y-48275714D02*
X98194761Y-48323333D01*
X98242380Y-48466190D01*
X98242380Y-48561428D01*
X98194761Y-48704285D01*
X98099523Y-48799523D01*
X98004285Y-48847142D01*
X97813809Y-48894761D01*
X97670952Y-48894761D01*
X97480476Y-48847142D01*
X97385238Y-48799523D01*
X97290000Y-48704285D01*
X97242380Y-48561428D01*
X97242380Y-48466190D01*
X97290000Y-48323333D01*
X97337619Y-48275714D01*
X98242380Y-47085238D02*
X97242380Y-47085238D01*
X97718571Y-46275714D02*
X97718571Y-46609047D01*
X98242380Y-46609047D02*
X97242380Y-46609047D01*
X97242380Y-46132857D01*
X97956666Y-45799523D02*
X97956666Y-45323333D01*
X98242380Y-45894761D02*
X97242380Y-45561428D01*
X98242380Y-45228095D01*
X98147142Y-44323333D02*
X98194761Y-44370952D01*
X98242380Y-44513809D01*
X98242380Y-44609047D01*
X98194761Y-44751904D01*
X98099523Y-44847142D01*
X98004285Y-44894761D01*
X97813809Y-44942380D01*
X97670952Y-44942380D01*
X97480476Y-44894761D01*
X97385238Y-44847142D01*
X97290000Y-44751904D01*
X97242380Y-44609047D01*
X97242380Y-44513809D01*
X97290000Y-44370952D01*
X97337619Y-44323333D01*
X97718571Y-43894761D02*
X97718571Y-43561428D01*
X98242380Y-43418571D02*
X98242380Y-43894761D01*
X97242380Y-43894761D01*
X97242380Y-43418571D01*
X97242380Y-42370952D02*
X98242380Y-42037619D01*
X97242380Y-41704285D01*
X98242380Y-40847142D02*
X98242380Y-41418571D01*
X98242380Y-41132857D02*
X97242380Y-41132857D01*
X97385238Y-41228095D01*
X97480476Y-41323333D01*
X97528095Y-41418571D01*
X98147142Y-40418571D02*
X98194761Y-40370952D01*
X98242380Y-40418571D01*
X98194761Y-40466190D01*
X98147142Y-40418571D01*
X98242380Y-40418571D01*
X97242380Y-39751904D02*
X97242380Y-39656666D01*
X97290000Y-39561428D01*
X97337619Y-39513809D01*
X97432857Y-39466190D01*
X97623333Y-39418571D01*
X97861428Y-39418571D01*
X98051904Y-39466190D01*
X98147142Y-39513809D01*
X98194761Y-39561428D01*
X98242380Y-39656666D01*
X98242380Y-39751904D01*
X98194761Y-39847142D01*
X98147142Y-39894761D01*
X98051904Y-39942380D01*
X97861428Y-39990000D01*
X97623333Y-39990000D01*
X97432857Y-39942380D01*
X97337619Y-39894761D01*
X97290000Y-39847142D01*
X97242380Y-39751904D01*
D12*
X57380476Y-33869380D02*
X56904285Y-33869380D01*
X56856666Y-34345571D01*
X56904285Y-34297952D01*
X56999523Y-34250333D01*
X57237619Y-34250333D01*
X57332857Y-34297952D01*
X57380476Y-34345571D01*
X57428095Y-34440809D01*
X57428095Y-34678904D01*
X57380476Y-34774142D01*
X57332857Y-34821761D01*
X57237619Y-34869380D01*
X56999523Y-34869380D01*
X56904285Y-34821761D01*
X56856666Y-34774142D01*
X57713809Y-33869380D02*
X58047142Y-34869380D01*
X58380476Y-33869380D01*
X58713809Y-34345571D02*
X59475714Y-34345571D01*
X59475714Y-34631285D02*
X58713809Y-34631285D01*
X59951904Y-33869380D02*
X59951904Y-34678904D01*
X59999523Y-34774142D01*
X60047142Y-34821761D01*
X60142380Y-34869380D01*
X60332857Y-34869380D01*
X60428095Y-34821761D01*
X60475714Y-34774142D01*
X60523333Y-34678904D01*
X60523333Y-33869380D01*
X60951904Y-34821761D02*
X61094761Y-34869380D01*
X61332857Y-34869380D01*
X61428095Y-34821761D01*
X61475714Y-34774142D01*
X61523333Y-34678904D01*
X61523333Y-34583666D01*
X61475714Y-34488428D01*
X61428095Y-34440809D01*
X61332857Y-34393190D01*
X61142380Y-34345571D01*
X61047142Y-34297952D01*
X60999523Y-34250333D01*
X60951904Y-34155095D01*
X60951904Y-34059857D01*
X60999523Y-33964619D01*
X61047142Y-33917000D01*
X61142380Y-33869380D01*
X61380476Y-33869380D01*
X61523333Y-33917000D01*
X62285238Y-34345571D02*
X62428095Y-34393190D01*
X62475714Y-34440809D01*
X62523333Y-34536047D01*
X62523333Y-34678904D01*
X62475714Y-34774142D01*
X62428095Y-34821761D01*
X62332857Y-34869380D01*
X61951904Y-34869380D01*
X61951904Y-33869380D01*
X62285238Y-33869380D01*
X62380476Y-33917000D01*
X62428095Y-33964619D01*
X62475714Y-34059857D01*
X62475714Y-34155095D01*
X62428095Y-34250333D01*
X62380476Y-34297952D01*
X62285238Y-34345571D01*
X61951904Y-34345571D01*
X64746761Y-34996380D02*
X64746761Y-33996380D01*
X65127714Y-33996380D01*
X65222952Y-34044000D01*
X65270571Y-34091619D01*
X65318190Y-34186857D01*
X65318190Y-34329714D01*
X65270571Y-34424952D01*
X65222952Y-34472571D01*
X65127714Y-34520190D01*
X64746761Y-34520190D01*
X66175333Y-34329714D02*
X66175333Y-34996380D01*
X65746761Y-34329714D02*
X65746761Y-34853523D01*
X65794380Y-34948761D01*
X65889619Y-34996380D01*
X66032476Y-34996380D01*
X66127714Y-34948761D01*
X66175333Y-34901142D01*
X66794380Y-34996380D02*
X66699142Y-34948761D01*
X66651523Y-34853523D01*
X66651523Y-33996380D01*
X67318190Y-34996380D02*
X67222952Y-34948761D01*
X67175333Y-34853523D01*
X67175333Y-33996380D01*
X67651523Y-34948761D02*
X67746761Y-34996380D01*
X67937238Y-34996380D01*
X68032476Y-34948761D01*
X68080095Y-34853523D01*
X68080095Y-34805904D01*
X68032476Y-34710666D01*
X67937238Y-34663047D01*
X67794380Y-34663047D01*
X67699142Y-34615428D01*
X67651523Y-34520190D01*
X67651523Y-34472571D01*
X67699142Y-34377333D01*
X67794380Y-34329714D01*
X67937238Y-34329714D01*
X68032476Y-34377333D01*
X69270571Y-33996380D02*
X69270571Y-34805904D01*
X69318190Y-34901142D01*
X69365809Y-34948761D01*
X69461047Y-34996380D01*
X69651523Y-34996380D01*
X69746761Y-34948761D01*
X69794380Y-34901142D01*
X69842000Y-34805904D01*
X69842000Y-33996380D01*
X70318190Y-34329714D02*
X70318190Y-35329714D01*
X70318190Y-34377333D02*
X70413428Y-34329714D01*
X70603904Y-34329714D01*
X70699142Y-34377333D01*
X70746761Y-34424952D01*
X70794380Y-34520190D01*
X70794380Y-34805904D01*
X70746761Y-34901142D01*
X70699142Y-34948761D01*
X70603904Y-34996380D01*
X70413428Y-34996380D01*
X70318190Y-34948761D01*
X71984857Y-34996380D02*
X71984857Y-33996380D01*
X72413428Y-34091619D02*
X72461047Y-34044000D01*
X72556285Y-33996380D01*
X72794380Y-33996380D01*
X72889619Y-34044000D01*
X72937238Y-34091619D01*
X72984857Y-34186857D01*
X72984857Y-34282095D01*
X72937238Y-34424952D01*
X72365809Y-34996380D01*
X72984857Y-34996380D01*
X73984857Y-34901142D02*
X73937238Y-34948761D01*
X73794380Y-34996380D01*
X73699142Y-34996380D01*
X73556285Y-34948761D01*
X73461047Y-34853523D01*
X73413428Y-34758285D01*
X73365809Y-34567809D01*
X73365809Y-34424952D01*
X73413428Y-34234476D01*
X73461047Y-34139238D01*
X73556285Y-34044000D01*
X73699142Y-33996380D01*
X73794380Y-33996380D01*
X73937238Y-34044000D01*
X73984857Y-34091619D01*
X55853000Y-46101000D02*
G75*
G02X55653000Y-46101000I-100000J0D01*
G01*
X55653000Y-46101000D02*
G75*
G02X55853000Y-46101000I100000J0D01*
G01*
D13*
X54937000Y-52567000D02*
X54937000Y-51467000D01*
X54937000Y-52567000D02*
X54937000Y-52567000D01*
X54937000Y-51467000D02*
X54937000Y-52567000D01*
X54937000Y-51467000D02*
X54937000Y-51467000D01*
X54937000Y-45967000D02*
X54937000Y-44867000D01*
X54937000Y-45967000D02*
X54937000Y-45967000D01*
X54937000Y-44867000D02*
X54937000Y-45967000D01*
X54937000Y-44867000D02*
X54937000Y-44867000D01*
X45937000Y-44867000D02*
X45937000Y-52567000D01*
X45937000Y-44867000D02*
X45937000Y-44867000D01*
X45937000Y-52567000D02*
X45937000Y-44867000D01*
X45937000Y-52567000D02*
X45937000Y-52567000D01*
X54937000Y-52567000D02*
X54937000Y-52567000D01*
X52037000Y-52567000D02*
X54937000Y-52567000D01*
X52037000Y-52567000D02*
X52037000Y-52567000D01*
X54937000Y-52567000D02*
X52037000Y-52567000D01*
X52037000Y-44867000D02*
X52037000Y-44867000D01*
X54937000Y-44867000D02*
X52037000Y-44867000D01*
X54937000Y-44867000D02*
X54937000Y-44867000D01*
X52037000Y-44867000D02*
X54937000Y-44867000D01*
X45937000Y-44867000D02*
X45937000Y-44867000D01*
X47287000Y-44867000D02*
X45937000Y-44867000D01*
X47287000Y-44867000D02*
X47287000Y-44867000D01*
X45937000Y-44867000D02*
X47287000Y-44867000D01*
X47287000Y-52567000D02*
X47287000Y-52567000D01*
X45937000Y-52567000D02*
X47287000Y-52567000D01*
X45937000Y-52567000D02*
X45937000Y-52567000D01*
X47287000Y-52567000D02*
X45937000Y-52567000D01*
D14*
X89313936Y-36809000D02*
X90518064Y-36809000D01*
X89313936Y-38629000D02*
X90518064Y-38629000D01*
X74483000Y-54483000D02*
G75*
G03X74483000Y-54483000I-950000J0D01*
G01*
X77150000Y-54483000D02*
G75*
G03X77150000Y-54483000I-950000J0D01*
G01*
X82512000Y-52722000D02*
X82512000Y-53322000D01*
X84112000Y-52722000D02*
X82512000Y-52722000D01*
X84112000Y-53322000D02*
X84112000Y-52722000D01*
X85052000Y-52722000D02*
X85052000Y-53322000D01*
X86652000Y-52722000D02*
X85052000Y-52722000D01*
X86652000Y-53322000D02*
X86652000Y-52722000D01*
X87592000Y-52722000D02*
X87592000Y-53322000D01*
X89192000Y-52722000D02*
X87592000Y-52722000D01*
X89192000Y-53322000D02*
X89192000Y-52722000D01*
X90132000Y-52722000D02*
X90132000Y-53322000D01*
X91732000Y-52722000D02*
X90132000Y-52722000D01*
X91732000Y-53322000D02*
X91732000Y-52722000D01*
X83562000Y-47302000D02*
X83562000Y-48302000D01*
X90682000Y-47302000D02*
X90682000Y-48302000D01*
X83562000Y-48832000D02*
X83312000Y-48302000D01*
X90682000Y-48832000D02*
X83562000Y-48832000D01*
X90932000Y-48302000D02*
X90682000Y-48832000D01*
X83312000Y-48302000D02*
X83312000Y-47302000D01*
X90932000Y-48302000D02*
X83312000Y-48302000D01*
X90932000Y-47302000D02*
X90932000Y-48302000D01*
X92602000Y-52292000D02*
X92602000Y-48292000D01*
X81932000Y-53322000D02*
X92312000Y-53322000D01*
X81932000Y-47302000D02*
X81932000Y-53322000D01*
X92312000Y-47302000D02*
X81932000Y-47302000D01*
X92312000Y-53322000D02*
X92312000Y-47302000D01*
X76217000Y-36340000D02*
X76217000Y-42360000D01*
X76217000Y-42360000D02*
X86597000Y-42360000D01*
X86597000Y-42360000D02*
X86597000Y-36340000D01*
X86597000Y-36340000D02*
X76217000Y-36340000D01*
X75927000Y-37370000D02*
X75927000Y-41370000D01*
X77597000Y-42360000D02*
X77597000Y-41360000D01*
X77597000Y-41360000D02*
X85217000Y-41360000D01*
X85217000Y-41360000D02*
X85217000Y-42360000D01*
X77597000Y-41360000D02*
X77847000Y-40830000D01*
X77847000Y-40830000D02*
X84967000Y-40830000D01*
X84967000Y-40830000D02*
X85217000Y-41360000D01*
X77847000Y-42360000D02*
X77847000Y-41360000D01*
X84967000Y-42360000D02*
X84967000Y-41360000D01*
X76797000Y-36340000D02*
X76797000Y-36940000D01*
X76797000Y-36940000D02*
X78397000Y-36940000D01*
X78397000Y-36940000D02*
X78397000Y-36340000D01*
X79337000Y-36340000D02*
X79337000Y-36940000D01*
X79337000Y-36940000D02*
X80937000Y-36940000D01*
X80937000Y-36940000D02*
X80937000Y-36340000D01*
X81877000Y-36340000D02*
X81877000Y-36940000D01*
X81877000Y-36940000D02*
X83477000Y-36940000D01*
X83477000Y-36940000D02*
X83477000Y-36340000D01*
X84417000Y-36340000D02*
X84417000Y-36940000D01*
X84417000Y-36940000D02*
X86017000Y-36940000D01*
X86017000Y-36940000D02*
X86017000Y-36340000D01*
X47438000Y-62925000D02*
X47438000Y-60325000D01*
X47438000Y-62925000D02*
X98358000Y-62925000D01*
X98358000Y-62925000D02*
X98358000Y-57725000D01*
X50038000Y-57725000D02*
X98358000Y-57725000D01*
X50038000Y-60325000D02*
X50038000Y-57725000D01*
X47438000Y-60325000D02*
X50038000Y-60325000D01*
X47438000Y-57725000D02*
X48768000Y-57725000D01*
X47438000Y-59055000D02*
X47438000Y-57725000D01*
X57979000Y-41716000D02*
X60639000Y-41716000D01*
X57979000Y-39116000D02*
X57979000Y-41716000D01*
X60639000Y-39116000D02*
X60639000Y-41716000D01*
X57979000Y-39116000D02*
X60639000Y-39116000D01*
X57979000Y-37846000D02*
X57979000Y-36516000D01*
X57979000Y-36516000D02*
X59309000Y-36516000D01*
X89313936Y-41804000D02*
X90518064Y-41804000D01*
X89313936Y-39984000D02*
X90518064Y-39984000D01*
X62043000Y-47260000D02*
G75*
G02X62043000Y-49260000I0J-1000000D01*
G01*
X62043000Y-49260000D02*
X62043000Y-50910000D01*
X62043000Y-50910000D02*
X79943000Y-50910000D01*
X79943000Y-50910000D02*
X79943000Y-45610000D01*
X79943000Y-45610000D02*
X62043000Y-45610000D01*
X62043000Y-45610000D02*
X62043000Y-47260000D01*
X54234000Y-42399000D02*
X54234000Y-41139000D01*
X54234000Y-35579000D02*
X54234000Y-36839000D01*
X50474000Y-42399000D02*
X54234000Y-42399000D01*
X48224000Y-35579000D02*
X54234000Y-35579000D01*
X69663000Y-37198001D02*
X70993000Y-37198001D01*
X69663000Y-38528001D02*
X69663000Y-37198001D01*
X69663000Y-39798001D02*
X72323000Y-39798001D01*
X72323000Y-39798001D02*
X72323000Y-42398001D01*
X69663000Y-39798001D02*
X69663000Y-42398001D01*
X69663000Y-42398001D02*
X72323000Y-42398001D01*
X65470001Y-42398001D02*
X68130001Y-42398001D01*
X65470001Y-39798001D02*
X65470001Y-42398001D01*
X68130001Y-39798001D02*
X68130001Y-42398001D01*
X65470001Y-39798001D02*
X68130001Y-39798001D01*
X65470001Y-38528001D02*
X65470001Y-37198001D01*
X65470001Y-37198001D02*
X66800001Y-37198001D01*
D15*
X49360666Y-48021523D02*
X49360666Y-48928666D01*
X49300190Y-49110095D01*
X49179238Y-49231047D01*
X48997809Y-49291523D01*
X48876857Y-49291523D01*
X50630666Y-49291523D02*
X49904952Y-49291523D01*
X50267809Y-49291523D02*
X50267809Y-48021523D01*
X50146857Y-48202952D01*
X50025904Y-48323904D01*
X49904952Y-48384380D01*
D11*
X93416380Y-38457095D02*
X92416380Y-38457095D01*
X92416380Y-38219000D01*
X92464000Y-38076142D01*
X92559238Y-37980904D01*
X92654476Y-37933285D01*
X92844952Y-37885666D01*
X92987809Y-37885666D01*
X93178285Y-37933285D01*
X93273523Y-37980904D01*
X93368761Y-38076142D01*
X93416380Y-38219000D01*
X93416380Y-38457095D01*
X93416380Y-36933285D02*
X93416380Y-37504714D01*
X93416380Y-37219000D02*
X92416380Y-37219000D01*
X92559238Y-37314238D01*
X92654476Y-37409476D01*
X92702095Y-37504714D01*
X90725666Y-45807380D02*
X90725666Y-46521666D01*
X90678047Y-46664523D01*
X90582809Y-46759761D01*
X90439952Y-46807380D01*
X90344714Y-46807380D01*
X91630428Y-46140714D02*
X91630428Y-46807380D01*
X91392333Y-45759761D02*
X91154238Y-46474047D01*
X91773285Y-46474047D01*
X85010666Y-42505380D02*
X85010666Y-43219666D01*
X84963047Y-43362523D01*
X84867809Y-43457761D01*
X84724952Y-43505380D01*
X84629714Y-43505380D01*
X85391619Y-42505380D02*
X86058285Y-42505380D01*
X85629714Y-43505380D01*
X58348666Y-41997380D02*
X58348666Y-42711666D01*
X58301047Y-42854523D01*
X58205809Y-42949761D01*
X58062952Y-42997380D01*
X57967714Y-42997380D01*
X58824857Y-42997380D02*
X58824857Y-41997380D01*
X59205809Y-41997380D01*
X59301047Y-42045000D01*
X59348666Y-42092619D01*
X59396285Y-42187857D01*
X59396285Y-42330714D01*
X59348666Y-42425952D01*
X59301047Y-42473571D01*
X59205809Y-42521190D01*
X58824857Y-42521190D01*
X60348666Y-42997380D02*
X59777238Y-42997380D01*
X60062952Y-42997380D02*
X60062952Y-41997380D01*
X59967714Y-42140238D01*
X59872476Y-42235476D01*
X59777238Y-42283095D01*
X93416380Y-40933666D02*
X92940190Y-41267000D01*
X93416380Y-41505095D02*
X92416380Y-41505095D01*
X92416380Y-41124142D01*
X92464000Y-41028904D01*
X92511619Y-40981285D01*
X92606857Y-40933666D01*
X92749714Y-40933666D01*
X92844952Y-40981285D01*
X92892571Y-41028904D01*
X92940190Y-41124142D01*
X92940190Y-41505095D01*
X92511619Y-40552714D02*
X92464000Y-40505095D01*
X92416380Y-40409857D01*
X92416380Y-40171761D01*
X92464000Y-40076523D01*
X92511619Y-40028904D01*
X92606857Y-39981285D01*
X92702095Y-39981285D01*
X92844952Y-40028904D01*
X93416380Y-40600333D01*
X93416380Y-39981285D01*
X60495380Y-49021904D02*
X61304904Y-49021904D01*
X61400142Y-48974285D01*
X61447761Y-48926666D01*
X61495380Y-48831428D01*
X61495380Y-48640952D01*
X61447761Y-48545714D01*
X61400142Y-48498095D01*
X61304904Y-48450476D01*
X60495380Y-48450476D01*
X61495380Y-47450476D02*
X61495380Y-48021904D01*
X61495380Y-47736190D02*
X60495380Y-47736190D01*
X60638238Y-47831428D01*
X60733476Y-47926666D01*
X60781095Y-48021904D01*
X54824380Y-36194904D02*
X55633904Y-36194904D01*
X55729142Y-36147285D01*
X55776761Y-36099666D01*
X55824380Y-36004428D01*
X55824380Y-35813952D01*
X55776761Y-35718714D01*
X55729142Y-35671095D01*
X55633904Y-35623476D01*
X54824380Y-35623476D01*
X54919619Y-35194904D02*
X54872000Y-35147285D01*
X54824380Y-35052047D01*
X54824380Y-34813952D01*
X54872000Y-34718714D01*
X54919619Y-34671095D01*
X55014857Y-34623476D01*
X55110095Y-34623476D01*
X55252952Y-34671095D01*
X55824380Y-35242523D01*
X55824380Y-34623476D01*
X70159666Y-35650381D02*
X70159666Y-36364667D01*
X70112047Y-36507524D01*
X70016809Y-36602762D01*
X69873952Y-36650381D01*
X69778714Y-36650381D01*
X70635857Y-36650381D02*
X70635857Y-35650381D01*
X71016809Y-35650381D01*
X71112047Y-35698001D01*
X71159666Y-35745620D01*
X71207285Y-35840858D01*
X71207285Y-35983715D01*
X71159666Y-36078953D01*
X71112047Y-36126572D01*
X71016809Y-36174191D01*
X70635857Y-36174191D01*
X71588238Y-35745620D02*
X71635857Y-35698001D01*
X71731095Y-35650381D01*
X71969190Y-35650381D01*
X72064428Y-35698001D01*
X72112047Y-35745620D01*
X72159666Y-35840858D01*
X72159666Y-35936096D01*
X72112047Y-36078953D01*
X71540619Y-36650381D01*
X72159666Y-36650381D01*
X65966667Y-35650381D02*
X65966667Y-36364667D01*
X65919048Y-36507524D01*
X65823810Y-36602762D01*
X65680953Y-36650381D01*
X65585715Y-36650381D01*
X66442858Y-36650381D02*
X66442858Y-35650381D01*
X66823810Y-35650381D01*
X66919048Y-35698001D01*
X66966667Y-35745620D01*
X67014286Y-35840858D01*
X67014286Y-35983715D01*
X66966667Y-36078953D01*
X66919048Y-36126572D01*
X66823810Y-36174191D01*
X66442858Y-36174191D01*
X67347620Y-35650381D02*
X67966667Y-35650381D01*
X67633334Y-36031334D01*
X67776191Y-36031334D01*
X67871429Y-36078953D01*
X67919048Y-36126572D01*
X67966667Y-36221810D01*
X67966667Y-36459905D01*
X67919048Y-36555143D01*
X67871429Y-36602762D01*
X67776191Y-36650381D01*
X67490477Y-36650381D01*
X67395239Y-36602762D01*
X67347620Y-36555143D01*
M02*
