M48
; DRILL file {KiCad 5.1.2-f72e74a~84~ubuntu18.04.1} date lun. 31 mai 2021 02:13:50 CEST
; FORMAT={-:-/ absolute / inch / decimal}
; #@! TF.CreationDate,2021-05-31T02:13:50+02:00
; #@! TF.GenerationSoftware,Kicad,Pcbnew,5.1.2-f72e74a~84~ubuntu18.04.1
; #@! TF.FileFunction,Plated,1,2,PTH
FMAT,2
INCH
T1C0.0157
T2C0.0276
T3C0.0315
T4C0.0354
T5C0.0394
T6C0.0472
%
G90
G05
T1
X1.936Y-1.674
X1.96Y-2.195
X2.015Y-1.38
X2.215Y-1.43
X2.215Y-1.43
X2.355Y-1.795
X3.02Y-1.846
X3.104Y-1.83
X3.355Y-2.205
T2
X2.1078Y-1.8865
X2.1078Y-1.9495
X2.155Y-1.855
X2.155Y-1.918
X2.155Y-1.981
X2.895Y-2.145
X3.0Y-2.145
T3
X2.495Y-1.75
X2.495Y-2.05
X2.595Y-1.75
X2.595Y-2.05
X2.695Y-1.75
X2.695Y-2.05
X2.795Y-1.75
X2.795Y-2.05
X2.895Y-1.75
X2.895Y-2.05
X2.995Y-1.75
X2.995Y-2.05
X3.095Y-1.75
X3.095Y-2.05
T5
X2.335Y-1.49
X2.335Y-1.59
X2.795Y-1.5169
X2.795Y-1.6169
X1.92Y-2.325
X1.92Y-2.425
X2.02Y-2.325
X2.02Y-2.425
X2.12Y-2.325
X2.12Y-2.425
X2.22Y-2.325
X2.22Y-2.425
X2.32Y-2.325
X2.32Y-2.425
X2.42Y-2.325
X2.42Y-2.425
X2.52Y-2.325
X2.52Y-2.425
X2.62Y-2.325
X2.62Y-2.425
X2.72Y-2.325
X2.72Y-2.425
X2.82Y-2.325
X2.82Y-2.425
X2.92Y-2.325
X2.92Y-2.425
X3.02Y-2.325
X3.02Y-2.425
X3.12Y-2.325
X3.12Y-2.425
X3.22Y-2.325
X3.22Y-2.425
X3.32Y-2.325
X3.32Y-2.425
X3.42Y-2.325
X3.42Y-2.425
X3.52Y-2.325
X3.52Y-2.425
X3.62Y-2.325
X3.62Y-2.425
X3.72Y-2.325
X3.72Y-2.425
X3.82Y-2.325
X3.82Y-2.425
X2.6299Y-1.5169
X2.6299Y-1.6169
T6
X3.055Y-1.55
X3.155Y-1.55
X3.255Y-1.55
X3.355Y-1.55
X3.28Y-1.98
X3.38Y-1.98
X3.48Y-1.98
X3.58Y-1.98
T4
G00X1.9365Y-1.7743
M15
G01X1.9759Y-1.7743
M16
G05
G00X1.9365Y-2.0617
M15
G01X1.9759Y-2.0617
M16
G05
T0
M30
