G04 #@! TF.GenerationSoftware,KiCad,Pcbnew,5.1.2-f72e74a~84~ubuntu18.04.1*
G04 #@! TF.CreationDate,2021-05-31T02:13:38+02:00*
G04 #@! TF.ProjectId,USB_I2C_Iface,5553425f-4932-4435-9f49-666163652e6b,rev?*
G04 #@! TF.SameCoordinates,Original*
G04 #@! TF.FileFunction,Soldermask,Bot*
G04 #@! TF.FilePolarity,Negative*
%FSLAX46Y46*%
G04 Gerber Fmt 4.6, Leading zero omitted, Abs format (unit mm)*
G04 Created by KiCad (PCBNEW 5.1.2-f72e74a~84~ubuntu18.04.1) date 2021-05-31 02:13:38*
%MOMM*%
%LPD*%
G04 APERTURE LIST*
%ADD10C,0.100000*%
G04 APERTURE END LIST*
D10*
G36*
X97138443Y-60700519D02*
G01*
X97204627Y-60707037D01*
X97374466Y-60758557D01*
X97530991Y-60842222D01*
X97566729Y-60871552D01*
X97668186Y-60954814D01*
X97751448Y-61056271D01*
X97780778Y-61092009D01*
X97864443Y-61248534D01*
X97915963Y-61418373D01*
X97933359Y-61595000D01*
X97915963Y-61771627D01*
X97864443Y-61941466D01*
X97780778Y-62097991D01*
X97751448Y-62133729D01*
X97668186Y-62235186D01*
X97566729Y-62318448D01*
X97530991Y-62347778D01*
X97374466Y-62431443D01*
X97204627Y-62482963D01*
X97138443Y-62489481D01*
X97072260Y-62496000D01*
X96983740Y-62496000D01*
X96917557Y-62489481D01*
X96851373Y-62482963D01*
X96681534Y-62431443D01*
X96525009Y-62347778D01*
X96489271Y-62318448D01*
X96387814Y-62235186D01*
X96304552Y-62133729D01*
X96275222Y-62097991D01*
X96191557Y-61941466D01*
X96140037Y-61771627D01*
X96122641Y-61595000D01*
X96140037Y-61418373D01*
X96191557Y-61248534D01*
X96275222Y-61092009D01*
X96304552Y-61056271D01*
X96387814Y-60954814D01*
X96489271Y-60871552D01*
X96525009Y-60842222D01*
X96681534Y-60758557D01*
X96851373Y-60707037D01*
X96917557Y-60700519D01*
X96983740Y-60694000D01*
X97072260Y-60694000D01*
X97138443Y-60700519D01*
X97138443Y-60700519D01*
G37*
G36*
X71738443Y-60700519D02*
G01*
X71804627Y-60707037D01*
X71974466Y-60758557D01*
X72130991Y-60842222D01*
X72166729Y-60871552D01*
X72268186Y-60954814D01*
X72351448Y-61056271D01*
X72380778Y-61092009D01*
X72464443Y-61248534D01*
X72515963Y-61418373D01*
X72533359Y-61595000D01*
X72515963Y-61771627D01*
X72464443Y-61941466D01*
X72380778Y-62097991D01*
X72351448Y-62133729D01*
X72268186Y-62235186D01*
X72166729Y-62318448D01*
X72130991Y-62347778D01*
X71974466Y-62431443D01*
X71804627Y-62482963D01*
X71738443Y-62489481D01*
X71672260Y-62496000D01*
X71583740Y-62496000D01*
X71517557Y-62489481D01*
X71451373Y-62482963D01*
X71281534Y-62431443D01*
X71125009Y-62347778D01*
X71089271Y-62318448D01*
X70987814Y-62235186D01*
X70904552Y-62133729D01*
X70875222Y-62097991D01*
X70791557Y-61941466D01*
X70740037Y-61771627D01*
X70722641Y-61595000D01*
X70740037Y-61418373D01*
X70791557Y-61248534D01*
X70875222Y-61092009D01*
X70904552Y-61056271D01*
X70987814Y-60954814D01*
X71089271Y-60871552D01*
X71125009Y-60842222D01*
X71281534Y-60758557D01*
X71451373Y-60707037D01*
X71517557Y-60700519D01*
X71583740Y-60694000D01*
X71672260Y-60694000D01*
X71738443Y-60700519D01*
X71738443Y-60700519D01*
G37*
G36*
X48878443Y-60700519D02*
G01*
X48944627Y-60707037D01*
X49114466Y-60758557D01*
X49270991Y-60842222D01*
X49306729Y-60871552D01*
X49408186Y-60954814D01*
X49491448Y-61056271D01*
X49520778Y-61092009D01*
X49604443Y-61248534D01*
X49655963Y-61418373D01*
X49673359Y-61595000D01*
X49655963Y-61771627D01*
X49604443Y-61941466D01*
X49520778Y-62097991D01*
X49491448Y-62133729D01*
X49408186Y-62235186D01*
X49306729Y-62318448D01*
X49270991Y-62347778D01*
X49114466Y-62431443D01*
X48944627Y-62482963D01*
X48878443Y-62489481D01*
X48812260Y-62496000D01*
X48723740Y-62496000D01*
X48657557Y-62489481D01*
X48591373Y-62482963D01*
X48421534Y-62431443D01*
X48265009Y-62347778D01*
X48229271Y-62318448D01*
X48127814Y-62235186D01*
X48044552Y-62133729D01*
X48015222Y-62097991D01*
X47931557Y-61941466D01*
X47880037Y-61771627D01*
X47862641Y-61595000D01*
X47880037Y-61418373D01*
X47931557Y-61248534D01*
X48015222Y-61092009D01*
X48044552Y-61056271D01*
X48127814Y-60954814D01*
X48229271Y-60871552D01*
X48265009Y-60842222D01*
X48421534Y-60758557D01*
X48591373Y-60707037D01*
X48657557Y-60700519D01*
X48723740Y-60694000D01*
X48812260Y-60694000D01*
X48878443Y-60700519D01*
X48878443Y-60700519D01*
G37*
G36*
X51418443Y-60700519D02*
G01*
X51484627Y-60707037D01*
X51654466Y-60758557D01*
X51810991Y-60842222D01*
X51846729Y-60871552D01*
X51948186Y-60954814D01*
X52031448Y-61056271D01*
X52060778Y-61092009D01*
X52144443Y-61248534D01*
X52195963Y-61418373D01*
X52213359Y-61595000D01*
X52195963Y-61771627D01*
X52144443Y-61941466D01*
X52060778Y-62097991D01*
X52031448Y-62133729D01*
X51948186Y-62235186D01*
X51846729Y-62318448D01*
X51810991Y-62347778D01*
X51654466Y-62431443D01*
X51484627Y-62482963D01*
X51418443Y-62489481D01*
X51352260Y-62496000D01*
X51263740Y-62496000D01*
X51197557Y-62489481D01*
X51131373Y-62482963D01*
X50961534Y-62431443D01*
X50805009Y-62347778D01*
X50769271Y-62318448D01*
X50667814Y-62235186D01*
X50584552Y-62133729D01*
X50555222Y-62097991D01*
X50471557Y-61941466D01*
X50420037Y-61771627D01*
X50402641Y-61595000D01*
X50420037Y-61418373D01*
X50471557Y-61248534D01*
X50555222Y-61092009D01*
X50584552Y-61056271D01*
X50667814Y-60954814D01*
X50769271Y-60871552D01*
X50805009Y-60842222D01*
X50961534Y-60758557D01*
X51131373Y-60707037D01*
X51197557Y-60700519D01*
X51263740Y-60694000D01*
X51352260Y-60694000D01*
X51418443Y-60700519D01*
X51418443Y-60700519D01*
G37*
G36*
X53958443Y-60700519D02*
G01*
X54024627Y-60707037D01*
X54194466Y-60758557D01*
X54350991Y-60842222D01*
X54386729Y-60871552D01*
X54488186Y-60954814D01*
X54571448Y-61056271D01*
X54600778Y-61092009D01*
X54684443Y-61248534D01*
X54735963Y-61418373D01*
X54753359Y-61595000D01*
X54735963Y-61771627D01*
X54684443Y-61941466D01*
X54600778Y-62097991D01*
X54571448Y-62133729D01*
X54488186Y-62235186D01*
X54386729Y-62318448D01*
X54350991Y-62347778D01*
X54194466Y-62431443D01*
X54024627Y-62482963D01*
X53958443Y-62489481D01*
X53892260Y-62496000D01*
X53803740Y-62496000D01*
X53737557Y-62489481D01*
X53671373Y-62482963D01*
X53501534Y-62431443D01*
X53345009Y-62347778D01*
X53309271Y-62318448D01*
X53207814Y-62235186D01*
X53124552Y-62133729D01*
X53095222Y-62097991D01*
X53011557Y-61941466D01*
X52960037Y-61771627D01*
X52942641Y-61595000D01*
X52960037Y-61418373D01*
X53011557Y-61248534D01*
X53095222Y-61092009D01*
X53124552Y-61056271D01*
X53207814Y-60954814D01*
X53309271Y-60871552D01*
X53345009Y-60842222D01*
X53501534Y-60758557D01*
X53671373Y-60707037D01*
X53737557Y-60700519D01*
X53803740Y-60694000D01*
X53892260Y-60694000D01*
X53958443Y-60700519D01*
X53958443Y-60700519D01*
G37*
G36*
X56498443Y-60700519D02*
G01*
X56564627Y-60707037D01*
X56734466Y-60758557D01*
X56890991Y-60842222D01*
X56926729Y-60871552D01*
X57028186Y-60954814D01*
X57111448Y-61056271D01*
X57140778Y-61092009D01*
X57224443Y-61248534D01*
X57275963Y-61418373D01*
X57293359Y-61595000D01*
X57275963Y-61771627D01*
X57224443Y-61941466D01*
X57140778Y-62097991D01*
X57111448Y-62133729D01*
X57028186Y-62235186D01*
X56926729Y-62318448D01*
X56890991Y-62347778D01*
X56734466Y-62431443D01*
X56564627Y-62482963D01*
X56498443Y-62489481D01*
X56432260Y-62496000D01*
X56343740Y-62496000D01*
X56277557Y-62489481D01*
X56211373Y-62482963D01*
X56041534Y-62431443D01*
X55885009Y-62347778D01*
X55849271Y-62318448D01*
X55747814Y-62235186D01*
X55664552Y-62133729D01*
X55635222Y-62097991D01*
X55551557Y-61941466D01*
X55500037Y-61771627D01*
X55482641Y-61595000D01*
X55500037Y-61418373D01*
X55551557Y-61248534D01*
X55635222Y-61092009D01*
X55664552Y-61056271D01*
X55747814Y-60954814D01*
X55849271Y-60871552D01*
X55885009Y-60842222D01*
X56041534Y-60758557D01*
X56211373Y-60707037D01*
X56277557Y-60700519D01*
X56343740Y-60694000D01*
X56432260Y-60694000D01*
X56498443Y-60700519D01*
X56498443Y-60700519D01*
G37*
G36*
X59038443Y-60700519D02*
G01*
X59104627Y-60707037D01*
X59274466Y-60758557D01*
X59430991Y-60842222D01*
X59466729Y-60871552D01*
X59568186Y-60954814D01*
X59651448Y-61056271D01*
X59680778Y-61092009D01*
X59764443Y-61248534D01*
X59815963Y-61418373D01*
X59833359Y-61595000D01*
X59815963Y-61771627D01*
X59764443Y-61941466D01*
X59680778Y-62097991D01*
X59651448Y-62133729D01*
X59568186Y-62235186D01*
X59466729Y-62318448D01*
X59430991Y-62347778D01*
X59274466Y-62431443D01*
X59104627Y-62482963D01*
X59038443Y-62489481D01*
X58972260Y-62496000D01*
X58883740Y-62496000D01*
X58817557Y-62489481D01*
X58751373Y-62482963D01*
X58581534Y-62431443D01*
X58425009Y-62347778D01*
X58389271Y-62318448D01*
X58287814Y-62235186D01*
X58204552Y-62133729D01*
X58175222Y-62097991D01*
X58091557Y-61941466D01*
X58040037Y-61771627D01*
X58022641Y-61595000D01*
X58040037Y-61418373D01*
X58091557Y-61248534D01*
X58175222Y-61092009D01*
X58204552Y-61056271D01*
X58287814Y-60954814D01*
X58389271Y-60871552D01*
X58425009Y-60842222D01*
X58581534Y-60758557D01*
X58751373Y-60707037D01*
X58817557Y-60700519D01*
X58883740Y-60694000D01*
X58972260Y-60694000D01*
X59038443Y-60700519D01*
X59038443Y-60700519D01*
G37*
G36*
X61578443Y-60700519D02*
G01*
X61644627Y-60707037D01*
X61814466Y-60758557D01*
X61970991Y-60842222D01*
X62006729Y-60871552D01*
X62108186Y-60954814D01*
X62191448Y-61056271D01*
X62220778Y-61092009D01*
X62304443Y-61248534D01*
X62355963Y-61418373D01*
X62373359Y-61595000D01*
X62355963Y-61771627D01*
X62304443Y-61941466D01*
X62220778Y-62097991D01*
X62191448Y-62133729D01*
X62108186Y-62235186D01*
X62006729Y-62318448D01*
X61970991Y-62347778D01*
X61814466Y-62431443D01*
X61644627Y-62482963D01*
X61578443Y-62489481D01*
X61512260Y-62496000D01*
X61423740Y-62496000D01*
X61357557Y-62489481D01*
X61291373Y-62482963D01*
X61121534Y-62431443D01*
X60965009Y-62347778D01*
X60929271Y-62318448D01*
X60827814Y-62235186D01*
X60744552Y-62133729D01*
X60715222Y-62097991D01*
X60631557Y-61941466D01*
X60580037Y-61771627D01*
X60562641Y-61595000D01*
X60580037Y-61418373D01*
X60631557Y-61248534D01*
X60715222Y-61092009D01*
X60744552Y-61056271D01*
X60827814Y-60954814D01*
X60929271Y-60871552D01*
X60965009Y-60842222D01*
X61121534Y-60758557D01*
X61291373Y-60707037D01*
X61357557Y-60700519D01*
X61423740Y-60694000D01*
X61512260Y-60694000D01*
X61578443Y-60700519D01*
X61578443Y-60700519D01*
G37*
G36*
X64118443Y-60700519D02*
G01*
X64184627Y-60707037D01*
X64354466Y-60758557D01*
X64510991Y-60842222D01*
X64546729Y-60871552D01*
X64648186Y-60954814D01*
X64731448Y-61056271D01*
X64760778Y-61092009D01*
X64844443Y-61248534D01*
X64895963Y-61418373D01*
X64913359Y-61595000D01*
X64895963Y-61771627D01*
X64844443Y-61941466D01*
X64760778Y-62097991D01*
X64731448Y-62133729D01*
X64648186Y-62235186D01*
X64546729Y-62318448D01*
X64510991Y-62347778D01*
X64354466Y-62431443D01*
X64184627Y-62482963D01*
X64118443Y-62489481D01*
X64052260Y-62496000D01*
X63963740Y-62496000D01*
X63897557Y-62489481D01*
X63831373Y-62482963D01*
X63661534Y-62431443D01*
X63505009Y-62347778D01*
X63469271Y-62318448D01*
X63367814Y-62235186D01*
X63284552Y-62133729D01*
X63255222Y-62097991D01*
X63171557Y-61941466D01*
X63120037Y-61771627D01*
X63102641Y-61595000D01*
X63120037Y-61418373D01*
X63171557Y-61248534D01*
X63255222Y-61092009D01*
X63284552Y-61056271D01*
X63367814Y-60954814D01*
X63469271Y-60871552D01*
X63505009Y-60842222D01*
X63661534Y-60758557D01*
X63831373Y-60707037D01*
X63897557Y-60700519D01*
X63963740Y-60694000D01*
X64052260Y-60694000D01*
X64118443Y-60700519D01*
X64118443Y-60700519D01*
G37*
G36*
X66658443Y-60700519D02*
G01*
X66724627Y-60707037D01*
X66894466Y-60758557D01*
X67050991Y-60842222D01*
X67086729Y-60871552D01*
X67188186Y-60954814D01*
X67271448Y-61056271D01*
X67300778Y-61092009D01*
X67384443Y-61248534D01*
X67435963Y-61418373D01*
X67453359Y-61595000D01*
X67435963Y-61771627D01*
X67384443Y-61941466D01*
X67300778Y-62097991D01*
X67271448Y-62133729D01*
X67188186Y-62235186D01*
X67086729Y-62318448D01*
X67050991Y-62347778D01*
X66894466Y-62431443D01*
X66724627Y-62482963D01*
X66658443Y-62489481D01*
X66592260Y-62496000D01*
X66503740Y-62496000D01*
X66437557Y-62489481D01*
X66371373Y-62482963D01*
X66201534Y-62431443D01*
X66045009Y-62347778D01*
X66009271Y-62318448D01*
X65907814Y-62235186D01*
X65824552Y-62133729D01*
X65795222Y-62097991D01*
X65711557Y-61941466D01*
X65660037Y-61771627D01*
X65642641Y-61595000D01*
X65660037Y-61418373D01*
X65711557Y-61248534D01*
X65795222Y-61092009D01*
X65824552Y-61056271D01*
X65907814Y-60954814D01*
X66009271Y-60871552D01*
X66045009Y-60842222D01*
X66201534Y-60758557D01*
X66371373Y-60707037D01*
X66437557Y-60700519D01*
X66503740Y-60694000D01*
X66592260Y-60694000D01*
X66658443Y-60700519D01*
X66658443Y-60700519D01*
G37*
G36*
X69198443Y-60700519D02*
G01*
X69264627Y-60707037D01*
X69434466Y-60758557D01*
X69590991Y-60842222D01*
X69626729Y-60871552D01*
X69728186Y-60954814D01*
X69811448Y-61056271D01*
X69840778Y-61092009D01*
X69924443Y-61248534D01*
X69975963Y-61418373D01*
X69993359Y-61595000D01*
X69975963Y-61771627D01*
X69924443Y-61941466D01*
X69840778Y-62097991D01*
X69811448Y-62133729D01*
X69728186Y-62235186D01*
X69626729Y-62318448D01*
X69590991Y-62347778D01*
X69434466Y-62431443D01*
X69264627Y-62482963D01*
X69198443Y-62489481D01*
X69132260Y-62496000D01*
X69043740Y-62496000D01*
X68977557Y-62489481D01*
X68911373Y-62482963D01*
X68741534Y-62431443D01*
X68585009Y-62347778D01*
X68549271Y-62318448D01*
X68447814Y-62235186D01*
X68364552Y-62133729D01*
X68335222Y-62097991D01*
X68251557Y-61941466D01*
X68200037Y-61771627D01*
X68182641Y-61595000D01*
X68200037Y-61418373D01*
X68251557Y-61248534D01*
X68335222Y-61092009D01*
X68364552Y-61056271D01*
X68447814Y-60954814D01*
X68549271Y-60871552D01*
X68585009Y-60842222D01*
X68741534Y-60758557D01*
X68911373Y-60707037D01*
X68977557Y-60700519D01*
X69043740Y-60694000D01*
X69132260Y-60694000D01*
X69198443Y-60700519D01*
X69198443Y-60700519D01*
G37*
G36*
X76818443Y-60700519D02*
G01*
X76884627Y-60707037D01*
X77054466Y-60758557D01*
X77210991Y-60842222D01*
X77246729Y-60871552D01*
X77348186Y-60954814D01*
X77431448Y-61056271D01*
X77460778Y-61092009D01*
X77544443Y-61248534D01*
X77595963Y-61418373D01*
X77613359Y-61595000D01*
X77595963Y-61771627D01*
X77544443Y-61941466D01*
X77460778Y-62097991D01*
X77431448Y-62133729D01*
X77348186Y-62235186D01*
X77246729Y-62318448D01*
X77210991Y-62347778D01*
X77054466Y-62431443D01*
X76884627Y-62482963D01*
X76818443Y-62489481D01*
X76752260Y-62496000D01*
X76663740Y-62496000D01*
X76597557Y-62489481D01*
X76531373Y-62482963D01*
X76361534Y-62431443D01*
X76205009Y-62347778D01*
X76169271Y-62318448D01*
X76067814Y-62235186D01*
X75984552Y-62133729D01*
X75955222Y-62097991D01*
X75871557Y-61941466D01*
X75820037Y-61771627D01*
X75802641Y-61595000D01*
X75820037Y-61418373D01*
X75871557Y-61248534D01*
X75955222Y-61092009D01*
X75984552Y-61056271D01*
X76067814Y-60954814D01*
X76169271Y-60871552D01*
X76205009Y-60842222D01*
X76361534Y-60758557D01*
X76531373Y-60707037D01*
X76597557Y-60700519D01*
X76663740Y-60694000D01*
X76752260Y-60694000D01*
X76818443Y-60700519D01*
X76818443Y-60700519D01*
G37*
G36*
X79358443Y-60700519D02*
G01*
X79424627Y-60707037D01*
X79594466Y-60758557D01*
X79750991Y-60842222D01*
X79786729Y-60871552D01*
X79888186Y-60954814D01*
X79971448Y-61056271D01*
X80000778Y-61092009D01*
X80084443Y-61248534D01*
X80135963Y-61418373D01*
X80153359Y-61595000D01*
X80135963Y-61771627D01*
X80084443Y-61941466D01*
X80000778Y-62097991D01*
X79971448Y-62133729D01*
X79888186Y-62235186D01*
X79786729Y-62318448D01*
X79750991Y-62347778D01*
X79594466Y-62431443D01*
X79424627Y-62482963D01*
X79358443Y-62489481D01*
X79292260Y-62496000D01*
X79203740Y-62496000D01*
X79137557Y-62489481D01*
X79071373Y-62482963D01*
X78901534Y-62431443D01*
X78745009Y-62347778D01*
X78709271Y-62318448D01*
X78607814Y-62235186D01*
X78524552Y-62133729D01*
X78495222Y-62097991D01*
X78411557Y-61941466D01*
X78360037Y-61771627D01*
X78342641Y-61595000D01*
X78360037Y-61418373D01*
X78411557Y-61248534D01*
X78495222Y-61092009D01*
X78524552Y-61056271D01*
X78607814Y-60954814D01*
X78709271Y-60871552D01*
X78745009Y-60842222D01*
X78901534Y-60758557D01*
X79071373Y-60707037D01*
X79137557Y-60700519D01*
X79203740Y-60694000D01*
X79292260Y-60694000D01*
X79358443Y-60700519D01*
X79358443Y-60700519D01*
G37*
G36*
X81898443Y-60700519D02*
G01*
X81964627Y-60707037D01*
X82134466Y-60758557D01*
X82290991Y-60842222D01*
X82326729Y-60871552D01*
X82428186Y-60954814D01*
X82511448Y-61056271D01*
X82540778Y-61092009D01*
X82624443Y-61248534D01*
X82675963Y-61418373D01*
X82693359Y-61595000D01*
X82675963Y-61771627D01*
X82624443Y-61941466D01*
X82540778Y-62097991D01*
X82511448Y-62133729D01*
X82428186Y-62235186D01*
X82326729Y-62318448D01*
X82290991Y-62347778D01*
X82134466Y-62431443D01*
X81964627Y-62482963D01*
X81898443Y-62489481D01*
X81832260Y-62496000D01*
X81743740Y-62496000D01*
X81677557Y-62489481D01*
X81611373Y-62482963D01*
X81441534Y-62431443D01*
X81285009Y-62347778D01*
X81249271Y-62318448D01*
X81147814Y-62235186D01*
X81064552Y-62133729D01*
X81035222Y-62097991D01*
X80951557Y-61941466D01*
X80900037Y-61771627D01*
X80882641Y-61595000D01*
X80900037Y-61418373D01*
X80951557Y-61248534D01*
X81035222Y-61092009D01*
X81064552Y-61056271D01*
X81147814Y-60954814D01*
X81249271Y-60871552D01*
X81285009Y-60842222D01*
X81441534Y-60758557D01*
X81611373Y-60707037D01*
X81677557Y-60700519D01*
X81743740Y-60694000D01*
X81832260Y-60694000D01*
X81898443Y-60700519D01*
X81898443Y-60700519D01*
G37*
G36*
X84438443Y-60700519D02*
G01*
X84504627Y-60707037D01*
X84674466Y-60758557D01*
X84830991Y-60842222D01*
X84866729Y-60871552D01*
X84968186Y-60954814D01*
X85051448Y-61056271D01*
X85080778Y-61092009D01*
X85164443Y-61248534D01*
X85215963Y-61418373D01*
X85233359Y-61595000D01*
X85215963Y-61771627D01*
X85164443Y-61941466D01*
X85080778Y-62097991D01*
X85051448Y-62133729D01*
X84968186Y-62235186D01*
X84866729Y-62318448D01*
X84830991Y-62347778D01*
X84674466Y-62431443D01*
X84504627Y-62482963D01*
X84438443Y-62489481D01*
X84372260Y-62496000D01*
X84283740Y-62496000D01*
X84217557Y-62489481D01*
X84151373Y-62482963D01*
X83981534Y-62431443D01*
X83825009Y-62347778D01*
X83789271Y-62318448D01*
X83687814Y-62235186D01*
X83604552Y-62133729D01*
X83575222Y-62097991D01*
X83491557Y-61941466D01*
X83440037Y-61771627D01*
X83422641Y-61595000D01*
X83440037Y-61418373D01*
X83491557Y-61248534D01*
X83575222Y-61092009D01*
X83604552Y-61056271D01*
X83687814Y-60954814D01*
X83789271Y-60871552D01*
X83825009Y-60842222D01*
X83981534Y-60758557D01*
X84151373Y-60707037D01*
X84217557Y-60700519D01*
X84283740Y-60694000D01*
X84372260Y-60694000D01*
X84438443Y-60700519D01*
X84438443Y-60700519D01*
G37*
G36*
X86978443Y-60700519D02*
G01*
X87044627Y-60707037D01*
X87214466Y-60758557D01*
X87370991Y-60842222D01*
X87406729Y-60871552D01*
X87508186Y-60954814D01*
X87591448Y-61056271D01*
X87620778Y-61092009D01*
X87704443Y-61248534D01*
X87755963Y-61418373D01*
X87773359Y-61595000D01*
X87755963Y-61771627D01*
X87704443Y-61941466D01*
X87620778Y-62097991D01*
X87591448Y-62133729D01*
X87508186Y-62235186D01*
X87406729Y-62318448D01*
X87370991Y-62347778D01*
X87214466Y-62431443D01*
X87044627Y-62482963D01*
X86978443Y-62489481D01*
X86912260Y-62496000D01*
X86823740Y-62496000D01*
X86757557Y-62489481D01*
X86691373Y-62482963D01*
X86521534Y-62431443D01*
X86365009Y-62347778D01*
X86329271Y-62318448D01*
X86227814Y-62235186D01*
X86144552Y-62133729D01*
X86115222Y-62097991D01*
X86031557Y-61941466D01*
X85980037Y-61771627D01*
X85962641Y-61595000D01*
X85980037Y-61418373D01*
X86031557Y-61248534D01*
X86115222Y-61092009D01*
X86144552Y-61056271D01*
X86227814Y-60954814D01*
X86329271Y-60871552D01*
X86365009Y-60842222D01*
X86521534Y-60758557D01*
X86691373Y-60707037D01*
X86757557Y-60700519D01*
X86823740Y-60694000D01*
X86912260Y-60694000D01*
X86978443Y-60700519D01*
X86978443Y-60700519D01*
G37*
G36*
X89518443Y-60700519D02*
G01*
X89584627Y-60707037D01*
X89754466Y-60758557D01*
X89910991Y-60842222D01*
X89946729Y-60871552D01*
X90048186Y-60954814D01*
X90131448Y-61056271D01*
X90160778Y-61092009D01*
X90244443Y-61248534D01*
X90295963Y-61418373D01*
X90313359Y-61595000D01*
X90295963Y-61771627D01*
X90244443Y-61941466D01*
X90160778Y-62097991D01*
X90131448Y-62133729D01*
X90048186Y-62235186D01*
X89946729Y-62318448D01*
X89910991Y-62347778D01*
X89754466Y-62431443D01*
X89584627Y-62482963D01*
X89518443Y-62489481D01*
X89452260Y-62496000D01*
X89363740Y-62496000D01*
X89297557Y-62489481D01*
X89231373Y-62482963D01*
X89061534Y-62431443D01*
X88905009Y-62347778D01*
X88869271Y-62318448D01*
X88767814Y-62235186D01*
X88684552Y-62133729D01*
X88655222Y-62097991D01*
X88571557Y-61941466D01*
X88520037Y-61771627D01*
X88502641Y-61595000D01*
X88520037Y-61418373D01*
X88571557Y-61248534D01*
X88655222Y-61092009D01*
X88684552Y-61056271D01*
X88767814Y-60954814D01*
X88869271Y-60871552D01*
X88905009Y-60842222D01*
X89061534Y-60758557D01*
X89231373Y-60707037D01*
X89297557Y-60700519D01*
X89363740Y-60694000D01*
X89452260Y-60694000D01*
X89518443Y-60700519D01*
X89518443Y-60700519D01*
G37*
G36*
X92058443Y-60700519D02*
G01*
X92124627Y-60707037D01*
X92294466Y-60758557D01*
X92450991Y-60842222D01*
X92486729Y-60871552D01*
X92588186Y-60954814D01*
X92671448Y-61056271D01*
X92700778Y-61092009D01*
X92784443Y-61248534D01*
X92835963Y-61418373D01*
X92853359Y-61595000D01*
X92835963Y-61771627D01*
X92784443Y-61941466D01*
X92700778Y-62097991D01*
X92671448Y-62133729D01*
X92588186Y-62235186D01*
X92486729Y-62318448D01*
X92450991Y-62347778D01*
X92294466Y-62431443D01*
X92124627Y-62482963D01*
X92058443Y-62489481D01*
X91992260Y-62496000D01*
X91903740Y-62496000D01*
X91837557Y-62489481D01*
X91771373Y-62482963D01*
X91601534Y-62431443D01*
X91445009Y-62347778D01*
X91409271Y-62318448D01*
X91307814Y-62235186D01*
X91224552Y-62133729D01*
X91195222Y-62097991D01*
X91111557Y-61941466D01*
X91060037Y-61771627D01*
X91042641Y-61595000D01*
X91060037Y-61418373D01*
X91111557Y-61248534D01*
X91195222Y-61092009D01*
X91224552Y-61056271D01*
X91307814Y-60954814D01*
X91409271Y-60871552D01*
X91445009Y-60842222D01*
X91601534Y-60758557D01*
X91771373Y-60707037D01*
X91837557Y-60700519D01*
X91903740Y-60694000D01*
X91992260Y-60694000D01*
X92058443Y-60700519D01*
X92058443Y-60700519D01*
G37*
G36*
X94598443Y-60700519D02*
G01*
X94664627Y-60707037D01*
X94834466Y-60758557D01*
X94990991Y-60842222D01*
X95026729Y-60871552D01*
X95128186Y-60954814D01*
X95211448Y-61056271D01*
X95240778Y-61092009D01*
X95324443Y-61248534D01*
X95375963Y-61418373D01*
X95393359Y-61595000D01*
X95375963Y-61771627D01*
X95324443Y-61941466D01*
X95240778Y-62097991D01*
X95211448Y-62133729D01*
X95128186Y-62235186D01*
X95026729Y-62318448D01*
X94990991Y-62347778D01*
X94834466Y-62431443D01*
X94664627Y-62482963D01*
X94598443Y-62489481D01*
X94532260Y-62496000D01*
X94443740Y-62496000D01*
X94377557Y-62489481D01*
X94311373Y-62482963D01*
X94141534Y-62431443D01*
X93985009Y-62347778D01*
X93949271Y-62318448D01*
X93847814Y-62235186D01*
X93764552Y-62133729D01*
X93735222Y-62097991D01*
X93651557Y-61941466D01*
X93600037Y-61771627D01*
X93582641Y-61595000D01*
X93600037Y-61418373D01*
X93651557Y-61248534D01*
X93735222Y-61092009D01*
X93764552Y-61056271D01*
X93847814Y-60954814D01*
X93949271Y-60871552D01*
X93985009Y-60842222D01*
X94141534Y-60758557D01*
X94311373Y-60707037D01*
X94377557Y-60700519D01*
X94443740Y-60694000D01*
X94532260Y-60694000D01*
X94598443Y-60700519D01*
X94598443Y-60700519D01*
G37*
G36*
X74278443Y-60700519D02*
G01*
X74344627Y-60707037D01*
X74514466Y-60758557D01*
X74670991Y-60842222D01*
X74706729Y-60871552D01*
X74808186Y-60954814D01*
X74891448Y-61056271D01*
X74920778Y-61092009D01*
X75004443Y-61248534D01*
X75055963Y-61418373D01*
X75073359Y-61595000D01*
X75055963Y-61771627D01*
X75004443Y-61941466D01*
X74920778Y-62097991D01*
X74891448Y-62133729D01*
X74808186Y-62235186D01*
X74706729Y-62318448D01*
X74670991Y-62347778D01*
X74514466Y-62431443D01*
X74344627Y-62482963D01*
X74278443Y-62489481D01*
X74212260Y-62496000D01*
X74123740Y-62496000D01*
X74057557Y-62489481D01*
X73991373Y-62482963D01*
X73821534Y-62431443D01*
X73665009Y-62347778D01*
X73629271Y-62318448D01*
X73527814Y-62235186D01*
X73444552Y-62133729D01*
X73415222Y-62097991D01*
X73331557Y-61941466D01*
X73280037Y-61771627D01*
X73262641Y-61595000D01*
X73280037Y-61418373D01*
X73331557Y-61248534D01*
X73415222Y-61092009D01*
X73444552Y-61056271D01*
X73527814Y-60954814D01*
X73629271Y-60871552D01*
X73665009Y-60842222D01*
X73821534Y-60758557D01*
X73991373Y-60707037D01*
X74057557Y-60700519D01*
X74123740Y-60694000D01*
X74212260Y-60694000D01*
X74278443Y-60700519D01*
X74278443Y-60700519D01*
G37*
G36*
X61578442Y-58160518D02*
G01*
X61644627Y-58167037D01*
X61814466Y-58218557D01*
X61970991Y-58302222D01*
X62006729Y-58331552D01*
X62108186Y-58414814D01*
X62191448Y-58516271D01*
X62220778Y-58552009D01*
X62304443Y-58708534D01*
X62355963Y-58878373D01*
X62373359Y-59055000D01*
X62355963Y-59231627D01*
X62304443Y-59401466D01*
X62220778Y-59557991D01*
X62191448Y-59593729D01*
X62108186Y-59695186D01*
X62006729Y-59778448D01*
X61970991Y-59807778D01*
X61814466Y-59891443D01*
X61644627Y-59942963D01*
X61578442Y-59949482D01*
X61512260Y-59956000D01*
X61423740Y-59956000D01*
X61357558Y-59949482D01*
X61291373Y-59942963D01*
X61121534Y-59891443D01*
X60965009Y-59807778D01*
X60929271Y-59778448D01*
X60827814Y-59695186D01*
X60744552Y-59593729D01*
X60715222Y-59557991D01*
X60631557Y-59401466D01*
X60580037Y-59231627D01*
X60562641Y-59055000D01*
X60580037Y-58878373D01*
X60631557Y-58708534D01*
X60715222Y-58552009D01*
X60744552Y-58516271D01*
X60827814Y-58414814D01*
X60929271Y-58331552D01*
X60965009Y-58302222D01*
X61121534Y-58218557D01*
X61291373Y-58167037D01*
X61357558Y-58160518D01*
X61423740Y-58154000D01*
X61512260Y-58154000D01*
X61578442Y-58160518D01*
X61578442Y-58160518D01*
G37*
G36*
X59038442Y-58160518D02*
G01*
X59104627Y-58167037D01*
X59274466Y-58218557D01*
X59430991Y-58302222D01*
X59466729Y-58331552D01*
X59568186Y-58414814D01*
X59651448Y-58516271D01*
X59680778Y-58552009D01*
X59764443Y-58708534D01*
X59815963Y-58878373D01*
X59833359Y-59055000D01*
X59815963Y-59231627D01*
X59764443Y-59401466D01*
X59680778Y-59557991D01*
X59651448Y-59593729D01*
X59568186Y-59695186D01*
X59466729Y-59778448D01*
X59430991Y-59807778D01*
X59274466Y-59891443D01*
X59104627Y-59942963D01*
X59038442Y-59949482D01*
X58972260Y-59956000D01*
X58883740Y-59956000D01*
X58817558Y-59949482D01*
X58751373Y-59942963D01*
X58581534Y-59891443D01*
X58425009Y-59807778D01*
X58389271Y-59778448D01*
X58287814Y-59695186D01*
X58204552Y-59593729D01*
X58175222Y-59557991D01*
X58091557Y-59401466D01*
X58040037Y-59231627D01*
X58022641Y-59055000D01*
X58040037Y-58878373D01*
X58091557Y-58708534D01*
X58175222Y-58552009D01*
X58204552Y-58516271D01*
X58287814Y-58414814D01*
X58389271Y-58331552D01*
X58425009Y-58302222D01*
X58581534Y-58218557D01*
X58751373Y-58167037D01*
X58817558Y-58160518D01*
X58883740Y-58154000D01*
X58972260Y-58154000D01*
X59038442Y-58160518D01*
X59038442Y-58160518D01*
G37*
G36*
X56498442Y-58160518D02*
G01*
X56564627Y-58167037D01*
X56734466Y-58218557D01*
X56890991Y-58302222D01*
X56926729Y-58331552D01*
X57028186Y-58414814D01*
X57111448Y-58516271D01*
X57140778Y-58552009D01*
X57224443Y-58708534D01*
X57275963Y-58878373D01*
X57293359Y-59055000D01*
X57275963Y-59231627D01*
X57224443Y-59401466D01*
X57140778Y-59557991D01*
X57111448Y-59593729D01*
X57028186Y-59695186D01*
X56926729Y-59778448D01*
X56890991Y-59807778D01*
X56734466Y-59891443D01*
X56564627Y-59942963D01*
X56498442Y-59949482D01*
X56432260Y-59956000D01*
X56343740Y-59956000D01*
X56277558Y-59949482D01*
X56211373Y-59942963D01*
X56041534Y-59891443D01*
X55885009Y-59807778D01*
X55849271Y-59778448D01*
X55747814Y-59695186D01*
X55664552Y-59593729D01*
X55635222Y-59557991D01*
X55551557Y-59401466D01*
X55500037Y-59231627D01*
X55482641Y-59055000D01*
X55500037Y-58878373D01*
X55551557Y-58708534D01*
X55635222Y-58552009D01*
X55664552Y-58516271D01*
X55747814Y-58414814D01*
X55849271Y-58331552D01*
X55885009Y-58302222D01*
X56041534Y-58218557D01*
X56211373Y-58167037D01*
X56277558Y-58160518D01*
X56343740Y-58154000D01*
X56432260Y-58154000D01*
X56498442Y-58160518D01*
X56498442Y-58160518D01*
G37*
G36*
X53958442Y-58160518D02*
G01*
X54024627Y-58167037D01*
X54194466Y-58218557D01*
X54350991Y-58302222D01*
X54386729Y-58331552D01*
X54488186Y-58414814D01*
X54571448Y-58516271D01*
X54600778Y-58552009D01*
X54684443Y-58708534D01*
X54735963Y-58878373D01*
X54753359Y-59055000D01*
X54735963Y-59231627D01*
X54684443Y-59401466D01*
X54600778Y-59557991D01*
X54571448Y-59593729D01*
X54488186Y-59695186D01*
X54386729Y-59778448D01*
X54350991Y-59807778D01*
X54194466Y-59891443D01*
X54024627Y-59942963D01*
X53958442Y-59949482D01*
X53892260Y-59956000D01*
X53803740Y-59956000D01*
X53737558Y-59949482D01*
X53671373Y-59942963D01*
X53501534Y-59891443D01*
X53345009Y-59807778D01*
X53309271Y-59778448D01*
X53207814Y-59695186D01*
X53124552Y-59593729D01*
X53095222Y-59557991D01*
X53011557Y-59401466D01*
X52960037Y-59231627D01*
X52942641Y-59055000D01*
X52960037Y-58878373D01*
X53011557Y-58708534D01*
X53095222Y-58552009D01*
X53124552Y-58516271D01*
X53207814Y-58414814D01*
X53309271Y-58331552D01*
X53345009Y-58302222D01*
X53501534Y-58218557D01*
X53671373Y-58167037D01*
X53737558Y-58160518D01*
X53803740Y-58154000D01*
X53892260Y-58154000D01*
X53958442Y-58160518D01*
X53958442Y-58160518D01*
G37*
G36*
X51418442Y-58160518D02*
G01*
X51484627Y-58167037D01*
X51654466Y-58218557D01*
X51810991Y-58302222D01*
X51846729Y-58331552D01*
X51948186Y-58414814D01*
X52031448Y-58516271D01*
X52060778Y-58552009D01*
X52144443Y-58708534D01*
X52195963Y-58878373D01*
X52213359Y-59055000D01*
X52195963Y-59231627D01*
X52144443Y-59401466D01*
X52060778Y-59557991D01*
X52031448Y-59593729D01*
X51948186Y-59695186D01*
X51846729Y-59778448D01*
X51810991Y-59807778D01*
X51654466Y-59891443D01*
X51484627Y-59942963D01*
X51418442Y-59949482D01*
X51352260Y-59956000D01*
X51263740Y-59956000D01*
X51197558Y-59949482D01*
X51131373Y-59942963D01*
X50961534Y-59891443D01*
X50805009Y-59807778D01*
X50769271Y-59778448D01*
X50667814Y-59695186D01*
X50584552Y-59593729D01*
X50555222Y-59557991D01*
X50471557Y-59401466D01*
X50420037Y-59231627D01*
X50402641Y-59055000D01*
X50420037Y-58878373D01*
X50471557Y-58708534D01*
X50555222Y-58552009D01*
X50584552Y-58516271D01*
X50667814Y-58414814D01*
X50769271Y-58331552D01*
X50805009Y-58302222D01*
X50961534Y-58218557D01*
X51131373Y-58167037D01*
X51197558Y-58160518D01*
X51263740Y-58154000D01*
X51352260Y-58154000D01*
X51418442Y-58160518D01*
X51418442Y-58160518D01*
G37*
G36*
X49669000Y-59956000D02*
G01*
X47867000Y-59956000D01*
X47867000Y-58154000D01*
X49669000Y-58154000D01*
X49669000Y-59956000D01*
X49669000Y-59956000D01*
G37*
G36*
X92058442Y-58160518D02*
G01*
X92124627Y-58167037D01*
X92294466Y-58218557D01*
X92450991Y-58302222D01*
X92486729Y-58331552D01*
X92588186Y-58414814D01*
X92671448Y-58516271D01*
X92700778Y-58552009D01*
X92784443Y-58708534D01*
X92835963Y-58878373D01*
X92853359Y-59055000D01*
X92835963Y-59231627D01*
X92784443Y-59401466D01*
X92700778Y-59557991D01*
X92671448Y-59593729D01*
X92588186Y-59695186D01*
X92486729Y-59778448D01*
X92450991Y-59807778D01*
X92294466Y-59891443D01*
X92124627Y-59942963D01*
X92058442Y-59949482D01*
X91992260Y-59956000D01*
X91903740Y-59956000D01*
X91837558Y-59949482D01*
X91771373Y-59942963D01*
X91601534Y-59891443D01*
X91445009Y-59807778D01*
X91409271Y-59778448D01*
X91307814Y-59695186D01*
X91224552Y-59593729D01*
X91195222Y-59557991D01*
X91111557Y-59401466D01*
X91060037Y-59231627D01*
X91042641Y-59055000D01*
X91060037Y-58878373D01*
X91111557Y-58708534D01*
X91195222Y-58552009D01*
X91224552Y-58516271D01*
X91307814Y-58414814D01*
X91409271Y-58331552D01*
X91445009Y-58302222D01*
X91601534Y-58218557D01*
X91771373Y-58167037D01*
X91837558Y-58160518D01*
X91903740Y-58154000D01*
X91992260Y-58154000D01*
X92058442Y-58160518D01*
X92058442Y-58160518D01*
G37*
G36*
X94598442Y-58160518D02*
G01*
X94664627Y-58167037D01*
X94834466Y-58218557D01*
X94990991Y-58302222D01*
X95026729Y-58331552D01*
X95128186Y-58414814D01*
X95211448Y-58516271D01*
X95240778Y-58552009D01*
X95324443Y-58708534D01*
X95375963Y-58878373D01*
X95393359Y-59055000D01*
X95375963Y-59231627D01*
X95324443Y-59401466D01*
X95240778Y-59557991D01*
X95211448Y-59593729D01*
X95128186Y-59695186D01*
X95026729Y-59778448D01*
X94990991Y-59807778D01*
X94834466Y-59891443D01*
X94664627Y-59942963D01*
X94598442Y-59949482D01*
X94532260Y-59956000D01*
X94443740Y-59956000D01*
X94377558Y-59949482D01*
X94311373Y-59942963D01*
X94141534Y-59891443D01*
X93985009Y-59807778D01*
X93949271Y-59778448D01*
X93847814Y-59695186D01*
X93764552Y-59593729D01*
X93735222Y-59557991D01*
X93651557Y-59401466D01*
X93600037Y-59231627D01*
X93582641Y-59055000D01*
X93600037Y-58878373D01*
X93651557Y-58708534D01*
X93735222Y-58552009D01*
X93764552Y-58516271D01*
X93847814Y-58414814D01*
X93949271Y-58331552D01*
X93985009Y-58302222D01*
X94141534Y-58218557D01*
X94311373Y-58167037D01*
X94377558Y-58160518D01*
X94443740Y-58154000D01*
X94532260Y-58154000D01*
X94598442Y-58160518D01*
X94598442Y-58160518D01*
G37*
G36*
X97138442Y-58160518D02*
G01*
X97204627Y-58167037D01*
X97374466Y-58218557D01*
X97530991Y-58302222D01*
X97566729Y-58331552D01*
X97668186Y-58414814D01*
X97751448Y-58516271D01*
X97780778Y-58552009D01*
X97864443Y-58708534D01*
X97915963Y-58878373D01*
X97933359Y-59055000D01*
X97915963Y-59231627D01*
X97864443Y-59401466D01*
X97780778Y-59557991D01*
X97751448Y-59593729D01*
X97668186Y-59695186D01*
X97566729Y-59778448D01*
X97530991Y-59807778D01*
X97374466Y-59891443D01*
X97204627Y-59942963D01*
X97138442Y-59949482D01*
X97072260Y-59956000D01*
X96983740Y-59956000D01*
X96917558Y-59949482D01*
X96851373Y-59942963D01*
X96681534Y-59891443D01*
X96525009Y-59807778D01*
X96489271Y-59778448D01*
X96387814Y-59695186D01*
X96304552Y-59593729D01*
X96275222Y-59557991D01*
X96191557Y-59401466D01*
X96140037Y-59231627D01*
X96122641Y-59055000D01*
X96140037Y-58878373D01*
X96191557Y-58708534D01*
X96275222Y-58552009D01*
X96304552Y-58516271D01*
X96387814Y-58414814D01*
X96489271Y-58331552D01*
X96525009Y-58302222D01*
X96681534Y-58218557D01*
X96851373Y-58167037D01*
X96917558Y-58160518D01*
X96983740Y-58154000D01*
X97072260Y-58154000D01*
X97138442Y-58160518D01*
X97138442Y-58160518D01*
G37*
G36*
X76818442Y-58160518D02*
G01*
X76884627Y-58167037D01*
X77054466Y-58218557D01*
X77210991Y-58302222D01*
X77246729Y-58331552D01*
X77348186Y-58414814D01*
X77431448Y-58516271D01*
X77460778Y-58552009D01*
X77544443Y-58708534D01*
X77595963Y-58878373D01*
X77613359Y-59055000D01*
X77595963Y-59231627D01*
X77544443Y-59401466D01*
X77460778Y-59557991D01*
X77431448Y-59593729D01*
X77348186Y-59695186D01*
X77246729Y-59778448D01*
X77210991Y-59807778D01*
X77054466Y-59891443D01*
X76884627Y-59942963D01*
X76818442Y-59949482D01*
X76752260Y-59956000D01*
X76663740Y-59956000D01*
X76597558Y-59949482D01*
X76531373Y-59942963D01*
X76361534Y-59891443D01*
X76205009Y-59807778D01*
X76169271Y-59778448D01*
X76067814Y-59695186D01*
X75984552Y-59593729D01*
X75955222Y-59557991D01*
X75871557Y-59401466D01*
X75820037Y-59231627D01*
X75802641Y-59055000D01*
X75820037Y-58878373D01*
X75871557Y-58708534D01*
X75955222Y-58552009D01*
X75984552Y-58516271D01*
X76067814Y-58414814D01*
X76169271Y-58331552D01*
X76205009Y-58302222D01*
X76361534Y-58218557D01*
X76531373Y-58167037D01*
X76597558Y-58160518D01*
X76663740Y-58154000D01*
X76752260Y-58154000D01*
X76818442Y-58160518D01*
X76818442Y-58160518D01*
G37*
G36*
X66658442Y-58160518D02*
G01*
X66724627Y-58167037D01*
X66894466Y-58218557D01*
X67050991Y-58302222D01*
X67086729Y-58331552D01*
X67188186Y-58414814D01*
X67271448Y-58516271D01*
X67300778Y-58552009D01*
X67384443Y-58708534D01*
X67435963Y-58878373D01*
X67453359Y-59055000D01*
X67435963Y-59231627D01*
X67384443Y-59401466D01*
X67300778Y-59557991D01*
X67271448Y-59593729D01*
X67188186Y-59695186D01*
X67086729Y-59778448D01*
X67050991Y-59807778D01*
X66894466Y-59891443D01*
X66724627Y-59942963D01*
X66658442Y-59949482D01*
X66592260Y-59956000D01*
X66503740Y-59956000D01*
X66437558Y-59949482D01*
X66371373Y-59942963D01*
X66201534Y-59891443D01*
X66045009Y-59807778D01*
X66009271Y-59778448D01*
X65907814Y-59695186D01*
X65824552Y-59593729D01*
X65795222Y-59557991D01*
X65711557Y-59401466D01*
X65660037Y-59231627D01*
X65642641Y-59055000D01*
X65660037Y-58878373D01*
X65711557Y-58708534D01*
X65795222Y-58552009D01*
X65824552Y-58516271D01*
X65907814Y-58414814D01*
X66009271Y-58331552D01*
X66045009Y-58302222D01*
X66201534Y-58218557D01*
X66371373Y-58167037D01*
X66437558Y-58160518D01*
X66503740Y-58154000D01*
X66592260Y-58154000D01*
X66658442Y-58160518D01*
X66658442Y-58160518D01*
G37*
G36*
X89518442Y-58160518D02*
G01*
X89584627Y-58167037D01*
X89754466Y-58218557D01*
X89910991Y-58302222D01*
X89946729Y-58331552D01*
X90048186Y-58414814D01*
X90131448Y-58516271D01*
X90160778Y-58552009D01*
X90244443Y-58708534D01*
X90295963Y-58878373D01*
X90313359Y-59055000D01*
X90295963Y-59231627D01*
X90244443Y-59401466D01*
X90160778Y-59557991D01*
X90131448Y-59593729D01*
X90048186Y-59695186D01*
X89946729Y-59778448D01*
X89910991Y-59807778D01*
X89754466Y-59891443D01*
X89584627Y-59942963D01*
X89518442Y-59949482D01*
X89452260Y-59956000D01*
X89363740Y-59956000D01*
X89297558Y-59949482D01*
X89231373Y-59942963D01*
X89061534Y-59891443D01*
X88905009Y-59807778D01*
X88869271Y-59778448D01*
X88767814Y-59695186D01*
X88684552Y-59593729D01*
X88655222Y-59557991D01*
X88571557Y-59401466D01*
X88520037Y-59231627D01*
X88502641Y-59055000D01*
X88520037Y-58878373D01*
X88571557Y-58708534D01*
X88655222Y-58552009D01*
X88684552Y-58516271D01*
X88767814Y-58414814D01*
X88869271Y-58331552D01*
X88905009Y-58302222D01*
X89061534Y-58218557D01*
X89231373Y-58167037D01*
X89297558Y-58160518D01*
X89363740Y-58154000D01*
X89452260Y-58154000D01*
X89518442Y-58160518D01*
X89518442Y-58160518D01*
G37*
G36*
X71738442Y-58160518D02*
G01*
X71804627Y-58167037D01*
X71974466Y-58218557D01*
X72130991Y-58302222D01*
X72166729Y-58331552D01*
X72268186Y-58414814D01*
X72351448Y-58516271D01*
X72380778Y-58552009D01*
X72464443Y-58708534D01*
X72515963Y-58878373D01*
X72533359Y-59055000D01*
X72515963Y-59231627D01*
X72464443Y-59401466D01*
X72380778Y-59557991D01*
X72351448Y-59593729D01*
X72268186Y-59695186D01*
X72166729Y-59778448D01*
X72130991Y-59807778D01*
X71974466Y-59891443D01*
X71804627Y-59942963D01*
X71738442Y-59949482D01*
X71672260Y-59956000D01*
X71583740Y-59956000D01*
X71517558Y-59949482D01*
X71451373Y-59942963D01*
X71281534Y-59891443D01*
X71125009Y-59807778D01*
X71089271Y-59778448D01*
X70987814Y-59695186D01*
X70904552Y-59593729D01*
X70875222Y-59557991D01*
X70791557Y-59401466D01*
X70740037Y-59231627D01*
X70722641Y-59055000D01*
X70740037Y-58878373D01*
X70791557Y-58708534D01*
X70875222Y-58552009D01*
X70904552Y-58516271D01*
X70987814Y-58414814D01*
X71089271Y-58331552D01*
X71125009Y-58302222D01*
X71281534Y-58218557D01*
X71451373Y-58167037D01*
X71517558Y-58160518D01*
X71583740Y-58154000D01*
X71672260Y-58154000D01*
X71738442Y-58160518D01*
X71738442Y-58160518D01*
G37*
G36*
X74278442Y-58160518D02*
G01*
X74344627Y-58167037D01*
X74514466Y-58218557D01*
X74670991Y-58302222D01*
X74706729Y-58331552D01*
X74808186Y-58414814D01*
X74891448Y-58516271D01*
X74920778Y-58552009D01*
X75004443Y-58708534D01*
X75055963Y-58878373D01*
X75073359Y-59055000D01*
X75055963Y-59231627D01*
X75004443Y-59401466D01*
X74920778Y-59557991D01*
X74891448Y-59593729D01*
X74808186Y-59695186D01*
X74706729Y-59778448D01*
X74670991Y-59807778D01*
X74514466Y-59891443D01*
X74344627Y-59942963D01*
X74278442Y-59949482D01*
X74212260Y-59956000D01*
X74123740Y-59956000D01*
X74057558Y-59949482D01*
X73991373Y-59942963D01*
X73821534Y-59891443D01*
X73665009Y-59807778D01*
X73629271Y-59778448D01*
X73527814Y-59695186D01*
X73444552Y-59593729D01*
X73415222Y-59557991D01*
X73331557Y-59401466D01*
X73280037Y-59231627D01*
X73262641Y-59055000D01*
X73280037Y-58878373D01*
X73331557Y-58708534D01*
X73415222Y-58552009D01*
X73444552Y-58516271D01*
X73527814Y-58414814D01*
X73629271Y-58331552D01*
X73665009Y-58302222D01*
X73821534Y-58218557D01*
X73991373Y-58167037D01*
X74057558Y-58160518D01*
X74123740Y-58154000D01*
X74212260Y-58154000D01*
X74278442Y-58160518D01*
X74278442Y-58160518D01*
G37*
G36*
X84438442Y-58160518D02*
G01*
X84504627Y-58167037D01*
X84674466Y-58218557D01*
X84830991Y-58302222D01*
X84866729Y-58331552D01*
X84968186Y-58414814D01*
X85051448Y-58516271D01*
X85080778Y-58552009D01*
X85164443Y-58708534D01*
X85215963Y-58878373D01*
X85233359Y-59055000D01*
X85215963Y-59231627D01*
X85164443Y-59401466D01*
X85080778Y-59557991D01*
X85051448Y-59593729D01*
X84968186Y-59695186D01*
X84866729Y-59778448D01*
X84830991Y-59807778D01*
X84674466Y-59891443D01*
X84504627Y-59942963D01*
X84438442Y-59949482D01*
X84372260Y-59956000D01*
X84283740Y-59956000D01*
X84217558Y-59949482D01*
X84151373Y-59942963D01*
X83981534Y-59891443D01*
X83825009Y-59807778D01*
X83789271Y-59778448D01*
X83687814Y-59695186D01*
X83604552Y-59593729D01*
X83575222Y-59557991D01*
X83491557Y-59401466D01*
X83440037Y-59231627D01*
X83422641Y-59055000D01*
X83440037Y-58878373D01*
X83491557Y-58708534D01*
X83575222Y-58552009D01*
X83604552Y-58516271D01*
X83687814Y-58414814D01*
X83789271Y-58331552D01*
X83825009Y-58302222D01*
X83981534Y-58218557D01*
X84151373Y-58167037D01*
X84217558Y-58160518D01*
X84283740Y-58154000D01*
X84372260Y-58154000D01*
X84438442Y-58160518D01*
X84438442Y-58160518D01*
G37*
G36*
X69198442Y-58160518D02*
G01*
X69264627Y-58167037D01*
X69434466Y-58218557D01*
X69590991Y-58302222D01*
X69626729Y-58331552D01*
X69728186Y-58414814D01*
X69811448Y-58516271D01*
X69840778Y-58552009D01*
X69924443Y-58708534D01*
X69975963Y-58878373D01*
X69993359Y-59055000D01*
X69975963Y-59231627D01*
X69924443Y-59401466D01*
X69840778Y-59557991D01*
X69811448Y-59593729D01*
X69728186Y-59695186D01*
X69626729Y-59778448D01*
X69590991Y-59807778D01*
X69434466Y-59891443D01*
X69264627Y-59942963D01*
X69198442Y-59949482D01*
X69132260Y-59956000D01*
X69043740Y-59956000D01*
X68977558Y-59949482D01*
X68911373Y-59942963D01*
X68741534Y-59891443D01*
X68585009Y-59807778D01*
X68549271Y-59778448D01*
X68447814Y-59695186D01*
X68364552Y-59593729D01*
X68335222Y-59557991D01*
X68251557Y-59401466D01*
X68200037Y-59231627D01*
X68182641Y-59055000D01*
X68200037Y-58878373D01*
X68251557Y-58708534D01*
X68335222Y-58552009D01*
X68364552Y-58516271D01*
X68447814Y-58414814D01*
X68549271Y-58331552D01*
X68585009Y-58302222D01*
X68741534Y-58218557D01*
X68911373Y-58167037D01*
X68977558Y-58160518D01*
X69043740Y-58154000D01*
X69132260Y-58154000D01*
X69198442Y-58160518D01*
X69198442Y-58160518D01*
G37*
G36*
X86978442Y-58160518D02*
G01*
X87044627Y-58167037D01*
X87214466Y-58218557D01*
X87370991Y-58302222D01*
X87406729Y-58331552D01*
X87508186Y-58414814D01*
X87591448Y-58516271D01*
X87620778Y-58552009D01*
X87704443Y-58708534D01*
X87755963Y-58878373D01*
X87773359Y-59055000D01*
X87755963Y-59231627D01*
X87704443Y-59401466D01*
X87620778Y-59557991D01*
X87591448Y-59593729D01*
X87508186Y-59695186D01*
X87406729Y-59778448D01*
X87370991Y-59807778D01*
X87214466Y-59891443D01*
X87044627Y-59942963D01*
X86978442Y-59949482D01*
X86912260Y-59956000D01*
X86823740Y-59956000D01*
X86757558Y-59949482D01*
X86691373Y-59942963D01*
X86521534Y-59891443D01*
X86365009Y-59807778D01*
X86329271Y-59778448D01*
X86227814Y-59695186D01*
X86144552Y-59593729D01*
X86115222Y-59557991D01*
X86031557Y-59401466D01*
X85980037Y-59231627D01*
X85962641Y-59055000D01*
X85980037Y-58878373D01*
X86031557Y-58708534D01*
X86115222Y-58552009D01*
X86144552Y-58516271D01*
X86227814Y-58414814D01*
X86329271Y-58331552D01*
X86365009Y-58302222D01*
X86521534Y-58218557D01*
X86691373Y-58167037D01*
X86757558Y-58160518D01*
X86823740Y-58154000D01*
X86912260Y-58154000D01*
X86978442Y-58160518D01*
X86978442Y-58160518D01*
G37*
G36*
X79358442Y-58160518D02*
G01*
X79424627Y-58167037D01*
X79594466Y-58218557D01*
X79750991Y-58302222D01*
X79786729Y-58331552D01*
X79888186Y-58414814D01*
X79971448Y-58516271D01*
X80000778Y-58552009D01*
X80084443Y-58708534D01*
X80135963Y-58878373D01*
X80153359Y-59055000D01*
X80135963Y-59231627D01*
X80084443Y-59401466D01*
X80000778Y-59557991D01*
X79971448Y-59593729D01*
X79888186Y-59695186D01*
X79786729Y-59778448D01*
X79750991Y-59807778D01*
X79594466Y-59891443D01*
X79424627Y-59942963D01*
X79358442Y-59949482D01*
X79292260Y-59956000D01*
X79203740Y-59956000D01*
X79137558Y-59949482D01*
X79071373Y-59942963D01*
X78901534Y-59891443D01*
X78745009Y-59807778D01*
X78709271Y-59778448D01*
X78607814Y-59695186D01*
X78524552Y-59593729D01*
X78495222Y-59557991D01*
X78411557Y-59401466D01*
X78360037Y-59231627D01*
X78342641Y-59055000D01*
X78360037Y-58878373D01*
X78411557Y-58708534D01*
X78495222Y-58552009D01*
X78524552Y-58516271D01*
X78607814Y-58414814D01*
X78709271Y-58331552D01*
X78745009Y-58302222D01*
X78901534Y-58218557D01*
X79071373Y-58167037D01*
X79137558Y-58160518D01*
X79203740Y-58154000D01*
X79292260Y-58154000D01*
X79358442Y-58160518D01*
X79358442Y-58160518D01*
G37*
G36*
X81898442Y-58160518D02*
G01*
X81964627Y-58167037D01*
X82134466Y-58218557D01*
X82290991Y-58302222D01*
X82326729Y-58331552D01*
X82428186Y-58414814D01*
X82511448Y-58516271D01*
X82540778Y-58552009D01*
X82624443Y-58708534D01*
X82675963Y-58878373D01*
X82693359Y-59055000D01*
X82675963Y-59231627D01*
X82624443Y-59401466D01*
X82540778Y-59557991D01*
X82511448Y-59593729D01*
X82428186Y-59695186D01*
X82326729Y-59778448D01*
X82290991Y-59807778D01*
X82134466Y-59891443D01*
X81964627Y-59942963D01*
X81898442Y-59949482D01*
X81832260Y-59956000D01*
X81743740Y-59956000D01*
X81677558Y-59949482D01*
X81611373Y-59942963D01*
X81441534Y-59891443D01*
X81285009Y-59807778D01*
X81249271Y-59778448D01*
X81147814Y-59695186D01*
X81064552Y-59593729D01*
X81035222Y-59557991D01*
X80951557Y-59401466D01*
X80900037Y-59231627D01*
X80882641Y-59055000D01*
X80900037Y-58878373D01*
X80951557Y-58708534D01*
X81035222Y-58552009D01*
X81064552Y-58516271D01*
X81147814Y-58414814D01*
X81249271Y-58331552D01*
X81285009Y-58302222D01*
X81441534Y-58218557D01*
X81611373Y-58167037D01*
X81677558Y-58160518D01*
X81743740Y-58154000D01*
X81832260Y-58154000D01*
X81898442Y-58160518D01*
X81898442Y-58160518D01*
G37*
G36*
X64118442Y-58160518D02*
G01*
X64184627Y-58167037D01*
X64354466Y-58218557D01*
X64510991Y-58302222D01*
X64546729Y-58331552D01*
X64648186Y-58414814D01*
X64731448Y-58516271D01*
X64760778Y-58552009D01*
X64844443Y-58708534D01*
X64895963Y-58878373D01*
X64913359Y-59055000D01*
X64895963Y-59231627D01*
X64844443Y-59401466D01*
X64760778Y-59557991D01*
X64731448Y-59593729D01*
X64648186Y-59695186D01*
X64546729Y-59778448D01*
X64510991Y-59807778D01*
X64354466Y-59891443D01*
X64184627Y-59942963D01*
X64118442Y-59949482D01*
X64052260Y-59956000D01*
X63963740Y-59956000D01*
X63897558Y-59949482D01*
X63831373Y-59942963D01*
X63661534Y-59891443D01*
X63505009Y-59807778D01*
X63469271Y-59778448D01*
X63367814Y-59695186D01*
X63284552Y-59593729D01*
X63255222Y-59557991D01*
X63171557Y-59401466D01*
X63120037Y-59231627D01*
X63102641Y-59055000D01*
X63120037Y-58878373D01*
X63171557Y-58708534D01*
X63255222Y-58552009D01*
X63284552Y-58516271D01*
X63367814Y-58414814D01*
X63469271Y-58331552D01*
X63505009Y-58302222D01*
X63661534Y-58218557D01*
X63831373Y-58167037D01*
X63897558Y-58160518D01*
X63963740Y-58154000D01*
X64052260Y-58154000D01*
X64118442Y-58160518D01*
X64118442Y-58160518D01*
G37*
G36*
X48651604Y-55161547D02*
G01*
X48688144Y-55172632D01*
X48721821Y-55190633D01*
X48751341Y-55214859D01*
X48775567Y-55244379D01*
X48793568Y-55278056D01*
X48804653Y-55314596D01*
X48809000Y-55358738D01*
X48809000Y-56807662D01*
X48804653Y-56851804D01*
X48793568Y-56888344D01*
X48775567Y-56922021D01*
X48751341Y-56951541D01*
X48721821Y-56975767D01*
X48688144Y-56993768D01*
X48651604Y-57004853D01*
X48607462Y-57009200D01*
X47658538Y-57009200D01*
X47614396Y-57004853D01*
X47577856Y-56993768D01*
X47544179Y-56975767D01*
X47514659Y-56951541D01*
X47490433Y-56922021D01*
X47472432Y-56888344D01*
X47461347Y-56851804D01*
X47457000Y-56807662D01*
X47457000Y-55358738D01*
X47461347Y-55314596D01*
X47472432Y-55278056D01*
X47490433Y-55244379D01*
X47514659Y-55214859D01*
X47544179Y-55190633D01*
X47577856Y-55172632D01*
X47614396Y-55161547D01*
X47658538Y-55157200D01*
X48607462Y-55157200D01*
X48651604Y-55161547D01*
X48651604Y-55161547D01*
G37*
G36*
X51451604Y-55161547D02*
G01*
X51488144Y-55172632D01*
X51521821Y-55190633D01*
X51551341Y-55214859D01*
X51575567Y-55244379D01*
X51593568Y-55278056D01*
X51604653Y-55314596D01*
X51609000Y-55358738D01*
X51609000Y-56807662D01*
X51604653Y-56851804D01*
X51593568Y-56888344D01*
X51575567Y-56922021D01*
X51551341Y-56951541D01*
X51521821Y-56975767D01*
X51488144Y-56993768D01*
X51451604Y-57004853D01*
X51407462Y-57009200D01*
X50458538Y-57009200D01*
X50414396Y-57004853D01*
X50377856Y-56993768D01*
X50344179Y-56975767D01*
X50314659Y-56951541D01*
X50290433Y-56922021D01*
X50272432Y-56888344D01*
X50261347Y-56851804D01*
X50257000Y-56807662D01*
X50257000Y-55358738D01*
X50261347Y-55314596D01*
X50272432Y-55278056D01*
X50290433Y-55244379D01*
X50314659Y-55214859D01*
X50344179Y-55190633D01*
X50377856Y-55172632D01*
X50414396Y-55161547D01*
X50458538Y-55157200D01*
X51407462Y-55157200D01*
X51451604Y-55161547D01*
X51451604Y-55161547D01*
G37*
G36*
X71006604Y-53688347D02*
G01*
X71043144Y-53699432D01*
X71076821Y-53717433D01*
X71106341Y-53741659D01*
X71130567Y-53771179D01*
X71148568Y-53804856D01*
X71159653Y-53841396D01*
X71164000Y-53885538D01*
X71164000Y-55334462D01*
X71159653Y-55378604D01*
X71148568Y-55415144D01*
X71130567Y-55448821D01*
X71106341Y-55478341D01*
X71076821Y-55502567D01*
X71043144Y-55520568D01*
X71006604Y-55531653D01*
X70962462Y-55536000D01*
X70013538Y-55536000D01*
X69969396Y-55531653D01*
X69932856Y-55520568D01*
X69899179Y-55502567D01*
X69869659Y-55478341D01*
X69845433Y-55448821D01*
X69827432Y-55415144D01*
X69816347Y-55378604D01*
X69812000Y-55334462D01*
X69812000Y-53885538D01*
X69816347Y-53841396D01*
X69827432Y-53804856D01*
X69845433Y-53771179D01*
X69869659Y-53741659D01*
X69899179Y-53717433D01*
X69932856Y-53699432D01*
X69969396Y-53688347D01*
X70013538Y-53684000D01*
X70962462Y-53684000D01*
X71006604Y-53688347D01*
X71006604Y-53688347D01*
G37*
G36*
X68206604Y-53688347D02*
G01*
X68243144Y-53699432D01*
X68276821Y-53717433D01*
X68306341Y-53741659D01*
X68330567Y-53771179D01*
X68348568Y-53804856D01*
X68359653Y-53841396D01*
X68364000Y-53885538D01*
X68364000Y-55334462D01*
X68359653Y-55378604D01*
X68348568Y-55415144D01*
X68330567Y-55448821D01*
X68306341Y-55478341D01*
X68276821Y-55502567D01*
X68243144Y-55520568D01*
X68206604Y-55531653D01*
X68162462Y-55536000D01*
X67213538Y-55536000D01*
X67169396Y-55531653D01*
X67132856Y-55520568D01*
X67099179Y-55502567D01*
X67069659Y-55478341D01*
X67045433Y-55448821D01*
X67027432Y-55415144D01*
X67016347Y-55378604D01*
X67012000Y-55334462D01*
X67012000Y-53885538D01*
X67016347Y-53841396D01*
X67027432Y-53804856D01*
X67045433Y-53771179D01*
X67069659Y-53741659D01*
X67099179Y-53717433D01*
X67132856Y-53699432D01*
X67169396Y-53688347D01*
X67213538Y-53684000D01*
X68162462Y-53684000D01*
X68206604Y-53688347D01*
X68206604Y-53688347D01*
G37*
G36*
X76433642Y-53712781D02*
G01*
X76579414Y-53773162D01*
X76579416Y-53773163D01*
X76710608Y-53860822D01*
X76822178Y-53972392D01*
X76909837Y-54103584D01*
X76909838Y-54103586D01*
X76970219Y-54249358D01*
X77001000Y-54404107D01*
X77001000Y-54561893D01*
X76970219Y-54716642D01*
X76909838Y-54862414D01*
X76909837Y-54862416D01*
X76822178Y-54993608D01*
X76710608Y-55105178D01*
X76579416Y-55192837D01*
X76579415Y-55192838D01*
X76579414Y-55192838D01*
X76433642Y-55253219D01*
X76278893Y-55284000D01*
X76121107Y-55284000D01*
X75966358Y-55253219D01*
X75820586Y-55192838D01*
X75820585Y-55192838D01*
X75820584Y-55192837D01*
X75689392Y-55105178D01*
X75577822Y-54993608D01*
X75490163Y-54862416D01*
X75490162Y-54862414D01*
X75429781Y-54716642D01*
X75399000Y-54561893D01*
X75399000Y-54404107D01*
X75429781Y-54249358D01*
X75490162Y-54103586D01*
X75490163Y-54103584D01*
X75577822Y-53972392D01*
X75689392Y-53860822D01*
X75820584Y-53773163D01*
X75820586Y-53773162D01*
X75966358Y-53712781D01*
X76121107Y-53682000D01*
X76278893Y-53682000D01*
X76433642Y-53712781D01*
X76433642Y-53712781D01*
G37*
G36*
X73766642Y-53712781D02*
G01*
X73912414Y-53773162D01*
X73912416Y-53773163D01*
X74043608Y-53860822D01*
X74155178Y-53972392D01*
X74242837Y-54103584D01*
X74242838Y-54103586D01*
X74303219Y-54249358D01*
X74334000Y-54404107D01*
X74334000Y-54561893D01*
X74303219Y-54716642D01*
X74242838Y-54862414D01*
X74242837Y-54862416D01*
X74155178Y-54993608D01*
X74043608Y-55105178D01*
X73912416Y-55192837D01*
X73912415Y-55192838D01*
X73912414Y-55192838D01*
X73766642Y-55253219D01*
X73611893Y-55284000D01*
X73454107Y-55284000D01*
X73299358Y-55253219D01*
X73153586Y-55192838D01*
X73153585Y-55192838D01*
X73153584Y-55192837D01*
X73022392Y-55105178D01*
X72910822Y-54993608D01*
X72823163Y-54862416D01*
X72823162Y-54862414D01*
X72762781Y-54716642D01*
X72732000Y-54561893D01*
X72732000Y-54404107D01*
X72762781Y-54249358D01*
X72823162Y-54103586D01*
X72823163Y-54103584D01*
X72910822Y-53972392D01*
X73022392Y-53860822D01*
X73153584Y-53773163D01*
X73153586Y-53773162D01*
X73299358Y-53712781D01*
X73454107Y-53682000D01*
X73611893Y-53682000D01*
X73766642Y-53712781D01*
X73766642Y-53712781D01*
G37*
G36*
X50297442Y-51472518D02*
G01*
X50363627Y-51479037D01*
X50533466Y-51530557D01*
X50689991Y-51614222D01*
X50725729Y-51643552D01*
X50827186Y-51726814D01*
X50910448Y-51828271D01*
X50939778Y-51864009D01*
X51023443Y-52020534D01*
X51074963Y-52190373D01*
X51092359Y-52367000D01*
X51074963Y-52543627D01*
X51023443Y-52713466D01*
X50939778Y-52869991D01*
X50910448Y-52905729D01*
X50827186Y-53007186D01*
X50725729Y-53090448D01*
X50689991Y-53119778D01*
X50533466Y-53203443D01*
X50363627Y-53254963D01*
X50297442Y-53261482D01*
X50231260Y-53268000D01*
X49142740Y-53268000D01*
X49076558Y-53261482D01*
X49010373Y-53254963D01*
X48840534Y-53203443D01*
X48684009Y-53119778D01*
X48648271Y-53090448D01*
X48546814Y-53007186D01*
X48463552Y-52905729D01*
X48434222Y-52869991D01*
X48350557Y-52713466D01*
X48299037Y-52543627D01*
X48281641Y-52367000D01*
X48299037Y-52190373D01*
X48350557Y-52020534D01*
X48434222Y-51864009D01*
X48463552Y-51828271D01*
X48546814Y-51726814D01*
X48648271Y-51643552D01*
X48684009Y-51614222D01*
X48840534Y-51530557D01*
X49010373Y-51479037D01*
X49076558Y-51472518D01*
X49142740Y-51466000D01*
X50231260Y-51466000D01*
X50297442Y-51472518D01*
X50297442Y-51472518D01*
G37*
G36*
X71159823Y-51231313D02*
G01*
X71320242Y-51279976D01*
X71422030Y-51334383D01*
X71468078Y-51358996D01*
X71597659Y-51465341D01*
X71704004Y-51594922D01*
X71704005Y-51594924D01*
X71783024Y-51742758D01*
X71831687Y-51903177D01*
X71848117Y-52070000D01*
X71831687Y-52236823D01*
X71783024Y-52397242D01*
X71712114Y-52529906D01*
X71704004Y-52545078D01*
X71597659Y-52674659D01*
X71468078Y-52781004D01*
X71468076Y-52781005D01*
X71320242Y-52860024D01*
X71159823Y-52908687D01*
X71034804Y-52921000D01*
X70951196Y-52921000D01*
X70826177Y-52908687D01*
X70665758Y-52860024D01*
X70517924Y-52781005D01*
X70517922Y-52781004D01*
X70388341Y-52674659D01*
X70281996Y-52545078D01*
X70273886Y-52529906D01*
X70202976Y-52397242D01*
X70154313Y-52236823D01*
X70137883Y-52070000D01*
X70154313Y-51903177D01*
X70202976Y-51742758D01*
X70281995Y-51594924D01*
X70281996Y-51594922D01*
X70388341Y-51465341D01*
X70517922Y-51358996D01*
X70563970Y-51334383D01*
X70665758Y-51279976D01*
X70826177Y-51231313D01*
X70951196Y-51219000D01*
X71034804Y-51219000D01*
X71159823Y-51231313D01*
X71159823Y-51231313D01*
G37*
G36*
X64224000Y-52921000D02*
G01*
X62522000Y-52921000D01*
X62522000Y-51219000D01*
X64224000Y-51219000D01*
X64224000Y-52921000D01*
X64224000Y-52921000D01*
G37*
G36*
X66079823Y-51231313D02*
G01*
X66240242Y-51279976D01*
X66342030Y-51334383D01*
X66388078Y-51358996D01*
X66517659Y-51465341D01*
X66624004Y-51594922D01*
X66624005Y-51594924D01*
X66703024Y-51742758D01*
X66751687Y-51903177D01*
X66768117Y-52070000D01*
X66751687Y-52236823D01*
X66703024Y-52397242D01*
X66632114Y-52529906D01*
X66624004Y-52545078D01*
X66517659Y-52674659D01*
X66388078Y-52781004D01*
X66388076Y-52781005D01*
X66240242Y-52860024D01*
X66079823Y-52908687D01*
X65954804Y-52921000D01*
X65871196Y-52921000D01*
X65746177Y-52908687D01*
X65585758Y-52860024D01*
X65437924Y-52781005D01*
X65437922Y-52781004D01*
X65308341Y-52674659D01*
X65201996Y-52545078D01*
X65193886Y-52529906D01*
X65122976Y-52397242D01*
X65074313Y-52236823D01*
X65057883Y-52070000D01*
X65074313Y-51903177D01*
X65122976Y-51742758D01*
X65201995Y-51594924D01*
X65201996Y-51594922D01*
X65308341Y-51465341D01*
X65437922Y-51358996D01*
X65483970Y-51334383D01*
X65585758Y-51279976D01*
X65746177Y-51231313D01*
X65871196Y-51219000D01*
X65954804Y-51219000D01*
X66079823Y-51231313D01*
X66079823Y-51231313D01*
G37*
G36*
X78779823Y-51231313D02*
G01*
X78940242Y-51279976D01*
X79042030Y-51334383D01*
X79088078Y-51358996D01*
X79217659Y-51465341D01*
X79324004Y-51594922D01*
X79324005Y-51594924D01*
X79403024Y-51742758D01*
X79451687Y-51903177D01*
X79468117Y-52070000D01*
X79451687Y-52236823D01*
X79403024Y-52397242D01*
X79332114Y-52529906D01*
X79324004Y-52545078D01*
X79217659Y-52674659D01*
X79088078Y-52781004D01*
X79088076Y-52781005D01*
X78940242Y-52860024D01*
X78779823Y-52908687D01*
X78654804Y-52921000D01*
X78571196Y-52921000D01*
X78446177Y-52908687D01*
X78285758Y-52860024D01*
X78137924Y-52781005D01*
X78137922Y-52781004D01*
X78008341Y-52674659D01*
X77901996Y-52545078D01*
X77893886Y-52529906D01*
X77822976Y-52397242D01*
X77774313Y-52236823D01*
X77757883Y-52070000D01*
X77774313Y-51903177D01*
X77822976Y-51742758D01*
X77901995Y-51594924D01*
X77901996Y-51594922D01*
X78008341Y-51465341D01*
X78137922Y-51358996D01*
X78183970Y-51334383D01*
X78285758Y-51279976D01*
X78446177Y-51231313D01*
X78571196Y-51219000D01*
X78654804Y-51219000D01*
X78779823Y-51231313D01*
X78779823Y-51231313D01*
G37*
G36*
X76239823Y-51231313D02*
G01*
X76400242Y-51279976D01*
X76502030Y-51334383D01*
X76548078Y-51358996D01*
X76677659Y-51465341D01*
X76784004Y-51594922D01*
X76784005Y-51594924D01*
X76863024Y-51742758D01*
X76911687Y-51903177D01*
X76928117Y-52070000D01*
X76911687Y-52236823D01*
X76863024Y-52397242D01*
X76792114Y-52529906D01*
X76784004Y-52545078D01*
X76677659Y-52674659D01*
X76548078Y-52781004D01*
X76548076Y-52781005D01*
X76400242Y-52860024D01*
X76239823Y-52908687D01*
X76114804Y-52921000D01*
X76031196Y-52921000D01*
X75906177Y-52908687D01*
X75745758Y-52860024D01*
X75597924Y-52781005D01*
X75597922Y-52781004D01*
X75468341Y-52674659D01*
X75361996Y-52545078D01*
X75353886Y-52529906D01*
X75282976Y-52397242D01*
X75234313Y-52236823D01*
X75217883Y-52070000D01*
X75234313Y-51903177D01*
X75282976Y-51742758D01*
X75361995Y-51594924D01*
X75361996Y-51594922D01*
X75468341Y-51465341D01*
X75597922Y-51358996D01*
X75643970Y-51334383D01*
X75745758Y-51279976D01*
X75906177Y-51231313D01*
X76031196Y-51219000D01*
X76114804Y-51219000D01*
X76239823Y-51231313D01*
X76239823Y-51231313D01*
G37*
G36*
X73699823Y-51231313D02*
G01*
X73860242Y-51279976D01*
X73962030Y-51334383D01*
X74008078Y-51358996D01*
X74137659Y-51465341D01*
X74244004Y-51594922D01*
X74244005Y-51594924D01*
X74323024Y-51742758D01*
X74371687Y-51903177D01*
X74388117Y-52070000D01*
X74371687Y-52236823D01*
X74323024Y-52397242D01*
X74252114Y-52529906D01*
X74244004Y-52545078D01*
X74137659Y-52674659D01*
X74008078Y-52781004D01*
X74008076Y-52781005D01*
X73860242Y-52860024D01*
X73699823Y-52908687D01*
X73574804Y-52921000D01*
X73491196Y-52921000D01*
X73366177Y-52908687D01*
X73205758Y-52860024D01*
X73057924Y-52781005D01*
X73057922Y-52781004D01*
X72928341Y-52674659D01*
X72821996Y-52545078D01*
X72813886Y-52529906D01*
X72742976Y-52397242D01*
X72694313Y-52236823D01*
X72677883Y-52070000D01*
X72694313Y-51903177D01*
X72742976Y-51742758D01*
X72821995Y-51594924D01*
X72821996Y-51594922D01*
X72928341Y-51465341D01*
X73057922Y-51358996D01*
X73103970Y-51334383D01*
X73205758Y-51279976D01*
X73366177Y-51231313D01*
X73491196Y-51219000D01*
X73574804Y-51219000D01*
X73699823Y-51231313D01*
X73699823Y-51231313D01*
G37*
G36*
X68619823Y-51231313D02*
G01*
X68780242Y-51279976D01*
X68882030Y-51334383D01*
X68928078Y-51358996D01*
X69057659Y-51465341D01*
X69164004Y-51594922D01*
X69164005Y-51594924D01*
X69243024Y-51742758D01*
X69291687Y-51903177D01*
X69308117Y-52070000D01*
X69291687Y-52236823D01*
X69243024Y-52397242D01*
X69172114Y-52529906D01*
X69164004Y-52545078D01*
X69057659Y-52674659D01*
X68928078Y-52781004D01*
X68928076Y-52781005D01*
X68780242Y-52860024D01*
X68619823Y-52908687D01*
X68494804Y-52921000D01*
X68411196Y-52921000D01*
X68286177Y-52908687D01*
X68125758Y-52860024D01*
X67977924Y-52781005D01*
X67977922Y-52781004D01*
X67848341Y-52674659D01*
X67741996Y-52545078D01*
X67733886Y-52529906D01*
X67662976Y-52397242D01*
X67614313Y-52236823D01*
X67597883Y-52070000D01*
X67614313Y-51903177D01*
X67662976Y-51742758D01*
X67741995Y-51594924D01*
X67741996Y-51594922D01*
X67848341Y-51465341D01*
X67977922Y-51358996D01*
X68023970Y-51334383D01*
X68125758Y-51279976D01*
X68286177Y-51231313D01*
X68411196Y-51219000D01*
X68494804Y-51219000D01*
X68619823Y-51231313D01*
X68619823Y-51231313D01*
G37*
G36*
X83492548Y-49154326D02*
G01*
X83666157Y-49206990D01*
X83826156Y-49292511D01*
X83846618Y-49309304D01*
X83966397Y-49407603D01*
X84045729Y-49504271D01*
X84081489Y-49547844D01*
X84167010Y-49707843D01*
X84219674Y-49881452D01*
X84233000Y-50016757D01*
X84233000Y-50567244D01*
X84219674Y-50702548D01*
X84167010Y-50876157D01*
X84081489Y-51036156D01*
X84045729Y-51079729D01*
X83966397Y-51176397D01*
X83840185Y-51279975D01*
X83826155Y-51291489D01*
X83666156Y-51377010D01*
X83492547Y-51429674D01*
X83312000Y-51447456D01*
X83131452Y-51429674D01*
X82957843Y-51377010D01*
X82797844Y-51291489D01*
X82724521Y-51231314D01*
X82657603Y-51176397D01*
X82542511Y-51036155D01*
X82456991Y-50876158D01*
X82456621Y-50874938D01*
X82404326Y-50702547D01*
X82391000Y-50567243D01*
X82391000Y-50016756D01*
X82404326Y-49881452D01*
X82456990Y-49707843D01*
X82542512Y-49547844D01*
X82567825Y-49517000D01*
X82657604Y-49407603D01*
X82777383Y-49309304D01*
X82797845Y-49292511D01*
X82957844Y-49206990D01*
X83131453Y-49154326D01*
X83312000Y-49136544D01*
X83492548Y-49154326D01*
X83492548Y-49154326D01*
G37*
G36*
X88572548Y-49154326D02*
G01*
X88746157Y-49206990D01*
X88906156Y-49292511D01*
X88926618Y-49309304D01*
X89046397Y-49407603D01*
X89125729Y-49504271D01*
X89161489Y-49547844D01*
X89247010Y-49707843D01*
X89299674Y-49881452D01*
X89313000Y-50016757D01*
X89313000Y-50567244D01*
X89299674Y-50702548D01*
X89247010Y-50876157D01*
X89161489Y-51036156D01*
X89125729Y-51079729D01*
X89046397Y-51176397D01*
X88920185Y-51279975D01*
X88906155Y-51291489D01*
X88746156Y-51377010D01*
X88572547Y-51429674D01*
X88392000Y-51447456D01*
X88211452Y-51429674D01*
X88037843Y-51377010D01*
X87877844Y-51291489D01*
X87804521Y-51231314D01*
X87737603Y-51176397D01*
X87622511Y-51036155D01*
X87536991Y-50876158D01*
X87536621Y-50874938D01*
X87484326Y-50702547D01*
X87471000Y-50567243D01*
X87471000Y-50016756D01*
X87484326Y-49881452D01*
X87536990Y-49707843D01*
X87622512Y-49547844D01*
X87647825Y-49517000D01*
X87737604Y-49407603D01*
X87857383Y-49309304D01*
X87877845Y-49292511D01*
X88037844Y-49206990D01*
X88211453Y-49154326D01*
X88392000Y-49136544D01*
X88572548Y-49154326D01*
X88572548Y-49154326D01*
G37*
G36*
X86032548Y-49154326D02*
G01*
X86206157Y-49206990D01*
X86366156Y-49292511D01*
X86386618Y-49309304D01*
X86506397Y-49407603D01*
X86585729Y-49504271D01*
X86621489Y-49547844D01*
X86707010Y-49707843D01*
X86759674Y-49881452D01*
X86773000Y-50016757D01*
X86773000Y-50567244D01*
X86759674Y-50702548D01*
X86707010Y-50876157D01*
X86621489Y-51036156D01*
X86585729Y-51079729D01*
X86506397Y-51176397D01*
X86380185Y-51279975D01*
X86366155Y-51291489D01*
X86206156Y-51377010D01*
X86032547Y-51429674D01*
X85852000Y-51447456D01*
X85671452Y-51429674D01*
X85497843Y-51377010D01*
X85337844Y-51291489D01*
X85264521Y-51231314D01*
X85197603Y-51176397D01*
X85082511Y-51036155D01*
X84996991Y-50876158D01*
X84996621Y-50874938D01*
X84944326Y-50702547D01*
X84931000Y-50567243D01*
X84931000Y-50016756D01*
X84944326Y-49881452D01*
X84996990Y-49707843D01*
X85082512Y-49547844D01*
X85107825Y-49517000D01*
X85197604Y-49407603D01*
X85317383Y-49309304D01*
X85337845Y-49292511D01*
X85497844Y-49206990D01*
X85671453Y-49154326D01*
X85852000Y-49136544D01*
X86032548Y-49154326D01*
X86032548Y-49154326D01*
G37*
G36*
X91711561Y-49144966D02*
G01*
X91744383Y-49154923D01*
X91774632Y-49171092D01*
X91801148Y-49192852D01*
X91822908Y-49219368D01*
X91839077Y-49249617D01*
X91849034Y-49282439D01*
X91853000Y-49322713D01*
X91853000Y-51261287D01*
X91849034Y-51301561D01*
X91839077Y-51334383D01*
X91822908Y-51364632D01*
X91801148Y-51391148D01*
X91774632Y-51412908D01*
X91744383Y-51429077D01*
X91711561Y-51439034D01*
X91671287Y-51443000D01*
X90192713Y-51443000D01*
X90152439Y-51439034D01*
X90119617Y-51429077D01*
X90089368Y-51412908D01*
X90062852Y-51391148D01*
X90041092Y-51364632D01*
X90024923Y-51334383D01*
X90014966Y-51301561D01*
X90011000Y-51261287D01*
X90011000Y-49322713D01*
X90014966Y-49282439D01*
X90024923Y-49249617D01*
X90041092Y-49219368D01*
X90062852Y-49192852D01*
X90089368Y-49171092D01*
X90119617Y-49154923D01*
X90152439Y-49144966D01*
X90192713Y-49141000D01*
X91671287Y-49141000D01*
X91711561Y-49144966D01*
X91711561Y-49144966D01*
G37*
G36*
X55429818Y-49724696D02*
G01*
X55543105Y-49759062D01*
X55647512Y-49814869D01*
X55739027Y-49889973D01*
X55814131Y-49981488D01*
X55869938Y-50085895D01*
X55904304Y-50199182D01*
X55915907Y-50317000D01*
X55904304Y-50434818D01*
X55869938Y-50548105D01*
X55814131Y-50652512D01*
X55739027Y-50744027D01*
X55647512Y-50819131D01*
X55543105Y-50874938D01*
X55429818Y-50909304D01*
X55341519Y-50918000D01*
X54732481Y-50918000D01*
X54644182Y-50909304D01*
X54530895Y-50874938D01*
X54426488Y-50819131D01*
X54334973Y-50744027D01*
X54259869Y-50652512D01*
X54204062Y-50548105D01*
X54169696Y-50434818D01*
X54158093Y-50317000D01*
X54169696Y-50199182D01*
X54204062Y-50085895D01*
X54259869Y-49981488D01*
X54334973Y-49889973D01*
X54426488Y-49814869D01*
X54530895Y-49759062D01*
X54644182Y-49724696D01*
X54732481Y-49716000D01*
X55341519Y-49716000D01*
X55429818Y-49724696D01*
X55429818Y-49724696D01*
G37*
G36*
X66691604Y-48481347D02*
G01*
X66728144Y-48492432D01*
X66761821Y-48510433D01*
X66791341Y-48534659D01*
X66815567Y-48564179D01*
X66833568Y-48597856D01*
X66844653Y-48634396D01*
X66849000Y-48678538D01*
X66849000Y-50127462D01*
X66844653Y-50171604D01*
X66833568Y-50208144D01*
X66815567Y-50241821D01*
X66791341Y-50271341D01*
X66761821Y-50295567D01*
X66728144Y-50313568D01*
X66691604Y-50324653D01*
X66647462Y-50329000D01*
X65698538Y-50329000D01*
X65654396Y-50324653D01*
X65617856Y-50313568D01*
X65584179Y-50295567D01*
X65554659Y-50271341D01*
X65530433Y-50241821D01*
X65512432Y-50208144D01*
X65501347Y-50171604D01*
X65497000Y-50127462D01*
X65497000Y-48678538D01*
X65501347Y-48634396D01*
X65512432Y-48597856D01*
X65530433Y-48564179D01*
X65554659Y-48534659D01*
X65584179Y-48510433D01*
X65617856Y-48492432D01*
X65654396Y-48481347D01*
X65698538Y-48477000D01*
X66647462Y-48477000D01*
X66691604Y-48481347D01*
X66691604Y-48481347D01*
G37*
G36*
X63891604Y-48481347D02*
G01*
X63928144Y-48492432D01*
X63961821Y-48510433D01*
X63991341Y-48534659D01*
X64015567Y-48564179D01*
X64033568Y-48597856D01*
X64044653Y-48634396D01*
X64049000Y-48678538D01*
X64049000Y-50127462D01*
X64044653Y-50171604D01*
X64033568Y-50208144D01*
X64015567Y-50241821D01*
X63991341Y-50271341D01*
X63961821Y-50295567D01*
X63928144Y-50313568D01*
X63891604Y-50324653D01*
X63847462Y-50329000D01*
X62898538Y-50329000D01*
X62854396Y-50324653D01*
X62817856Y-50313568D01*
X62784179Y-50295567D01*
X62754659Y-50271341D01*
X62730433Y-50241821D01*
X62712432Y-50208144D01*
X62701347Y-50171604D01*
X62697000Y-50127462D01*
X62697000Y-48678538D01*
X62701347Y-48634396D01*
X62712432Y-48597856D01*
X62730433Y-48564179D01*
X62754659Y-48534659D01*
X62784179Y-48510433D01*
X62817856Y-48492432D01*
X62854396Y-48481347D01*
X62898538Y-48477000D01*
X63847462Y-48477000D01*
X63891604Y-48481347D01*
X63891604Y-48481347D01*
G37*
G36*
X53629818Y-48924696D02*
G01*
X53743105Y-48959062D01*
X53847512Y-49014869D01*
X53939027Y-49089973D01*
X54014131Y-49181488D01*
X54069938Y-49285895D01*
X54104304Y-49399182D01*
X54115907Y-49517000D01*
X54104304Y-49634818D01*
X54069938Y-49748105D01*
X54014131Y-49852512D01*
X53939027Y-49944027D01*
X53847512Y-50019131D01*
X53743105Y-50074938D01*
X53629818Y-50109304D01*
X53541519Y-50118000D01*
X52932481Y-50118000D01*
X52844182Y-50109304D01*
X52730895Y-50074938D01*
X52626488Y-50019131D01*
X52534973Y-49944027D01*
X52459869Y-49852512D01*
X52404062Y-49748105D01*
X52369696Y-49634818D01*
X52358093Y-49517000D01*
X52369696Y-49399182D01*
X52404062Y-49285895D01*
X52459869Y-49181488D01*
X52534973Y-49089973D01*
X52626488Y-49014869D01*
X52730895Y-48959062D01*
X52844182Y-48924696D01*
X52932481Y-48916000D01*
X53541519Y-48916000D01*
X53629818Y-48924696D01*
X53629818Y-48924696D01*
G37*
G36*
X55429818Y-48124696D02*
G01*
X55543105Y-48159062D01*
X55647512Y-48214869D01*
X55739027Y-48289973D01*
X55814131Y-48381488D01*
X55869938Y-48485895D01*
X55904304Y-48599182D01*
X55915907Y-48717000D01*
X55904304Y-48834818D01*
X55869938Y-48948105D01*
X55814131Y-49052512D01*
X55739027Y-49144027D01*
X55647512Y-49219131D01*
X55543105Y-49274938D01*
X55429818Y-49309304D01*
X55341519Y-49318000D01*
X54732481Y-49318000D01*
X54644182Y-49309304D01*
X54530895Y-49274938D01*
X54426488Y-49219131D01*
X54334973Y-49144027D01*
X54259869Y-49052512D01*
X54204062Y-48948105D01*
X54169696Y-48834818D01*
X54158093Y-48717000D01*
X54169696Y-48599182D01*
X54204062Y-48485895D01*
X54259869Y-48381488D01*
X54334973Y-48289973D01*
X54426488Y-48214869D01*
X54530895Y-48159062D01*
X54644182Y-48124696D01*
X54732481Y-48116000D01*
X55341519Y-48116000D01*
X55429818Y-48124696D01*
X55429818Y-48124696D01*
G37*
G36*
X53629818Y-47324696D02*
G01*
X53743105Y-47359062D01*
X53847512Y-47414869D01*
X53939027Y-47489973D01*
X54014131Y-47581488D01*
X54069938Y-47685895D01*
X54104304Y-47799182D01*
X54115907Y-47917000D01*
X54104304Y-48034818D01*
X54069938Y-48148105D01*
X54014131Y-48252512D01*
X53939027Y-48344027D01*
X53847512Y-48419131D01*
X53743105Y-48474938D01*
X53629818Y-48509304D01*
X53541519Y-48518000D01*
X52932481Y-48518000D01*
X52844182Y-48509304D01*
X52730895Y-48474938D01*
X52626488Y-48419131D01*
X52534973Y-48344027D01*
X52459869Y-48252512D01*
X52404062Y-48148105D01*
X52369696Y-48034818D01*
X52358093Y-47917000D01*
X52369696Y-47799182D01*
X52404062Y-47685895D01*
X52459869Y-47581488D01*
X52534973Y-47489973D01*
X52626488Y-47414869D01*
X52730895Y-47359062D01*
X52844182Y-47324696D01*
X52932481Y-47316000D01*
X53541519Y-47316000D01*
X53629818Y-47324696D01*
X53629818Y-47324696D01*
G37*
G36*
X74181604Y-46195347D02*
G01*
X74218144Y-46206432D01*
X74251821Y-46224433D01*
X74281341Y-46248659D01*
X74305567Y-46278179D01*
X74323568Y-46311856D01*
X74334653Y-46348396D01*
X74339000Y-46392538D01*
X74339000Y-47841462D01*
X74334653Y-47885604D01*
X74323568Y-47922144D01*
X74305567Y-47955821D01*
X74281341Y-47985341D01*
X74251821Y-48009567D01*
X74218144Y-48027568D01*
X74181604Y-48038653D01*
X74137462Y-48043000D01*
X73188538Y-48043000D01*
X73144396Y-48038653D01*
X73107856Y-48027568D01*
X73074179Y-48009567D01*
X73044659Y-47985341D01*
X73020433Y-47955821D01*
X73002432Y-47922144D01*
X72991347Y-47885604D01*
X72987000Y-47841462D01*
X72987000Y-46392538D01*
X72991347Y-46348396D01*
X73002432Y-46311856D01*
X73020433Y-46278179D01*
X73044659Y-46248659D01*
X73074179Y-46224433D01*
X73107856Y-46206432D01*
X73144396Y-46195347D01*
X73188538Y-46191000D01*
X74137462Y-46191000D01*
X74181604Y-46195347D01*
X74181604Y-46195347D01*
G37*
G36*
X71381604Y-46195347D02*
G01*
X71418144Y-46206432D01*
X71451821Y-46224433D01*
X71481341Y-46248659D01*
X71505567Y-46278179D01*
X71523568Y-46311856D01*
X71534653Y-46348396D01*
X71539000Y-46392538D01*
X71539000Y-47841462D01*
X71534653Y-47885604D01*
X71523568Y-47922144D01*
X71505567Y-47955821D01*
X71481341Y-47985341D01*
X71451821Y-48009567D01*
X71418144Y-48027568D01*
X71381604Y-48038653D01*
X71337462Y-48043000D01*
X70388538Y-48043000D01*
X70344396Y-48038653D01*
X70307856Y-48027568D01*
X70274179Y-48009567D01*
X70244659Y-47985341D01*
X70220433Y-47955821D01*
X70202432Y-47922144D01*
X70191347Y-47885604D01*
X70187000Y-47841462D01*
X70187000Y-46392538D01*
X70191347Y-46348396D01*
X70202432Y-46311856D01*
X70220433Y-46278179D01*
X70244659Y-46248659D01*
X70274179Y-46224433D01*
X70307856Y-46206432D01*
X70344396Y-46195347D01*
X70388538Y-46191000D01*
X71337462Y-46191000D01*
X71381604Y-46195347D01*
X71381604Y-46195347D01*
G37*
G36*
X55429818Y-46524696D02*
G01*
X55543105Y-46559062D01*
X55647512Y-46614869D01*
X55739027Y-46689973D01*
X55814131Y-46781488D01*
X55869938Y-46885895D01*
X55904304Y-46999182D01*
X55915907Y-47117000D01*
X55904304Y-47234818D01*
X55869938Y-47348105D01*
X55814131Y-47452512D01*
X55739027Y-47544027D01*
X55647512Y-47619131D01*
X55543105Y-47674938D01*
X55429818Y-47709304D01*
X55341519Y-47718000D01*
X54732481Y-47718000D01*
X54644182Y-47709304D01*
X54530895Y-47674938D01*
X54426488Y-47619131D01*
X54334973Y-47544027D01*
X54259869Y-47452512D01*
X54204062Y-47348105D01*
X54169696Y-47234818D01*
X54158093Y-47117000D01*
X54169696Y-46999182D01*
X54204062Y-46885895D01*
X54259869Y-46781488D01*
X54334973Y-46689973D01*
X54426488Y-46614869D01*
X54530895Y-46559062D01*
X54644182Y-46524696D01*
X54732481Y-46516000D01*
X55341519Y-46516000D01*
X55429818Y-46524696D01*
X55429818Y-46524696D01*
G37*
G36*
X50297442Y-44172518D02*
G01*
X50363627Y-44179037D01*
X50533466Y-44230557D01*
X50689991Y-44314222D01*
X50725729Y-44343552D01*
X50827186Y-44426814D01*
X50910448Y-44528271D01*
X50939778Y-44564009D01*
X51023443Y-44720534D01*
X51074963Y-44890373D01*
X51092359Y-45067000D01*
X51074963Y-45243627D01*
X51023443Y-45413466D01*
X50939778Y-45569991D01*
X50910448Y-45605729D01*
X50827186Y-45707186D01*
X50725729Y-45790448D01*
X50689991Y-45819778D01*
X50533466Y-45903443D01*
X50363627Y-45954963D01*
X50297442Y-45961482D01*
X50231260Y-45968000D01*
X49142740Y-45968000D01*
X49076558Y-45961482D01*
X49010373Y-45954963D01*
X48840534Y-45903443D01*
X48684009Y-45819778D01*
X48648271Y-45790448D01*
X48546814Y-45707186D01*
X48463552Y-45605729D01*
X48434222Y-45569991D01*
X48350557Y-45413466D01*
X48299037Y-45243627D01*
X48281641Y-45067000D01*
X48299037Y-44890373D01*
X48350557Y-44720534D01*
X48434222Y-44564009D01*
X48463552Y-44528271D01*
X48546814Y-44426814D01*
X48648271Y-44343552D01*
X48684009Y-44314222D01*
X48840534Y-44230557D01*
X49010373Y-44179037D01*
X49076558Y-44172518D01*
X49142740Y-44166000D01*
X50231260Y-44166000D01*
X50297442Y-44172518D01*
X50297442Y-44172518D01*
G37*
G36*
X78779823Y-43611313D02*
G01*
X78940242Y-43659976D01*
X79072906Y-43730886D01*
X79088078Y-43738996D01*
X79217659Y-43845341D01*
X79324004Y-43974922D01*
X79324005Y-43974924D01*
X79403024Y-44122758D01*
X79451687Y-44283177D01*
X79468117Y-44450000D01*
X79451687Y-44616823D01*
X79403024Y-44777242D01*
X79342554Y-44890373D01*
X79324004Y-44925078D01*
X79217659Y-45054659D01*
X79088078Y-45161004D01*
X79088076Y-45161005D01*
X78940242Y-45240024D01*
X78779823Y-45288687D01*
X78654804Y-45301000D01*
X78571196Y-45301000D01*
X78446177Y-45288687D01*
X78285758Y-45240024D01*
X78137924Y-45161005D01*
X78137922Y-45161004D01*
X78008341Y-45054659D01*
X77901996Y-44925078D01*
X77883446Y-44890373D01*
X77822976Y-44777242D01*
X77774313Y-44616823D01*
X77757883Y-44450000D01*
X77774313Y-44283177D01*
X77822976Y-44122758D01*
X77901995Y-43974924D01*
X77901996Y-43974922D01*
X78008341Y-43845341D01*
X78137922Y-43738996D01*
X78153094Y-43730886D01*
X78285758Y-43659976D01*
X78446177Y-43611313D01*
X78571196Y-43599000D01*
X78654804Y-43599000D01*
X78779823Y-43611313D01*
X78779823Y-43611313D01*
G37*
G36*
X76239823Y-43611313D02*
G01*
X76400242Y-43659976D01*
X76532906Y-43730886D01*
X76548078Y-43738996D01*
X76677659Y-43845341D01*
X76784004Y-43974922D01*
X76784005Y-43974924D01*
X76863024Y-44122758D01*
X76911687Y-44283177D01*
X76928117Y-44450000D01*
X76911687Y-44616823D01*
X76863024Y-44777242D01*
X76802554Y-44890373D01*
X76784004Y-44925078D01*
X76677659Y-45054659D01*
X76548078Y-45161004D01*
X76548076Y-45161005D01*
X76400242Y-45240024D01*
X76239823Y-45288687D01*
X76114804Y-45301000D01*
X76031196Y-45301000D01*
X75906177Y-45288687D01*
X75745758Y-45240024D01*
X75597924Y-45161005D01*
X75597922Y-45161004D01*
X75468341Y-45054659D01*
X75361996Y-44925078D01*
X75343446Y-44890373D01*
X75282976Y-44777242D01*
X75234313Y-44616823D01*
X75217883Y-44450000D01*
X75234313Y-44283177D01*
X75282976Y-44122758D01*
X75361995Y-43974924D01*
X75361996Y-43974922D01*
X75468341Y-43845341D01*
X75597922Y-43738996D01*
X75613094Y-43730886D01*
X75745758Y-43659976D01*
X75906177Y-43611313D01*
X76031196Y-43599000D01*
X76114804Y-43599000D01*
X76239823Y-43611313D01*
X76239823Y-43611313D01*
G37*
G36*
X73699823Y-43611313D02*
G01*
X73860242Y-43659976D01*
X73992906Y-43730886D01*
X74008078Y-43738996D01*
X74137659Y-43845341D01*
X74244004Y-43974922D01*
X74244005Y-43974924D01*
X74323024Y-44122758D01*
X74371687Y-44283177D01*
X74388117Y-44450000D01*
X74371687Y-44616823D01*
X74323024Y-44777242D01*
X74262554Y-44890373D01*
X74244004Y-44925078D01*
X74137659Y-45054659D01*
X74008078Y-45161004D01*
X74008076Y-45161005D01*
X73860242Y-45240024D01*
X73699823Y-45288687D01*
X73574804Y-45301000D01*
X73491196Y-45301000D01*
X73366177Y-45288687D01*
X73205758Y-45240024D01*
X73057924Y-45161005D01*
X73057922Y-45161004D01*
X72928341Y-45054659D01*
X72821996Y-44925078D01*
X72803446Y-44890373D01*
X72742976Y-44777242D01*
X72694313Y-44616823D01*
X72677883Y-44450000D01*
X72694313Y-44283177D01*
X72742976Y-44122758D01*
X72821995Y-43974924D01*
X72821996Y-43974922D01*
X72928341Y-43845341D01*
X73057922Y-43738996D01*
X73073094Y-43730886D01*
X73205758Y-43659976D01*
X73366177Y-43611313D01*
X73491196Y-43599000D01*
X73574804Y-43599000D01*
X73699823Y-43611313D01*
X73699823Y-43611313D01*
G37*
G36*
X68619823Y-43611313D02*
G01*
X68780242Y-43659976D01*
X68912906Y-43730886D01*
X68928078Y-43738996D01*
X69057659Y-43845341D01*
X69164004Y-43974922D01*
X69164005Y-43974924D01*
X69243024Y-44122758D01*
X69291687Y-44283177D01*
X69308117Y-44450000D01*
X69291687Y-44616823D01*
X69243024Y-44777242D01*
X69182554Y-44890373D01*
X69164004Y-44925078D01*
X69057659Y-45054659D01*
X68928078Y-45161004D01*
X68928076Y-45161005D01*
X68780242Y-45240024D01*
X68619823Y-45288687D01*
X68494804Y-45301000D01*
X68411196Y-45301000D01*
X68286177Y-45288687D01*
X68125758Y-45240024D01*
X67977924Y-45161005D01*
X67977922Y-45161004D01*
X67848341Y-45054659D01*
X67741996Y-44925078D01*
X67723446Y-44890373D01*
X67662976Y-44777242D01*
X67614313Y-44616823D01*
X67597883Y-44450000D01*
X67614313Y-44283177D01*
X67662976Y-44122758D01*
X67741995Y-43974924D01*
X67741996Y-43974922D01*
X67848341Y-43845341D01*
X67977922Y-43738996D01*
X67993094Y-43730886D01*
X68125758Y-43659976D01*
X68286177Y-43611313D01*
X68411196Y-43599000D01*
X68494804Y-43599000D01*
X68619823Y-43611313D01*
X68619823Y-43611313D01*
G37*
G36*
X66079823Y-43611313D02*
G01*
X66240242Y-43659976D01*
X66372906Y-43730886D01*
X66388078Y-43738996D01*
X66517659Y-43845341D01*
X66624004Y-43974922D01*
X66624005Y-43974924D01*
X66703024Y-44122758D01*
X66751687Y-44283177D01*
X66768117Y-44450000D01*
X66751687Y-44616823D01*
X66703024Y-44777242D01*
X66642554Y-44890373D01*
X66624004Y-44925078D01*
X66517659Y-45054659D01*
X66388078Y-45161004D01*
X66388076Y-45161005D01*
X66240242Y-45240024D01*
X66079823Y-45288687D01*
X65954804Y-45301000D01*
X65871196Y-45301000D01*
X65746177Y-45288687D01*
X65585758Y-45240024D01*
X65437924Y-45161005D01*
X65437922Y-45161004D01*
X65308341Y-45054659D01*
X65201996Y-44925078D01*
X65183446Y-44890373D01*
X65122976Y-44777242D01*
X65074313Y-44616823D01*
X65057883Y-44450000D01*
X65074313Y-44283177D01*
X65122976Y-44122758D01*
X65201995Y-43974924D01*
X65201996Y-43974922D01*
X65308341Y-43845341D01*
X65437922Y-43738996D01*
X65453094Y-43730886D01*
X65585758Y-43659976D01*
X65746177Y-43611313D01*
X65871196Y-43599000D01*
X65954804Y-43599000D01*
X66079823Y-43611313D01*
X66079823Y-43611313D01*
G37*
G36*
X63539823Y-43611313D02*
G01*
X63700242Y-43659976D01*
X63832906Y-43730886D01*
X63848078Y-43738996D01*
X63977659Y-43845341D01*
X64084004Y-43974922D01*
X64084005Y-43974924D01*
X64163024Y-44122758D01*
X64211687Y-44283177D01*
X64228117Y-44450000D01*
X64211687Y-44616823D01*
X64163024Y-44777242D01*
X64102554Y-44890373D01*
X64084004Y-44925078D01*
X63977659Y-45054659D01*
X63848078Y-45161004D01*
X63848076Y-45161005D01*
X63700242Y-45240024D01*
X63539823Y-45288687D01*
X63414804Y-45301000D01*
X63331196Y-45301000D01*
X63206177Y-45288687D01*
X63045758Y-45240024D01*
X62897924Y-45161005D01*
X62897922Y-45161004D01*
X62768341Y-45054659D01*
X62661996Y-44925078D01*
X62643446Y-44890373D01*
X62582976Y-44777242D01*
X62534313Y-44616823D01*
X62517883Y-44450000D01*
X62534313Y-44283177D01*
X62582976Y-44122758D01*
X62661995Y-43974924D01*
X62661996Y-43974922D01*
X62768341Y-43845341D01*
X62897922Y-43738996D01*
X62913094Y-43730886D01*
X63045758Y-43659976D01*
X63206177Y-43611313D01*
X63331196Y-43599000D01*
X63414804Y-43599000D01*
X63539823Y-43611313D01*
X63539823Y-43611313D01*
G37*
G36*
X71159823Y-43611313D02*
G01*
X71320242Y-43659976D01*
X71452906Y-43730886D01*
X71468078Y-43738996D01*
X71597659Y-43845341D01*
X71704004Y-43974922D01*
X71704005Y-43974924D01*
X71783024Y-44122758D01*
X71831687Y-44283177D01*
X71848117Y-44450000D01*
X71831687Y-44616823D01*
X71783024Y-44777242D01*
X71722554Y-44890373D01*
X71704004Y-44925078D01*
X71597659Y-45054659D01*
X71468078Y-45161004D01*
X71468076Y-45161005D01*
X71320242Y-45240024D01*
X71159823Y-45288687D01*
X71034804Y-45301000D01*
X70951196Y-45301000D01*
X70826177Y-45288687D01*
X70665758Y-45240024D01*
X70517924Y-45161005D01*
X70517922Y-45161004D01*
X70388341Y-45054659D01*
X70281996Y-44925078D01*
X70263446Y-44890373D01*
X70202976Y-44777242D01*
X70154313Y-44616823D01*
X70137883Y-44450000D01*
X70154313Y-44283177D01*
X70202976Y-44122758D01*
X70281995Y-43974924D01*
X70281996Y-43974922D01*
X70388341Y-43845341D01*
X70517922Y-43738996D01*
X70533094Y-43730886D01*
X70665758Y-43659976D01*
X70826177Y-43611313D01*
X70951196Y-43599000D01*
X71034804Y-43599000D01*
X71159823Y-43611313D01*
X71159823Y-43611313D01*
G37*
G36*
X51566604Y-41242347D02*
G01*
X51603144Y-41253432D01*
X51636821Y-41271433D01*
X51666341Y-41295659D01*
X51690567Y-41325179D01*
X51708568Y-41358856D01*
X51719653Y-41395396D01*
X51724000Y-41439538D01*
X51724000Y-42888462D01*
X51719653Y-42932604D01*
X51708568Y-42969144D01*
X51690567Y-43002821D01*
X51666341Y-43032341D01*
X51636821Y-43056567D01*
X51603144Y-43074568D01*
X51566604Y-43085653D01*
X51522462Y-43090000D01*
X50573538Y-43090000D01*
X50529396Y-43085653D01*
X50492856Y-43074568D01*
X50459179Y-43056567D01*
X50429659Y-43032341D01*
X50405433Y-43002821D01*
X50387432Y-42969144D01*
X50376347Y-42932604D01*
X50372000Y-42888462D01*
X50372000Y-41439538D01*
X50376347Y-41395396D01*
X50387432Y-41358856D01*
X50405433Y-41325179D01*
X50429659Y-41295659D01*
X50459179Y-41271433D01*
X50492856Y-41253432D01*
X50529396Y-41242347D01*
X50573538Y-41238000D01*
X51522462Y-41238000D01*
X51566604Y-41242347D01*
X51566604Y-41242347D01*
G37*
G36*
X54366604Y-41242347D02*
G01*
X54403144Y-41253432D01*
X54436821Y-41271433D01*
X54466341Y-41295659D01*
X54490567Y-41325179D01*
X54508568Y-41358856D01*
X54519653Y-41395396D01*
X54524000Y-41439538D01*
X54524000Y-42888462D01*
X54519653Y-42932604D01*
X54508568Y-42969144D01*
X54490567Y-43002821D01*
X54466341Y-43032341D01*
X54436821Y-43056567D01*
X54403144Y-43074568D01*
X54366604Y-43085653D01*
X54322462Y-43090000D01*
X53373538Y-43090000D01*
X53329396Y-43085653D01*
X53292856Y-43074568D01*
X53259179Y-43056567D01*
X53229659Y-43032341D01*
X53205433Y-43002821D01*
X53187432Y-42969144D01*
X53176347Y-42932604D01*
X53172000Y-42888462D01*
X53172000Y-41439538D01*
X53176347Y-41395396D01*
X53187432Y-41358856D01*
X53205433Y-41325179D01*
X53229659Y-41295659D01*
X53259179Y-41271433D01*
X53292856Y-41253432D01*
X53329396Y-41242347D01*
X53373538Y-41238000D01*
X54322462Y-41238000D01*
X54366604Y-41242347D01*
X54366604Y-41242347D01*
G37*
G36*
X71103442Y-40173519D02*
G01*
X71169627Y-40180038D01*
X71339466Y-40231558D01*
X71495991Y-40315223D01*
X71525313Y-40339287D01*
X71633186Y-40427815D01*
X71706405Y-40517034D01*
X71745778Y-40565010D01*
X71829443Y-40721535D01*
X71880963Y-40891374D01*
X71898359Y-41068001D01*
X71880963Y-41244628D01*
X71829443Y-41414467D01*
X71745778Y-41570992D01*
X71716448Y-41606730D01*
X71633186Y-41708187D01*
X71531729Y-41791449D01*
X71495991Y-41820779D01*
X71339466Y-41904444D01*
X71169627Y-41955964D01*
X71103443Y-41962482D01*
X71037260Y-41969001D01*
X70948740Y-41969001D01*
X70882557Y-41962482D01*
X70816373Y-41955964D01*
X70646534Y-41904444D01*
X70490009Y-41820779D01*
X70454271Y-41791449D01*
X70352814Y-41708187D01*
X70269552Y-41606730D01*
X70240222Y-41570992D01*
X70156557Y-41414467D01*
X70105037Y-41244628D01*
X70087641Y-41068001D01*
X70105037Y-40891374D01*
X70156557Y-40721535D01*
X70240222Y-40565010D01*
X70279595Y-40517034D01*
X70352814Y-40427815D01*
X70460687Y-40339287D01*
X70490009Y-40315223D01*
X70646534Y-40231558D01*
X70816373Y-40180038D01*
X70882558Y-40173519D01*
X70948740Y-40167001D01*
X71037260Y-40167001D01*
X71103442Y-40173519D01*
X71103442Y-40173519D01*
G37*
G36*
X66910443Y-40173519D02*
G01*
X66976628Y-40180038D01*
X67146467Y-40231558D01*
X67302992Y-40315223D01*
X67332314Y-40339287D01*
X67440187Y-40427815D01*
X67513406Y-40517034D01*
X67552779Y-40565010D01*
X67636444Y-40721535D01*
X67687964Y-40891374D01*
X67705360Y-41068001D01*
X67687964Y-41244628D01*
X67636444Y-41414467D01*
X67552779Y-41570992D01*
X67523449Y-41606730D01*
X67440187Y-41708187D01*
X67338730Y-41791449D01*
X67302992Y-41820779D01*
X67146467Y-41904444D01*
X66976628Y-41955964D01*
X66910444Y-41962482D01*
X66844261Y-41969001D01*
X66755741Y-41969001D01*
X66689558Y-41962482D01*
X66623374Y-41955964D01*
X66453535Y-41904444D01*
X66297010Y-41820779D01*
X66261272Y-41791449D01*
X66159815Y-41708187D01*
X66076553Y-41606730D01*
X66047223Y-41570992D01*
X65963558Y-41414467D01*
X65912038Y-41244628D01*
X65894642Y-41068001D01*
X65912038Y-40891374D01*
X65963558Y-40721535D01*
X66047223Y-40565010D01*
X66086596Y-40517034D01*
X66159815Y-40427815D01*
X66267688Y-40339287D01*
X66297010Y-40315223D01*
X66453535Y-40231558D01*
X66623374Y-40180038D01*
X66689559Y-40173519D01*
X66755741Y-40167001D01*
X66844261Y-40167001D01*
X66910443Y-40173519D01*
X66910443Y-40173519D01*
G37*
G36*
X64141604Y-40101347D02*
G01*
X64178144Y-40112432D01*
X64211821Y-40130433D01*
X64241341Y-40154659D01*
X64265567Y-40184179D01*
X64283568Y-40217856D01*
X64294653Y-40254396D01*
X64299000Y-40298538D01*
X64299000Y-41247462D01*
X64294653Y-41291604D01*
X64283568Y-41328144D01*
X64265567Y-41361821D01*
X64241341Y-41391341D01*
X64211821Y-41415567D01*
X64178144Y-41433568D01*
X64141604Y-41444653D01*
X64097462Y-41449000D01*
X62648538Y-41449000D01*
X62604396Y-41444653D01*
X62567856Y-41433568D01*
X62534179Y-41415567D01*
X62504659Y-41391341D01*
X62480433Y-41361821D01*
X62462432Y-41328144D01*
X62451347Y-41291604D01*
X62447000Y-41247462D01*
X62447000Y-40298538D01*
X62451347Y-40254396D01*
X62462432Y-40217856D01*
X62480433Y-40184179D01*
X62504659Y-40154659D01*
X62534179Y-40130433D01*
X62567856Y-40112432D01*
X62604396Y-40101347D01*
X62648538Y-40097000D01*
X64097462Y-40097000D01*
X64141604Y-40101347D01*
X64141604Y-40101347D01*
G37*
G36*
X74936604Y-39968347D02*
G01*
X74973144Y-39979432D01*
X75006821Y-39997433D01*
X75036341Y-40021659D01*
X75060567Y-40051179D01*
X75078568Y-40084856D01*
X75089653Y-40121396D01*
X75094000Y-40165538D01*
X75094000Y-41114462D01*
X75089653Y-41158604D01*
X75078568Y-41195144D01*
X75060567Y-41228821D01*
X75036341Y-41258341D01*
X75006821Y-41282567D01*
X74973144Y-41300568D01*
X74936604Y-41311653D01*
X74892462Y-41316000D01*
X73443538Y-41316000D01*
X73399396Y-41311653D01*
X73362856Y-41300568D01*
X73329179Y-41282567D01*
X73299659Y-41258341D01*
X73275433Y-41228821D01*
X73257432Y-41195144D01*
X73246347Y-41158604D01*
X73242000Y-41114462D01*
X73242000Y-40165538D01*
X73246347Y-40121396D01*
X73257432Y-40084856D01*
X73275433Y-40051179D01*
X73299659Y-40021659D01*
X73329179Y-39997433D01*
X73362856Y-39979432D01*
X73399396Y-39968347D01*
X73443538Y-39964000D01*
X74892462Y-39964000D01*
X74936604Y-39968347D01*
X74936604Y-39968347D01*
G37*
G36*
X59419443Y-39491519D02*
G01*
X59485627Y-39498037D01*
X59655466Y-39549557D01*
X59811991Y-39633222D01*
X59826641Y-39645245D01*
X59949186Y-39745814D01*
X60032448Y-39847271D01*
X60061778Y-39883009D01*
X60145443Y-40039534D01*
X60196963Y-40209373D01*
X60214359Y-40386000D01*
X60196963Y-40562627D01*
X60145443Y-40732466D01*
X60061778Y-40888991D01*
X60032448Y-40924729D01*
X59949186Y-41026186D01*
X59861250Y-41098352D01*
X59811991Y-41138778D01*
X59655466Y-41222443D01*
X59485627Y-41273963D01*
X59419443Y-41280481D01*
X59353260Y-41287000D01*
X59264740Y-41287000D01*
X59198557Y-41280481D01*
X59132373Y-41273963D01*
X58962534Y-41222443D01*
X58806009Y-41138778D01*
X58756750Y-41098352D01*
X58668814Y-41026186D01*
X58585552Y-40924729D01*
X58556222Y-40888991D01*
X58472557Y-40732466D01*
X58421037Y-40562627D01*
X58403641Y-40386000D01*
X58421037Y-40209373D01*
X58472557Y-40039534D01*
X58556222Y-39883009D01*
X58585552Y-39847271D01*
X58668814Y-39745814D01*
X58791359Y-39645245D01*
X58806009Y-39633222D01*
X58962534Y-39549557D01*
X59132373Y-39498037D01*
X59198557Y-39491519D01*
X59264740Y-39485000D01*
X59353260Y-39485000D01*
X59419443Y-39491519D01*
X59419443Y-39491519D01*
G37*
G36*
X80317547Y-38232326D02*
G01*
X80491156Y-38284990D01*
X80491158Y-38284991D01*
X80651155Y-38370511D01*
X80791397Y-38485603D01*
X80856437Y-38564856D01*
X80906489Y-38625844D01*
X80992010Y-38785843D01*
X81044674Y-38959452D01*
X81058000Y-39094756D01*
X81058000Y-39645243D01*
X81044674Y-39780548D01*
X80992010Y-39954157D01*
X80906489Y-40114156D01*
X80892729Y-40130922D01*
X80791397Y-40254397D01*
X80717280Y-40315222D01*
X80651156Y-40369489D01*
X80491157Y-40455010D01*
X80317548Y-40507674D01*
X80137000Y-40525456D01*
X79956453Y-40507674D01*
X79782844Y-40455010D01*
X79622845Y-40369489D01*
X79556721Y-40315222D01*
X79482604Y-40254397D01*
X79373454Y-40121396D01*
X79367512Y-40114156D01*
X79281990Y-39954157D01*
X79229326Y-39780548D01*
X79216000Y-39645244D01*
X79216000Y-39094757D01*
X79229326Y-38959453D01*
X79281990Y-38785844D01*
X79320178Y-38714400D01*
X79367511Y-38625845D01*
X79482603Y-38485603D01*
X79612988Y-38378600D01*
X79622844Y-38370511D01*
X79782843Y-38284990D01*
X79956452Y-38232326D01*
X80137000Y-38214544D01*
X80317547Y-38232326D01*
X80317547Y-38232326D01*
G37*
G36*
X82857547Y-38232326D02*
G01*
X83031156Y-38284990D01*
X83031158Y-38284991D01*
X83191155Y-38370511D01*
X83331397Y-38485603D01*
X83396437Y-38564856D01*
X83446489Y-38625844D01*
X83532010Y-38785843D01*
X83584674Y-38959452D01*
X83598000Y-39094756D01*
X83598000Y-39645243D01*
X83584674Y-39780548D01*
X83532010Y-39954157D01*
X83446489Y-40114156D01*
X83432729Y-40130922D01*
X83331397Y-40254397D01*
X83257280Y-40315222D01*
X83191156Y-40369489D01*
X83031157Y-40455010D01*
X82857548Y-40507674D01*
X82677000Y-40525456D01*
X82496453Y-40507674D01*
X82322844Y-40455010D01*
X82162845Y-40369489D01*
X82096721Y-40315222D01*
X82022604Y-40254397D01*
X81913454Y-40121396D01*
X81907512Y-40114156D01*
X81821990Y-39954157D01*
X81769326Y-39780548D01*
X81756000Y-39645244D01*
X81756000Y-39094757D01*
X81769326Y-38959453D01*
X81821990Y-38785844D01*
X81860178Y-38714400D01*
X81907511Y-38625845D01*
X82022603Y-38485603D01*
X82152988Y-38378600D01*
X82162844Y-38370511D01*
X82322843Y-38284990D01*
X82496452Y-38232326D01*
X82677000Y-38214544D01*
X82857547Y-38232326D01*
X82857547Y-38232326D01*
G37*
G36*
X85397547Y-38232326D02*
G01*
X85571156Y-38284990D01*
X85571158Y-38284991D01*
X85731155Y-38370511D01*
X85871397Y-38485603D01*
X85936437Y-38564856D01*
X85986489Y-38625844D01*
X86072010Y-38785843D01*
X86124674Y-38959452D01*
X86138000Y-39094756D01*
X86138000Y-39645243D01*
X86124674Y-39780548D01*
X86072010Y-39954157D01*
X85986489Y-40114156D01*
X85972729Y-40130922D01*
X85871397Y-40254397D01*
X85797280Y-40315222D01*
X85731156Y-40369489D01*
X85571157Y-40455010D01*
X85397548Y-40507674D01*
X85217000Y-40525456D01*
X85036453Y-40507674D01*
X84862844Y-40455010D01*
X84702845Y-40369489D01*
X84636721Y-40315222D01*
X84562604Y-40254397D01*
X84453454Y-40121396D01*
X84447512Y-40114156D01*
X84361990Y-39954157D01*
X84309326Y-39780548D01*
X84296000Y-39645244D01*
X84296000Y-39094757D01*
X84309326Y-38959453D01*
X84361990Y-38785844D01*
X84400178Y-38714400D01*
X84447511Y-38625845D01*
X84562603Y-38485603D01*
X84692988Y-38378600D01*
X84702844Y-38370511D01*
X84862843Y-38284990D01*
X85036452Y-38232326D01*
X85217000Y-38214544D01*
X85397547Y-38232326D01*
X85397547Y-38232326D01*
G37*
G36*
X78376561Y-38222966D02*
G01*
X78409383Y-38232923D01*
X78439632Y-38249092D01*
X78466148Y-38270852D01*
X78487908Y-38297368D01*
X78504077Y-38327617D01*
X78514034Y-38360439D01*
X78518000Y-38400713D01*
X78518000Y-40339287D01*
X78514034Y-40379561D01*
X78504077Y-40412383D01*
X78487908Y-40442632D01*
X78466148Y-40469148D01*
X78439632Y-40490908D01*
X78409383Y-40507077D01*
X78376561Y-40517034D01*
X78336287Y-40521000D01*
X76857713Y-40521000D01*
X76817439Y-40517034D01*
X76784617Y-40507077D01*
X76754368Y-40490908D01*
X76727852Y-40469148D01*
X76706092Y-40442632D01*
X76689923Y-40412383D01*
X76679966Y-40379561D01*
X76676000Y-40339287D01*
X76676000Y-38400713D01*
X76679966Y-38360439D01*
X76689923Y-38327617D01*
X76706092Y-38297368D01*
X76727852Y-38270852D01*
X76754368Y-38249092D01*
X76784617Y-38232923D01*
X76817439Y-38222966D01*
X76857713Y-38219000D01*
X78336287Y-38219000D01*
X78376561Y-38222966D01*
X78376561Y-38222966D01*
G37*
G36*
X54372604Y-38448347D02*
G01*
X54409144Y-38459432D01*
X54442821Y-38477433D01*
X54472341Y-38501659D01*
X54496567Y-38531179D01*
X54514568Y-38564856D01*
X54525653Y-38601396D01*
X54530000Y-38645538D01*
X54530000Y-40094462D01*
X54525653Y-40138604D01*
X54514568Y-40175144D01*
X54496567Y-40208821D01*
X54472341Y-40238341D01*
X54442821Y-40262567D01*
X54409144Y-40280568D01*
X54372604Y-40291653D01*
X54328462Y-40296000D01*
X53379538Y-40296000D01*
X53335396Y-40291653D01*
X53298856Y-40280568D01*
X53265179Y-40262567D01*
X53235659Y-40238341D01*
X53211433Y-40208821D01*
X53193432Y-40175144D01*
X53182347Y-40138604D01*
X53178000Y-40094462D01*
X53178000Y-38645538D01*
X53182347Y-38601396D01*
X53193432Y-38564856D01*
X53211433Y-38531179D01*
X53235659Y-38501659D01*
X53265179Y-38477433D01*
X53298856Y-38459432D01*
X53335396Y-38448347D01*
X53379538Y-38444000D01*
X54328462Y-38444000D01*
X54372604Y-38448347D01*
X54372604Y-38448347D01*
G37*
G36*
X51572604Y-38448347D02*
G01*
X51609144Y-38459432D01*
X51642821Y-38477433D01*
X51672341Y-38501659D01*
X51696567Y-38531179D01*
X51714568Y-38564856D01*
X51725653Y-38601396D01*
X51730000Y-38645538D01*
X51730000Y-40094462D01*
X51725653Y-40138604D01*
X51714568Y-40175144D01*
X51696567Y-40208821D01*
X51672341Y-40238341D01*
X51642821Y-40262567D01*
X51609144Y-40280568D01*
X51572604Y-40291653D01*
X51528462Y-40296000D01*
X50579538Y-40296000D01*
X50535396Y-40291653D01*
X50498856Y-40280568D01*
X50465179Y-40262567D01*
X50435659Y-40238341D01*
X50411433Y-40208821D01*
X50393432Y-40175144D01*
X50382347Y-40138604D01*
X50378000Y-40094462D01*
X50378000Y-38645538D01*
X50382347Y-38601396D01*
X50393432Y-38564856D01*
X50411433Y-38531179D01*
X50435659Y-38501659D01*
X50465179Y-38477433D01*
X50498856Y-38459432D01*
X50535396Y-38448347D01*
X50579538Y-38444000D01*
X51528462Y-38444000D01*
X51572604Y-38448347D01*
X51572604Y-38448347D01*
G37*
G36*
X67701001Y-39429001D02*
G01*
X65899001Y-39429001D01*
X65899001Y-37627001D01*
X67701001Y-37627001D01*
X67701001Y-39429001D01*
X67701001Y-39429001D01*
G37*
G36*
X71894000Y-39429001D02*
G01*
X70092000Y-39429001D01*
X70092000Y-37627001D01*
X71894000Y-37627001D01*
X71894000Y-39429001D01*
X71894000Y-39429001D01*
G37*
G36*
X60210000Y-38747000D02*
G01*
X58408000Y-38747000D01*
X58408000Y-36945000D01*
X60210000Y-36945000D01*
X60210000Y-38747000D01*
X60210000Y-38747000D01*
G37*
G36*
X64141604Y-37301347D02*
G01*
X64178144Y-37312432D01*
X64211821Y-37330433D01*
X64241341Y-37354659D01*
X64265567Y-37384179D01*
X64283568Y-37417856D01*
X64294653Y-37454396D01*
X64299000Y-37498538D01*
X64299000Y-38447462D01*
X64294653Y-38491604D01*
X64283568Y-38528144D01*
X64265567Y-38561821D01*
X64241341Y-38591341D01*
X64211821Y-38615567D01*
X64178144Y-38633568D01*
X64141604Y-38644653D01*
X64097462Y-38649000D01*
X62648538Y-38649000D01*
X62604396Y-38644653D01*
X62567856Y-38633568D01*
X62534179Y-38615567D01*
X62504659Y-38591341D01*
X62480433Y-38561821D01*
X62462432Y-38528144D01*
X62451347Y-38491604D01*
X62447000Y-38447462D01*
X62447000Y-37498538D01*
X62451347Y-37454396D01*
X62462432Y-37417856D01*
X62480433Y-37384179D01*
X62504659Y-37354659D01*
X62534179Y-37330433D01*
X62567856Y-37312432D01*
X62604396Y-37301347D01*
X62648538Y-37297000D01*
X64097462Y-37297000D01*
X64141604Y-37301347D01*
X64141604Y-37301347D01*
G37*
G36*
X74936604Y-37168347D02*
G01*
X74973144Y-37179432D01*
X75006821Y-37197433D01*
X75036341Y-37221659D01*
X75060567Y-37251179D01*
X75078568Y-37284856D01*
X75089653Y-37321396D01*
X75094000Y-37365538D01*
X75094000Y-38314462D01*
X75089653Y-38358604D01*
X75078568Y-38395144D01*
X75060567Y-38428821D01*
X75036341Y-38458341D01*
X75006821Y-38482567D01*
X74973144Y-38500568D01*
X74936604Y-38511653D01*
X74892462Y-38516000D01*
X73443538Y-38516000D01*
X73399396Y-38511653D01*
X73362856Y-38500568D01*
X73329179Y-38482567D01*
X73299659Y-38458341D01*
X73275433Y-38428821D01*
X73257432Y-38395144D01*
X73246347Y-38358604D01*
X73242000Y-38314462D01*
X73242000Y-37365538D01*
X73246347Y-37321396D01*
X73257432Y-37284856D01*
X73275433Y-37251179D01*
X73299659Y-37221659D01*
X73329179Y-37197433D01*
X73362856Y-37179432D01*
X73399396Y-37168347D01*
X73443538Y-37164000D01*
X74892462Y-37164000D01*
X74936604Y-37168347D01*
X74936604Y-37168347D01*
G37*
G36*
X51693604Y-35654347D02*
G01*
X51730144Y-35665432D01*
X51763821Y-35683433D01*
X51793341Y-35707659D01*
X51817567Y-35737179D01*
X51835568Y-35770856D01*
X51846653Y-35807396D01*
X51851000Y-35851538D01*
X51851000Y-37300462D01*
X51846653Y-37344604D01*
X51835568Y-37381144D01*
X51817567Y-37414821D01*
X51793341Y-37444341D01*
X51763821Y-37468567D01*
X51730144Y-37486568D01*
X51693604Y-37497653D01*
X51649462Y-37502000D01*
X50700538Y-37502000D01*
X50656396Y-37497653D01*
X50619856Y-37486568D01*
X50586179Y-37468567D01*
X50556659Y-37444341D01*
X50532433Y-37414821D01*
X50514432Y-37381144D01*
X50503347Y-37344604D01*
X50499000Y-37300462D01*
X50499000Y-35851538D01*
X50503347Y-35807396D01*
X50514432Y-35770856D01*
X50532433Y-35737179D01*
X50556659Y-35707659D01*
X50586179Y-35683433D01*
X50619856Y-35665432D01*
X50656396Y-35654347D01*
X50700538Y-35650000D01*
X51649462Y-35650000D01*
X51693604Y-35654347D01*
X51693604Y-35654347D01*
G37*
G36*
X54493604Y-35654347D02*
G01*
X54530144Y-35665432D01*
X54563821Y-35683433D01*
X54593341Y-35707659D01*
X54617567Y-35737179D01*
X54635568Y-35770856D01*
X54646653Y-35807396D01*
X54651000Y-35851538D01*
X54651000Y-37300462D01*
X54646653Y-37344604D01*
X54635568Y-37381144D01*
X54617567Y-37414821D01*
X54593341Y-37444341D01*
X54563821Y-37468567D01*
X54530144Y-37486568D01*
X54493604Y-37497653D01*
X54449462Y-37502000D01*
X53500538Y-37502000D01*
X53456396Y-37497653D01*
X53419856Y-37486568D01*
X53386179Y-37468567D01*
X53356659Y-37444341D01*
X53332433Y-37414821D01*
X53314432Y-37381144D01*
X53303347Y-37344604D01*
X53299000Y-37300462D01*
X53299000Y-35851538D01*
X53303347Y-35807396D01*
X53314432Y-35770856D01*
X53332433Y-35737179D01*
X53356659Y-35707659D01*
X53386179Y-35683433D01*
X53419856Y-35665432D01*
X53456396Y-35654347D01*
X53500538Y-35650000D01*
X54449462Y-35650000D01*
X54493604Y-35654347D01*
X54493604Y-35654347D01*
G37*
M02*
