G04 #@! TF.GenerationSoftware,KiCad,Pcbnew,5.1.2-f72e74a~84~ubuntu18.04.1*
G04 #@! TF.CreationDate,2021-05-31T02:13:38+02:00*
G04 #@! TF.ProjectId,USB_I2C_Iface,5553425f-4932-4435-9f49-666163652e6b,rev?*
G04 #@! TF.SameCoordinates,Original*
G04 #@! TF.FileFunction,Paste,Top*
G04 #@! TF.FilePolarity,Positive*
%FSLAX46Y46*%
G04 Gerber Fmt 4.6, Leading zero omitted, Abs format (unit mm)*
G04 Created by KiCad (PCBNEW 5.1.2-f72e74a~84~ubuntu18.04.1) date 2021-05-31 02:13:38*
%MOMM*%
%LPD*%
G04 APERTURE LIST*
%ADD10C,0.100000*%
%ADD11C,1.250000*%
%ADD12R,2.000000X3.800000*%
%ADD13R,2.000000X1.500000*%
G04 APERTURE END LIST*
D10*
G36*
X88915504Y-36845204D02*
G01*
X88939773Y-36848804D01*
X88963571Y-36854765D01*
X88986671Y-36863030D01*
X89008849Y-36873520D01*
X89029893Y-36886133D01*
X89049598Y-36900747D01*
X89067777Y-36917223D01*
X89084253Y-36935402D01*
X89098867Y-36955107D01*
X89111480Y-36976151D01*
X89121970Y-36998329D01*
X89130235Y-37021429D01*
X89136196Y-37045227D01*
X89139796Y-37069496D01*
X89141000Y-37094000D01*
X89141000Y-38344000D01*
X89139796Y-38368504D01*
X89136196Y-38392773D01*
X89130235Y-38416571D01*
X89121970Y-38439671D01*
X89111480Y-38461849D01*
X89098867Y-38482893D01*
X89084253Y-38502598D01*
X89067777Y-38520777D01*
X89049598Y-38537253D01*
X89029893Y-38551867D01*
X89008849Y-38564480D01*
X88986671Y-38574970D01*
X88963571Y-38583235D01*
X88939773Y-38589196D01*
X88915504Y-38592796D01*
X88891000Y-38594000D01*
X88141000Y-38594000D01*
X88116496Y-38592796D01*
X88092227Y-38589196D01*
X88068429Y-38583235D01*
X88045329Y-38574970D01*
X88023151Y-38564480D01*
X88002107Y-38551867D01*
X87982402Y-38537253D01*
X87964223Y-38520777D01*
X87947747Y-38502598D01*
X87933133Y-38482893D01*
X87920520Y-38461849D01*
X87910030Y-38439671D01*
X87901765Y-38416571D01*
X87895804Y-38392773D01*
X87892204Y-38368504D01*
X87891000Y-38344000D01*
X87891000Y-37094000D01*
X87892204Y-37069496D01*
X87895804Y-37045227D01*
X87901765Y-37021429D01*
X87910030Y-36998329D01*
X87920520Y-36976151D01*
X87933133Y-36955107D01*
X87947747Y-36935402D01*
X87964223Y-36917223D01*
X87982402Y-36900747D01*
X88002107Y-36886133D01*
X88023151Y-36873520D01*
X88045329Y-36863030D01*
X88068429Y-36854765D01*
X88092227Y-36848804D01*
X88116496Y-36845204D01*
X88141000Y-36844000D01*
X88891000Y-36844000D01*
X88915504Y-36845204D01*
X88915504Y-36845204D01*
G37*
D11*
X88516000Y-37719000D03*
D10*
G36*
X91715504Y-36845204D02*
G01*
X91739773Y-36848804D01*
X91763571Y-36854765D01*
X91786671Y-36863030D01*
X91808849Y-36873520D01*
X91829893Y-36886133D01*
X91849598Y-36900747D01*
X91867777Y-36917223D01*
X91884253Y-36935402D01*
X91898867Y-36955107D01*
X91911480Y-36976151D01*
X91921970Y-36998329D01*
X91930235Y-37021429D01*
X91936196Y-37045227D01*
X91939796Y-37069496D01*
X91941000Y-37094000D01*
X91941000Y-38344000D01*
X91939796Y-38368504D01*
X91936196Y-38392773D01*
X91930235Y-38416571D01*
X91921970Y-38439671D01*
X91911480Y-38461849D01*
X91898867Y-38482893D01*
X91884253Y-38502598D01*
X91867777Y-38520777D01*
X91849598Y-38537253D01*
X91829893Y-38551867D01*
X91808849Y-38564480D01*
X91786671Y-38574970D01*
X91763571Y-38583235D01*
X91739773Y-38589196D01*
X91715504Y-38592796D01*
X91691000Y-38594000D01*
X90941000Y-38594000D01*
X90916496Y-38592796D01*
X90892227Y-38589196D01*
X90868429Y-38583235D01*
X90845329Y-38574970D01*
X90823151Y-38564480D01*
X90802107Y-38551867D01*
X90782402Y-38537253D01*
X90764223Y-38520777D01*
X90747747Y-38502598D01*
X90733133Y-38482893D01*
X90720520Y-38461849D01*
X90710030Y-38439671D01*
X90701765Y-38416571D01*
X90695804Y-38392773D01*
X90692204Y-38368504D01*
X90691000Y-38344000D01*
X90691000Y-37094000D01*
X90692204Y-37069496D01*
X90695804Y-37045227D01*
X90701765Y-37021429D01*
X90710030Y-36998329D01*
X90720520Y-36976151D01*
X90733133Y-36955107D01*
X90747747Y-36935402D01*
X90764223Y-36917223D01*
X90782402Y-36900747D01*
X90802107Y-36886133D01*
X90823151Y-36873520D01*
X90845329Y-36863030D01*
X90868429Y-36854765D01*
X90892227Y-36848804D01*
X90916496Y-36845204D01*
X90941000Y-36844000D01*
X91691000Y-36844000D01*
X91715504Y-36845204D01*
X91715504Y-36845204D01*
G37*
D11*
X91316000Y-37719000D03*
D10*
G36*
X91715504Y-40020204D02*
G01*
X91739773Y-40023804D01*
X91763571Y-40029765D01*
X91786671Y-40038030D01*
X91808849Y-40048520D01*
X91829893Y-40061133D01*
X91849598Y-40075747D01*
X91867777Y-40092223D01*
X91884253Y-40110402D01*
X91898867Y-40130107D01*
X91911480Y-40151151D01*
X91921970Y-40173329D01*
X91930235Y-40196429D01*
X91936196Y-40220227D01*
X91939796Y-40244496D01*
X91941000Y-40269000D01*
X91941000Y-41519000D01*
X91939796Y-41543504D01*
X91936196Y-41567773D01*
X91930235Y-41591571D01*
X91921970Y-41614671D01*
X91911480Y-41636849D01*
X91898867Y-41657893D01*
X91884253Y-41677598D01*
X91867777Y-41695777D01*
X91849598Y-41712253D01*
X91829893Y-41726867D01*
X91808849Y-41739480D01*
X91786671Y-41749970D01*
X91763571Y-41758235D01*
X91739773Y-41764196D01*
X91715504Y-41767796D01*
X91691000Y-41769000D01*
X90941000Y-41769000D01*
X90916496Y-41767796D01*
X90892227Y-41764196D01*
X90868429Y-41758235D01*
X90845329Y-41749970D01*
X90823151Y-41739480D01*
X90802107Y-41726867D01*
X90782402Y-41712253D01*
X90764223Y-41695777D01*
X90747747Y-41677598D01*
X90733133Y-41657893D01*
X90720520Y-41636849D01*
X90710030Y-41614671D01*
X90701765Y-41591571D01*
X90695804Y-41567773D01*
X90692204Y-41543504D01*
X90691000Y-41519000D01*
X90691000Y-40269000D01*
X90692204Y-40244496D01*
X90695804Y-40220227D01*
X90701765Y-40196429D01*
X90710030Y-40173329D01*
X90720520Y-40151151D01*
X90733133Y-40130107D01*
X90747747Y-40110402D01*
X90764223Y-40092223D01*
X90782402Y-40075747D01*
X90802107Y-40061133D01*
X90823151Y-40048520D01*
X90845329Y-40038030D01*
X90868429Y-40029765D01*
X90892227Y-40023804D01*
X90916496Y-40020204D01*
X90941000Y-40019000D01*
X91691000Y-40019000D01*
X91715504Y-40020204D01*
X91715504Y-40020204D01*
G37*
D11*
X91316000Y-40894000D03*
D10*
G36*
X88915504Y-40020204D02*
G01*
X88939773Y-40023804D01*
X88963571Y-40029765D01*
X88986671Y-40038030D01*
X89008849Y-40048520D01*
X89029893Y-40061133D01*
X89049598Y-40075747D01*
X89067777Y-40092223D01*
X89084253Y-40110402D01*
X89098867Y-40130107D01*
X89111480Y-40151151D01*
X89121970Y-40173329D01*
X89130235Y-40196429D01*
X89136196Y-40220227D01*
X89139796Y-40244496D01*
X89141000Y-40269000D01*
X89141000Y-41519000D01*
X89139796Y-41543504D01*
X89136196Y-41567773D01*
X89130235Y-41591571D01*
X89121970Y-41614671D01*
X89111480Y-41636849D01*
X89098867Y-41657893D01*
X89084253Y-41677598D01*
X89067777Y-41695777D01*
X89049598Y-41712253D01*
X89029893Y-41726867D01*
X89008849Y-41739480D01*
X88986671Y-41749970D01*
X88963571Y-41758235D01*
X88939773Y-41764196D01*
X88915504Y-41767796D01*
X88891000Y-41769000D01*
X88141000Y-41769000D01*
X88116496Y-41767796D01*
X88092227Y-41764196D01*
X88068429Y-41758235D01*
X88045329Y-41749970D01*
X88023151Y-41739480D01*
X88002107Y-41726867D01*
X87982402Y-41712253D01*
X87964223Y-41695777D01*
X87947747Y-41677598D01*
X87933133Y-41657893D01*
X87920520Y-41636849D01*
X87910030Y-41614671D01*
X87901765Y-41591571D01*
X87895804Y-41567773D01*
X87892204Y-41543504D01*
X87891000Y-41519000D01*
X87891000Y-40269000D01*
X87892204Y-40244496D01*
X87895804Y-40220227D01*
X87901765Y-40196429D01*
X87910030Y-40173329D01*
X87920520Y-40151151D01*
X87933133Y-40130107D01*
X87947747Y-40110402D01*
X87964223Y-40092223D01*
X87982402Y-40075747D01*
X88002107Y-40061133D01*
X88023151Y-40048520D01*
X88045329Y-40038030D01*
X88068429Y-40029765D01*
X88092227Y-40023804D01*
X88116496Y-40020204D01*
X88141000Y-40019000D01*
X88891000Y-40019000D01*
X88915504Y-40020204D01*
X88915504Y-40020204D01*
G37*
D11*
X88516000Y-40894000D03*
D12*
X55474000Y-38989000D03*
D13*
X49174000Y-38989000D03*
X49174000Y-41289000D03*
X49174000Y-36689000D03*
M02*
